<svg class="typst-doc" viewBox="0 0 314.91804444444443 50.2096" width="377.9" height="60.3" xmlns="http://www.w3.org/2000/svg" xmlns:xlink="http://www.w3.org/1999/xlink" xmlns:h5="http://www.w3.org/1999/xhtml">
    <g>
        <g class="typst-group">
            <g>
                <g class="typst-text" transform="matrix(1 0 0 -1 4.8 28)">
                    <use xlink:href="#g36A5ED0F0E7E9E3D2C1F7BD735013CAB" x="0" y="0" fill="#000000" fill-rule="nonzero"/>
                    <use xlink:href="#g81B430898A153190D358ED056FA67739" x="11.552" y="0" fill="#000000" fill-rule="nonzero"/>
                    <use xlink:href="#g27F72C6D8980CF334B55BAE88AEE79F3" x="16" y="0" fill="#000000" fill-rule="nonzero"/>
                    <use xlink:href="#gFAC774E6D47718C01BB0D2676D7E827E" x="24.896" y="0" fill="#000000" fill-rule="nonzero"/>
                    <use xlink:href="#g81B430898A153190D358ED056FA67739" x="33.792" y="0" fill="#000000" fill-rule="nonzero"/>
                    <use xlink:href="#g27F72C6D8980CF334B55BAE88AEE79F3" x="38.24" y="0" fill="#000000" fill-rule="nonzero"/>
                    <use xlink:href="#g2006BDB6C4606827A5FF5D783959A3A0" x="47.136" y="0" fill="#000000" fill-rule="nonzero"/>
                </g>
                <g class="typst-text" transform="matrix(1 0 0 -1 64.38044444444445 28)">
                    <use xlink:href="#gEBC7A44254DF8960ACE54D79D0347C26" x="0" y="0" fill="#000000" fill-rule="nonzero"/>
                </g>
                <g class="typst-text" transform="matrix(1 0 0 -1 81.2728888888889 28)">
                    <use xlink:href="#gED4E29A9FC90CD50EFA49ECBDD22BD05" x="0" y="0" fill="#000000" fill-rule="nonzero"/>
                </g>
                <g class="typst-text" transform="matrix(1 0 0 -1 90.5624888888889 45.297599999999996)">
                    <use xlink:href="#g96770A68E869C81156E14408A41B0BF9" x="0" y="0" fill="#000000" fill-rule="nonzero"/>
                </g>
                <g class="typst-text" transform="matrix(1 0 0 -1 107.04355555555557 28)">
                    <use xlink:href="#gCC3DF5A4206E9464C10601996BBB99BE" x="0" y="0" fill="#000000" fill-rule="nonzero"/>
                </g>
                <g class="typst-text" transform="matrix(1 0 0 -1 115.36355555555556 31.952)">
                    <use xlink:href="#g96770A68E869C81156E14408A41B0BF9" x="0" y="0" fill="#000000" fill-rule="nonzero"/>
                </g>
                <g class="typst-text" transform="matrix(1 0 0 -1 120.78435555555556 28)">
                    <use xlink:href="#g387ED7F1CF043DE547E2F9416A6F43BC" x="0" y="0" fill="#000000" fill-rule="nonzero"/>
                </g>
                <g class="typst-text" transform="matrix(1 0 0 -1 141.23235555555556 28)">
                    <use xlink:href="#gCC3DF5A4206E9464C10601996BBB99BE" x="0" y="0" fill="#000000" fill-rule="nonzero"/>
                </g>
                <g class="typst-text" transform="matrix(1 0 0 -1 149.55235555555555 31.952)">
                    <use xlink:href="#g96770A68E869C81156E14408A41B0BF9" x="0" y="0" fill="#000000" fill-rule="nonzero"/>
                </g>
                <g class="typst-text" transform="matrix(1 0 0 -1 159.41760000000002 28)">
                    <use xlink:href="#gEBC7A44254DF8960ACE54D79D0347C26" x="0" y="0" fill="#000000" fill-rule="nonzero"/>
                </g>
                <g class="typst-text" transform="matrix(1 0 0 -1 176.3100444444445 28)">
                    <use xlink:href="#g435BECC68E25FD6C9CC8D2E3AF91570F" x="0" y="0" fill="#000000" fill-rule="nonzero"/>
                </g>
                <g class="typst-group">
                    <g>
                        <g class="typst-text" transform="matrix(1 0 0 -1 188.3100444444445 18.432000000000002)">
                            <use xlink:href="#g20A5DE8706DF9A881DD94803D149326A" x="0" y="0" fill="#000000" fill-rule="nonzero"/>
                        </g>
                        <g class="typst-text" transform="matrix(1 0 0 -1 200.75804444444447 18.432000000000002)">
                            <use xlink:href="#g8B48538E2F907912949701677B70EB19" x="0" y="0" fill="#000000" fill-rule="nonzero"/>
                        </g>
                        <g class="typst-text" transform="matrix(1 0 0 -1 214.07004444444448 18.432000000000002)">
                            <use xlink:href="#g81B430898A153190D358ED056FA67739" x="0" y="0" fill="#000000" fill-rule="nonzero"/>
                            <use xlink:href="#g40F76B0F9F16DE495250E81E1B1A583B" x="4.448" y="0" fill="#000000" fill-rule="nonzero"/>
                            <use xlink:href="#gA2FBC3443D771EDF60252FE0008B4EF2" x="14.656000000000002" y="0" fill="#000000" fill-rule="nonzero"/>
                            <use xlink:href="#gCBBCED971BD41F41DD31F6C4F41BE73E" x="19.104000000000003" y="0" fill="#000000" fill-rule="nonzero"/>
                            <use xlink:href="#g40F76B0F9F16DE495250E81E1B1A583B" x="26.208000000000002" y="0" fill="#000000" fill-rule="nonzero"/>
                            <use xlink:href="#gF32AE40DAB3C25054FF1898B46C96A10" x="31.104000000000003" y="0" fill="#000000" fill-rule="nonzero"/>
                            <use xlink:href="#g9ED816610719C29446B8D89EEA96A849" x="37.328" y="0" fill="#000000" fill-rule="nonzero"/>
                            <use xlink:href="#gF32AE40DAB3C25054FF1898B46C96A10" x="42.656000000000006" y="0" fill="#000000" fill-rule="nonzero"/>
                            <use xlink:href="#gB943829011F417281E5E437A9DA05F67" x="48.88000000000001" y="0" fill="#000000" fill-rule="nonzero"/>
                            <use xlink:href="#g9ED816610719C29446B8D89EEA96A849" x="56.88000000000001" y="0" fill="#000000" fill-rule="nonzero"/>
                            <use xlink:href="#gDD7C6BC6E2DAC43581514E165E0D31CF" x="62.20800000000001" y="0" fill="#000000" fill-rule="nonzero"/>
                            <use xlink:href="#g81B430898A153190D358ED056FA67739" x="68.48000000000002" y="0" fill="#000000" fill-rule="nonzero"/>
                            <use xlink:href="#g2006BDB6C4606827A5FF5D783959A3A0" x="72.92800000000003" y="0" fill="#000000" fill-rule="nonzero"/>
                            <use xlink:href="#g699E8888A735A8836F47D45FB10A5D05" x="80.92800000000003" y="0" fill="#000000" fill-rule="nonzero"/>
                            <use xlink:href="#gF32AE40DAB3C25054FF1898B46C96A10" x="89.82400000000003" y="0" fill="#000000" fill-rule="nonzero"/>
                        </g>
                        <g class="typst-text" transform="matrix(1 0 0 -1 188.3100444444445 37.568000000000005)">
                            <use xlink:href="#gA0D485AB365C080A2B7E74DDD113CE36" x="0" y="0" fill="#000000" fill-rule="nonzero"/>
                        </g>
                        <g class="typst-text" transform="matrix(1 0 0 -1 200.75804444444447 37.568000000000005)">
                            <use xlink:href="#g8B48538E2F907912949701677B70EB19" x="0" y="0" fill="#000000" fill-rule="nonzero"/>
                        </g>
                        <g class="typst-text" transform="matrix(1 0 0 -1 214.07004444444448 37.568000000000005)">
                            <use xlink:href="#g81B430898A153190D358ED056FA67739" x="0" y="0" fill="#000000" fill-rule="nonzero"/>
                            <use xlink:href="#g40F76B0F9F16DE495250E81E1B1A583B" x="4.448" y="0" fill="#000000" fill-rule="nonzero"/>
                            <use xlink:href="#gDD7C6BC6E2DAC43581514E165E0D31CF" x="14.656000000000002" y="0" fill="#000000" fill-rule="nonzero"/>
                            <use xlink:href="#g81B430898A153190D358ED056FA67739" x="20.928000000000004" y="0" fill="#000000" fill-rule="nonzero"/>
                            <use xlink:href="#g2006BDB6C4606827A5FF5D783959A3A0" x="25.376000000000005" y="0" fill="#000000" fill-rule="nonzero"/>
                            <use xlink:href="#g699E8888A735A8836F47D45FB10A5D05" x="33.376000000000005" y="0" fill="#000000" fill-rule="nonzero"/>
                            <use xlink:href="#gF32AE40DAB3C25054FF1898B46C96A10" x="42.272000000000006" y="0" fill="#000000" fill-rule="nonzero"/>
                            <use xlink:href="#g9ED816610719C29446B8D89EEA96A849" x="48.49600000000001" y="0" fill="#000000" fill-rule="nonzero"/>
                            <use xlink:href="#gF32AE40DAB3C25054FF1898B46C96A10" x="53.82400000000001" y="0" fill="#000000" fill-rule="nonzero"/>
                            <use xlink:href="#gB943829011F417281E5E437A9DA05F67" x="60.048000000000016" y="0" fill="#000000" fill-rule="nonzero"/>
                            <use xlink:href="#g9ED816610719C29446B8D89EEA96A849" x="68.04800000000002" y="0" fill="#000000" fill-rule="nonzero"/>
                            <use xlink:href="#gA2FBC3443D771EDF60252FE0008B4EF2" x="73.37600000000002" y="0" fill="#000000" fill-rule="nonzero"/>
                            <use xlink:href="#gCBBCED971BD41F41DD31F6C4F41BE73E" x="77.82400000000001" y="0" fill="#000000" fill-rule="nonzero"/>
                            <use xlink:href="#g40F76B0F9F16DE495250E81E1B1A583B" x="84.92800000000001" y="0" fill="#000000" fill-rule="nonzero"/>
                            <use xlink:href="#gF32AE40DAB3C25054FF1898B46C96A10" x="89.82400000000001" y="0" fill="#000000" fill-rule="nonzero"/>
                        </g>
                    </g>
                </g>
            </g>
        </g>
    </g>
    <defs id="glyph">
        <symbol id="g36A5ED0F0E7E9E3D2C1F7BD735013CAB" overflow="visible">
            <path d="M 0 0m 9.92 5.3120003 c 0.22399998 0.6240001 0.6720009 0.96000004 1.3280001 0.97599983 v 0.6080003 c -0.49599934 -0.04799986 -0.9119997 -0.06400013 -1.2159996 -0.04799986 l -1.5360003 0.04799986 v -0.6080003 c 0.6079998 -0.015999794 0.9119997 -0.25600004 0.9119997 -0.704 c 0 -0.06399965 -0.015999794 -0.15999985 -0.063999176 -0.3039999 l -1.3920007 -3.8560002 l -1.5039997 4.224 c -0.048000336 0.14400005 -0.06400013 0.22399998 -0.06400013 0.27199984 c 0 0.24000025 0.3039999 0.36800003 0.928 0.36800003 v 0.6080003 l -1.7119999 -0.04799986 c -0.32000017 -0.01600027 -0.816 0 -1.4720001 0.04799986 v -0.6080003 c 0.55999994 0 0.8959999 -0.07999992 1.0079999 -0.22399998 c 0.04799986 -0.04799986 0.17600012 -0.3199997 0.35200024 -0.816 l -1.296 -3.6160002 l -1.4400003 4.032 c -0.04799986 0.14400005 -0.07999992 0.22400045 -0.07999992 0.25600004 c 0 0.24000025 0.31999993 0.36800003 0.944 0.36800003 v 0.6080003 l -1.792 -0.04799986 l -1.5360001 0.04799986 v -0.6080003 c 0.78400004 0 0.9920001 0.01600027 1.1680001 -0.5119996 l 2 -5.5680003 c 0.096000195 -0.256 0.22399998 -0.384 0.38400006 -0.384 c 0.17600012 0 0.3039999 0.11200001 0.38399982 0.35200003 l 1.5360003 4.288 l 1.552 -4.3040004 c 0.07999992 -0.224 0.20800018 -0.33600003 0.3840003 -0.33600003 c 0.11199999 0.016000003 0.23999977 0.12800002 0.36799955 0.33600003 Z "/>
        </symbol>
        <symbol id="g81B430898A153190D358ED056FA67739" overflow="visible">
            <path d="M 0 0m 3.104 9.616 c 0 0.4800005 -0.39999986 0.8959999 -0.8799999 0.8959999 c -0.48000014 0 -0.89600015 -0.4159994 -0.89600015 -0.8959999 c 0 -0.47999954 0.39999998 -0.9119997 0.8800001 -0.9119997 c 0.49600005 0 0.8959999 0.41600037 0.8959999 0.9119997 Z m -0.816 -9.568 l 1.664 -0.048 v 0.624 c -0.5279999 0 -0.84800005 0.032000005 -0.944 0.096000016 c -0.095999956 0.06400001 -0.12800002 0.24000001 -0.12800002 0.528 v 5.872 l -2.288 -0.19199991 v -0.6080003 c 0.528 0 0.8640001 -0.04799986 0.9760001 -0.12799978 c 0.11199999 -0.07999992 0.15999997 -0.3039999 0.15999997 -0.67199993 v -4.2560005 c 0 -0.30400002 -0.047999978 -0.49600005 -0.15999997 -0.56 c -0.11199999 -0.06400001 -0.464 -0.08000004 -1.0400001 -0.08000004 v -0.624 Z "/>
        </symbol>
        <symbol id="g27F72C6D8980CF334B55BAE88AEE79F3" overflow="visible">
            <path d="M 0 0m 5.024 6.6080003 c 0.72000027 0 1.0880003 -0.55999994 1.0880003 -1.6960001 v -3.6480002 c 0 -0.30400002 -0.048000336 -0.49600005 -0.16000032 -0.56 c -0.11199999 -0.06400001 -0.46399975 -0.096000016 -1.0559998 -0.096000016 v -0.60800004 l 1.8400002 0.048 l 1.8239999 -0.048 v 0.60800004 c -0.5120001 0 -0.84800005 0.015999973 -1.0079999 0.06400001 c -0.16000032 0.047999978 -0.22399998 0.15999997 -0.22399998 0.352 v 2.992 c 0 0.75199986 -0.01600027 1.2800002 -0.06400013 1.5840001 c -0.15999985 0.97599983 -0.8800001 1.4720001 -2.144 1.4720001 c -1.0080004 0 -1.7600002 -0.48000002 -2.2560003 -1.44 v 1.44 l -2.352 -0.17600012 v -0.6080003 c 0.57600003 0 0.92800003 -0.04799986 1.056 -0.14400005 c 0.12800002 -0.09599972 0.176 -0.3039999 0.176 -0.67199993 v -4.208 c 0 -0.30400002 -0.06400001 -0.49600005 -0.176 -0.56 c -0.11199999 -0.06400001 -0.464 -0.096000016 -1.056 -0.096000016 v -0.60800004 l 1.8399999 0.048 l 1.8240001 -0.048 v 0.60800004 c -0.592 0 -0.928 0.032000005 -1.04 0.096000016 c -0.11199999 0.06399995 -0.17600012 0.25599998 -0.17600012 0.56 v 2.88 c 0 1.296 0.8160002 2.4640002 2.0640001 2.4640002 Z "/>
        </symbol>
        <symbol id="gFAC774E6D47718C01BB0D2676D7E827E" overflow="visible">
            <path d="M 0 0m 5.984 -0.17600001 l 2.448 0.17600001 v 0.60800004 c -0.57599974 0 -0.9119997 0.032000005 -1.04 0.12800002 c -0.12799978 0.095999956 -0.19199991 0.33599997 -0.19199991 0.704 v 9.664 l -2.3839998 -0.17599964 v -0.6079998 c 0.55999994 0 0.9119997 -0.048000336 1.04 -0.14400005 c 0.12799978 -0.09599972 0.17599964 -0.3199997 0.17599964 -0.6879997 v -3.2480006 c -0.5119996 0.592 -1.152 0.8800001 -1.9200001 0.8800001 c -0.99199986 0 -1.8399999 -0.35200024 -2.5279999 -1.072 c -0.6880001 -0.72000027 -1.0400001 -1.5840001 -1.0400001 -2.5920002 c 0 -0.9760001 0.32 -1.824 0.9760001 -2.5440001 c 0.656 -0.72 1.456 -1.088 2.4320002 -1.088 c 0.816 0 1.5040002 0.30400002 2.032 0.92800003 Z m -1.8080001 6.8160005 c 0.6880002 0 1.2480001 -0.3039999 1.6480002 -0.9120002 c 0.11199999 -0.17600012 0.15999985 -0.35199976 0.15999985 -0.55999994 v -3.232 c 0 -0.20800006 -0.04799986 -0.38400006 -0.15999985 -0.56000006 c -0.44799995 -0.72 -1.0560002 -1.072 -1.8080001 -1.072 c -0.65600014 0 -1.1840003 0.32 -1.6000001 0.9760001 c -0.2880001 0.48000002 -0.43200004 1.1999999 -0.43200004 2.1599998 c 0 1.744 0.5920001 3.2000003 2.192 3.2000003 Z "/>
        </symbol>
        <symbol id="g2006BDB6C4606827A5FF5D783959A3A0" overflow="visible">
            <path d="M 0 0m 6.8960004 7.248 c -0.6080003 0 -1.1680002 -0.23999977 -1.6800003 -0.7199998 c -0.48000002 0.36800003 -1.0239997 0.54400015 -1.648 0.54400015 c -1.3759999 0 -2.624 -1.0240002 -2.624 -2.3680005 c 0 -0.67199993 0.23999995 -1.2159998 0.71999997 -1.632 c -0.30400002 -0.38399982 -0.464 -0.816 -0.464 -1.3119999 c 0 -0.60800004 0.20800006 -1.072 0.60800004 -1.3760002 c -0.67200005 -0.22399999 -1.3600001 -0.8 -1.3600001 -1.6160002 c 0 -0.68799996 0.448 -1.2320001 1.3280001 -1.6159999 c 0.67200005 -0.30400014 1.4080001 -0.4480002 2.2080002 -0.4480002 c 0.816 0 1.5679998 0.14400005 2.2400002 0.4480002 c 0.8800001 0.38399982 1.3119998 0.928 1.3119998 1.648 c 0 0.84800005 -0.35199976 1.4720001 -1.0559998 1.8720001 c -0.73600006 0.39999998 -1.552 0.44799995 -2.7360003 0.44799995 c -0.704 0 -1.088 0 -1.168 0.016000032 c -0.4480002 0.06400001 -0.7680001 0.49600005 -0.7680001 0.992 c 0 0.24000001 0.06400001 0.464 0.20799994 0.65600014 c 0.4480002 -0.30400014 0.96000004 -0.464 1.552 -0.464 c 1.3760002 0 2.608 1.0239999 2.608 2.368 c 0 0.6240001 -0.2079997 1.1360002 -0.6240001 1.5360003 c 0.4000001 0.36800003 0.83200026 0.5439997 1.2960005 0.5439997 c -0.0800004 -0.07999992 -0.12800026 -0.2079997 -0.12800026 -0.36800003 c 0 -0.35199976 0.17600012 -0.5279999 0.5279999 -0.5279999 c 0.33600044 0 0.5120001 0.17600012 0.5120001 0.54400015 c 0 0.4959998 -0.38399982 0.8319998 -0.86399984 0.8319998 Z m -3.3280003 -0.67199993 c 0.8640001 0 1.2960002 -0.6240001 1.2960002 -1.8720002 c 0 -1.2639999 -0.43200016 -1.9039998 -1.2960002 -1.9039998 c -0.8799999 0 -1.312 0.6240001 -1.312 1.888 c 0 1.2639999 0.43200016 1.888 1.312 1.888 Z m -0.944 -6.512 h 0.9280002 c 0.832 0 1.504 -0.048 2.016 -0.16 c 0.6880002 -0.14400001 1.0240002 -0.528 1.0240002 -1.1360002 c 0 -0.51199996 -0.32000017 -0.91199994 -0.96000004 -1.2160001 c -0.4960003 -0.24000001 -1.0400004 -0.352 -1.6320004 -0.352 c -0.57599974 0 -1.1199999 0.11199999 -1.632 0.352 c -0.6559999 0.30400014 -0.97599995 0.7040001 -0.97599995 1.2160001 c 0 0.6720001 0.576 1.2960001 1.232 1.2960001 Z "/>
        </symbol>
        <symbol id="gEBC7A44254DF8960ACE54D79D0347C26" overflow="visible">
            <path d="M 0 0m 11.168 5.872 h -9.8880005 c -0.25600004 0 -0.38400006 -0.12799978 -0.38400006 -0.36800003 c 0 -0.23999977 0.12800002 -0.36800003 0.38400006 -0.36800003 h 9.8880005 c 0.25600052 0 0.38400078 0.12800026 0.38400078 0.36800003 c 0 0.19199991 -0.1760006 0.36800003 -0.38400078 0.36800003 Z m 0 -3.0080001 h -9.8880005 c -0.25600004 0 -0.38400006 -0.12800002 -0.38400006 -0.36800003 c 0 -0.24000001 0.12800002 -0.36800003 0.38400006 -0.36800003 h 9.8880005 c 0.25600052 0 0.38400078 0.12800002 0.38400078 0.36800003 c 0 0.20800018 -0.1760006 0.36800003 -0.38400078 0.36800003 Z "/>
        </symbol>
        <symbol id="gED4E29A9FC90CD50EFA49ECBDD22BD05" overflow="visible">
            <path d="M 0 0m 20.240002 -7.2000003 l 1.9839993 5.216 h -0.5440006 c -0.30399895 -0.8000001 -0.816 -1.472 -1.552 -2.0159998 c -1.8079987 -1.3440003 -4.1280003 -1.6960001 -7.472 -1.6960001 h -9.456 l 8.000001 9.408 c 0.11199951 0.11199999 0.15999985 0.22399998 0.15999985 0.30400014 l -7.4560003 10.288 h 8.592 c 3.0240002 0 5.536001 -0.38399982 7.184 -1.4400005 c 0.960001 -0.6079998 1.632 -1.3599997 2.0160007 -2.2559996 h 0.5279999 l -1.9839993 4.592 h -18.832 c -0.2880001 0 -0.44800007 -0.048000336 -0.49600005 -0.14400005 c -0.016000032 -0.048000336 -0.016000032 -0.23999977 -0.016000032 -0.5760002 l 8.400001 -11.488001 l -8.208 -9.632 c -0.11199999 -0.12799978 -0.176 -0.23999977 -0.176 -0.32000017 c 0 -0.15999985 0.15999997 -0.23999977 0.49600005 -0.23999977 Z "/>
        </symbol>
        <symbol id="g96770A68E869C81156E14408A41B0BF9" overflow="visible">
            <path d="M 0 0m 3.6399999 6.9551997 c 0 0.26880026 -0.21280003 0.47039986 -0.48160005 0.47039986 c -0.33599997 0 -0.6608 -0.31360006 -0.6608 -0.6496 c 0 -0.26879978 0.21280003 -0.47039986 0.48160005 -0.47039986 c 0.33599997 0 0.6608 0.31360006 0.6608 0.6496 Z m -1.4896 -1.9824 c -0.52639997 0 -0.94079995 -0.26879978 -1.2432 -0.8063998 c -0.2576 -0.4480002 -0.3808 -0.7616 -0.3808 -0.9408002 c 0 -0.12319994 0.078400016 -0.17919993 0.22399998 -0.17919993 c 0.1232 0 0.20160002 0.067199945 0.2464 0.20160007 c 0.25760007 0.8847997 0.6272 1.3215997 1.1199999 1.3215997 c 0.15680003 0 0.23520017 -0.11199999 0.23520017 -0.34719992 c 0 -0.14559984 -0.11199999 -0.50399995 -0.33599997 -1.0863998 l -0.6944001 -1.7808 c -0.067199945 -0.17919993 -0.10080004 -0.33599997 -0.10080004 -0.4816 c 0 -0.58239996 0.50400007 -0.98559994 1.0864 -0.98559994 c 0.52639985 0 0.9296 0.2688 1.2319999 0.81759995 c 0.25760007 0.448 0.3808 0.7504 0.3808 0.9184 c 0 0.12319994 -0.0783999 0.1904 -0.22399998 0.1904 c -0.067199945 -0.01120007 -0.14560008 -0.067200065 -0.22399998 -0.17920005 c -0.011199951 -0.011199951 -0.022399902 -0.033599973 -0.022399902 -0.044799924 c -0.25760007 -0.8624 -0.6272001 -1.2992 -1.1088002 -1.2992 c -0.1567998 0 -0.23519993 0.11199999 -0.23519993 0.33600003 c 0 0.16799998 0.055999994 0.4031999 0.17919993 0.69439995 l 0.88479996 2.296 c 0.044800043 0.12319994 0.067200184 0.24639988 0.067200184 0.36959982 c 0 0.58239985 -0.50399995 0.9856 -1.0864 0.9856 Z "/>
        </symbol>
        <symbol id="gCC3DF5A4206E9464C10601996BBB99BE" overflow="visible">
            <path d="M 0 0m 6.8640003 10.112 l -0.94400024 -3.888 c -0.33599997 0.592 -0.7999997 0.8959999 -1.4239998 0.8959999 c -1.0400002 0 -1.9520001 -0.5279999 -2.7520003 -1.5999999 c -0.73600006 -0.9920001 -1.1040001 -2.0320003 -1.1040001 -3.1040003 c 0 -1.4080001 0.81600004 -2.5920002 2.16 -2.5920002 c 0.68799996 0 1.3600001 0.36800003 2 1.1200001 c 0.17600012 -0.60800004 0.72000027 -1.1200001 1.4720001 -1.1200001 c 1.1040001 0 1.4559999 1.312 1.6960001 2.4960003 c 0 0.14400005 -0.07999992 0.22399998 -0.24000025 0.22399998 c -0.14399958 0 -0.23999977 -0.11199999 -0.28799963 -0.33599997 c -0.32000017 -1.2640002 -0.704 -1.9040002 -1.1360002 -1.9040002 c -0.2720003 0 -0.4159999 0.22399998 -0.4159999 0.656 c 0 0.24000001 0.031999588 0.49600005 0.09599972 0.7520001 l 2.2720003 9.152 v 0.06400013 c -0.048000336 0.112000465 -0.14400005 0.17599964 -0.2720003 0.17599964 c -0.36800003 0 -1.04 -0.063999176 -2 -0.17599964 c -0.17600012 -0.015999794 -0.27199984 -0.14400005 -0.27199984 -0.36800003 c 0 -0.15999985 0.14400005 -0.23999977 0.43199968 -0.23999977 c 0.30400038 0 0.72000027 0.015999794 0.72000027 -0.20800018 Z m -1.408 -4.096 c 0.15999985 -0.33599997 0.23999977 -0.55999994 0.23999977 -0.704 c -0.015999794 -0.06400013 -0.032000065 -0.14400005 -0.04799986 -0.25600004 l -0.7839999 -3.104 c -0.04799986 -0.176 -0.16000032 -0.36800003 -0.3039999 -0.56000006 c -0.59200025 -0.72 -1.1680002 -1.088 -1.7280004 -1.088 c -0.62399983 0 -0.9439999 0.48000002 -0.9439999 1.424 c 0 0.38399994 0.095999956 0.96000016 0.288 1.728 c 0.33599997 1.3600004 0.816 2.2880003 1.408 2.7840002 c 0.32000017 0.27199984 0.6240001 0.4000001 0.928 0.4000001 c 0.43200016 0 0.75200033 -0.20800018 0.94400024 -0.6240001 Z "/>
        </symbol>
        <symbol id="g387ED7F1CF043DE547E2F9416A6F43BC" overflow="visible">
            <path d="M 0 0m 2.2240002 1.6960001 c -0.5120001 0 -0.84800017 -0.38400006 -0.84800017 -0.8960001 c 0 -0.48 0.36800003 -0.88 0.84800017 -0.88 c 0.22399998 0 0.4159999 0.064 0.55999994 0.208 l 0.016000032 -0.128 c 0 -1.008 -0.33599997 -1.8720001 -1.0080001 -2.5600002 c -0.11199999 -0.12800002 -0.176 -0.22399998 -0.176 -0.28799987 c 0 -0.16000009 0.06400001 -0.24000001 0.20800006 -0.24000001 c 0.14399993 0 0.33599997 0.19199991 0.60800004 0.55999994 c 0.5439999 0.768 0.816 1.616 0.816 2.528 c 0 0.84800005 -0.2880001 1.6960001 -1.0239999 1.6960001 Z "/>
        </symbol>
        <symbol id="g435BECC68E25FD6C9CC8D2E3AF91570F" overflow="visible">
            <path d="M 0 0m 3.1520002 4 c 1.648 0.8000002 3.648 2.6080003 3.648 4.7840004 v 9.568001 c 0 0.8640003 0.33599997 1.6959991 1.0240002 2.4960003 c 0.64000034 0.7519989 1.3920002 1.2639999 2.2399998 1.5359993 c 0.20800018 0.06400108 0.3039999 0.19199944 0.3039999 0.39999962 c 0 0.27200127 -0.1439991 0.41600037 -0.4159994 0.41600037 c -0.048000336 0 -0.07999992 0 -0.112000465 -0.01599884 c -1.1519995 -0.36800003 -2.1759996 -0.960001 -3.072 -1.776001 c -1.04 -0.97599983 -1.5679998 -1.9839993 -1.5679998 -3.0559998 v -9.568001 c 0 -0.94400024 -0.32000017 -1.8400002 -0.96000004 -2.6880002 c -0.6400001 -0.84800005 -1.4080002 -1.4239998 -2.3040001 -1.6960001 c -0.20800006 -0.06399965 -0.30400002 -0.19199991 -0.30400002 -0.4000001 c 0 -0.2079997 0.095999956 -0.33599973 0.30400002 -0.39999986 c 0.8959999 -0.27200007 1.664 -0.84800005 2.3040001 -1.6960001 c 0.63999987 -0.84800005 0.96000004 -1.7440001 0.96000004 -2.6880002 v -9.568 c 0 -1.0720005 0.5279999 -2.08 1.5679998 -3.0560007 c 0.8960004 -0.816 1.9200006 -1.408 3.072 -1.776 c 0.03200054 -0.015999794 0.06400013 -0.015999794 0.112000465 -0.015999794 c 0.2720003 0 0.4159994 0.14400005 0.4159994 0.41600037 c 0 0.20799923 -0.09599972 0.3359995 -0.3039999 0.39999962 c -0.8479996 0.2720003 -1.5999994 0.7840004 -2.2399998 1.5360003 c -0.6880002 0.8000002 -1.0240002 1.632 -1.0240002 2.4960003 v 9.568 c 0 2.176 -2 3.9840002 -3.648 4.784 Z "/>
        </symbol>
        <symbol id="g20A5DE8706DF9A881DD94803D149326A" overflow="visible">
            <path d="M 0 0m 11.168 4.3840003 h -4.56 v 4.56 c 0 0.25600052 -0.12799978 0.38399982 -0.38399982 0.38399982 c -0.25600004 0 -0.3840003 -0.1279993 -0.3840003 -0.38399982 v -4.56 h -4.56 c -0.25600004 0 -0.38400006 -0.12800026 -0.38400006 -0.3840003 c 0 -0.2559998 0.12800002 -0.38399982 0.38400006 -0.38399982 h 4.56 v -4.5600004 c 0 -0.25599998 0.12800026 -0.384 0.3840003 -0.384 c 0.25600004 0 0.38399982 0.12800002 0.38399982 0.384 v 4.5600004 h 4.56 c 0.25600052 0 0.38400078 0.12800002 0.38400078 0.38399982 c 0 0.20800018 -0.1760006 0.3840003 -0.38400078 0.3840003 Z "/>
        </symbol>
        <symbol id="g8B48538E2F907912949701677B70EB19" overflow="visible">
            <path d="M 0 0m 4.3040004 10.656 c -0.65600014 -0.67199993 -1.6160002 -1.0079994 -2.8800004 -1.0079994 v -0.62400055 c 0.832 0 1.5200002 0.12800026 2.048 0.38399982 v -8.096 c 0 -0.288 -0.06399989 -0.48000002 -0.20799994 -0.56 c -0.14400005 -0.07999998 -0.54400015 -0.12800002 -1.184 -0.12800002 h -0.56000006 v -0.624 c 0.39999998 0.032 1.264 0.048 2.592 0.048 c 1.3280001 0 2.1920004 -0.015999999 2.5920005 -0.048 v 0.624 h -0.5600004 c -0.65599966 0 -1.0559998 0.048000038 -1.184 0.12800002 c -0.12799978 0.07999998 -0.2079997 0.272 -0.2079997 0.56 v 8.864 c 0 0.38399982 -0.032000065 0.47999954 -0.44799995 0.47999954 Z "/>
        </symbol>
        <symbol id="g40F76B0F9F16DE495250E81E1B1A583B" overflow="visible">
            <path d="M 0 0m 4.2400002 11.280001 c -1.424 0 -2.48 -1.1520004 -2.48 -2.5760002 v -1.7600002 h -1.2320001 v -0.6079998 h 1.2320001 v -5.0720005 c 0 -0.30400002 -0.047999978 -0.49600005 -0.16000009 -0.56 c -0.11199999 -0.06400001 -0.464 -0.08000004 -1.056 -0.08000004 v -0.624 l 1.84 0.048 c 0.67200017 0.016000003 1.3600001 0 2.048 -0.048 v 0.624 h -0.38399982 c -0.5280001 0 -0.8640001 0.032000005 -0.9760003 0.11200005 c -0.11199999 0.07999998 -0.15999985 0.27199996 -0.15999985 0.55999994 v 5.0400004 h 1.7919998 v 0.6079998 h -1.8399999 v 1.776 c 0 0.96000004 0.49600005 2.08 1.3760002 2.08 c 0.12799978 0 0.23999977 -0.015999794 0.35199976 -0.047999382 c -0.23999977 -0.12800026 -0.36800003 -0.35200024 -0.36800003 -0.65600014 c 0 -0.4960003 0.24000025 -0.75199986 0.73600006 -0.75199986 c 0.4960003 0 0.75200033 0.25599957 0.75200033 0.76799965 c 0 0.72000027 -0.75200033 1.1680002 -1.4720001 1.1680002 Z "/>
        </symbol>
        <symbol id="gA2FBC3443D771EDF60252FE0008B4EF2" overflow="visible">
            <path d="M 0 0m 2.3040001 0.048 l 1.7760003 -0.048 v 0.624 c -0.5760002 0 -0.9280002 0.016000032 -1.0400002 0.08000004 c -0.11199999 0.06399995 -0.16000009 0.25599998 -0.16000009 0.56 v 9.84 l -2.3520002 -0.17599964 v -0.6079998 c 0.56000006 0 0.91200006 -0.048000336 1.024 -0.14400005 c 0.11199999 -0.09599972 0.176 -0.3199997 0.176 -0.6879997 v -8.224001 c 0 -0.30400002 -0.047999978 -0.49600005 -0.15999997 -0.56 c -0.11199999 -0.06400001 -0.464 -0.08000004 -1.0400001 -0.08000004 v -0.624 Z "/>
        </symbol>
        <symbol id="gCBBCED971BD41F41DD31F6C4F41BE73E" overflow="visible">
            <path d="M 0 0m 6.6400003 4.0160003 c 0 1.8400002 -1.072 3.152 -2.864 3.152 c -0.96000004 0 -1.7600002 -0.36800003 -2.4160004 -1.1199999 c -0.608 -0.704 -0.912 -1.552 -0.912 -2.528 c 0 -1.0080001 0.33600003 -1.8560002 1.0080001 -2.5920002 c 0.67199993 -0.73600006 1.504 -1.1040001 2.496 -1.1040001 c 0.9120002 0 1.6160002 0.32000002 2.0960002 0.944 c 0.4000001 0.528 0.592 0.91200006 0.592 1.1680001 c 0 0.16000009 -0.096000195 0.24000001 -0.27199984 0.24000001 c -0.12800026 0 -0.20800018 -0.07999992 -0.25600004 -0.25600004 c -0.35200024 -1.056 -1.0400004 -1.5840001 -2.0640001 -1.5840001 c -0.72000027 0 -1.2800002 0.33600003 -1.7120001 1.0239999 c -0.30400014 0.49600005 -0.44800007 1.248 -0.4640001 2.2720003 h 4.32 c 0.35199976 0 0.44799995 0.032000065 0.44799995 0.38400006 Z m -1.4240003 1.5679998 c 0.17600012 -0.5279999 0.25600004 -1.04 0.25600004 -1.5039997 h -3.584 c 0.047999978 1.0559998 0.32000005 1.776 0.8000001 2.144 c 0.39999986 0.3199997 0.75199986 0.48000002 1.088 0.48000002 c 0.72 0 1.2 -0.36800003 1.4399998 -1.1200004 Z "/>
        </symbol>
        <symbol id="gF32AE40DAB3C25054FF1898B46C96A10" overflow="visible">
            <path d="M 0 0m 5.3120003 2.016 v 0.96000004 h -0.5120001 v -0.928 c 0 -0.8000001 -0.2880001 -1.6960001 -0.9920001 -1.6960001 c -0.6559999 0 -0.9760001 0.544 -0.9760001 1.6320001 v 4.336 h 2.2240002 v 0.6080003 h -2.2240002 v 2.9119997 h -0.51199985 c -0.016000032 -0.5279999 -0.06400013 -0.9919996 -0.17600012 -1.408 c -0.27199996 -1.0559998 -0.896 -1.5999999 -1.84 -1.6479998 v -0.46400023 h 1.3280001 v -4.304 c 0 -0.944 0.288 -1.552 0.84799993 -1.8560001 c 0.43200016 -0.224 0.83200026 -0.33600003 1.2320001 -0.33600003 c 1.056 0 1.6000001 1.0560001 1.6000001 2.1920002 Z "/>
        </symbol>
        <symbol id="g9ED816610719C29446B8D89EEA96A849" overflow="visible">
            <path d="M 0 0m 0.17600001 2.992 h 4.2400002 v 0.928 h -4.2400002 Z "/>
        </symbol>
        <symbol id="gB943829011F417281E5E437A9DA05F67" overflow="visible">
            <path d="M 0 0m 3.9840002 -0.17600001 c 0.9920001 0 1.8239999 0.35200003 2.512 1.0560001 c 0.6880002 0.70400006 1.04 1.552 1.04 2.5440001 c 0 1.0079999 -0.33599997 1.888 -1.0079999 2.624 c -0.67199993 0.73600006 -1.52 1.1199999 -2.5280004 1.1199999 c -1.0079999 0 -1.8399999 -0.38399982 -2.5279999 -1.1199999 c -0.6880001 -0.73600006 -1.0240002 -1.6160002 -1.0240002 -2.624 c 0 -0.9920001 0.33600003 -1.8400002 1.0240002 -2.5440001 c 0.68799996 -0.70400006 1.536 -1.0560001 2.512 -1.0560001 Z m 0.015999794 0.512 c -0.7679999 0 -1.3439999 0.33600003 -1.744 1.0239999 c -0.25600004 0.44800007 -0.38399994 1.1840001 -0.38399994 2.1920004 c 0 0.9760001 0.1279999 1.6800001 0.3679999 2.128 c 0.38400006 0.6880002 0.96000004 1.0240002 1.7440002 1.0240002 c 0.75199986 0 1.3280001 -0.33599997 1.7280002 -0.9920001 c 0.27199984 -0.44799995 0.4000001 -1.1680002 0.4000001 -2.16 c 0 -1.8560002 -0.54400015 -3.2160003 -2.1120005 -3.2160003 Z "/>
        </symbol>
        <symbol id="gDD7C6BC6E2DAC43581514E165E0D31CF" overflow="visible">
            <path d="M 0 0m 5.8240004 6.0480003 c 0 0.6240001 -0.592 1.0240002 -1.2160001 1.0240002 c -0.816 0 -1.44 -0.48000002 -1.8560002 -1.4560003 v 1.4560003 l -2.3040001 -0.17600012 v -0.6080003 c 0.56 0 0.8960001 -0.04799986 1.0240002 -0.14400005 c 0.1279999 -0.09599972 0.19199991 -0.3039999 0.19199991 -0.67199993 v -4.208 c 0 -0.30400002 -0.047999978 -0.49600005 -0.15999997 -0.56 c -0.11199999 -0.06400001 -0.464 -0.096000016 -1.056 -0.096000016 v -0.60800004 l 1.8400002 0.048 c 0.67199993 0.016000003 1.3600001 0 2.0480003 -0.048 v 0.60800004 h -0.3840003 c -0.5279999 0 -0.8640001 0.047999978 -0.9760001 0.12800002 c -0.11199999 0.07999998 -0.15999985 0.27199996 -0.15999985 0.55999994 v 2.4160001 c 0 0.68799996 0.12800002 1.312 0.36800003 1.8399999 c 0.31999993 0.6880002 0.7839999 1.0400004 1.4079998 1.0560002 c -0.15999985 -0.15999985 -0.23999977 -0.35199976 -0.23999977 -0.5760002 c 0 -0.4959998 0.23999977 -0.7359996 0.73600006 -0.7359996 c 0.43200016 0 0.73600006 0.33599997 0.73600006 0.75199986 Z "/>
        </symbol>
        <symbol id="g699E8888A735A8836F47D45FB10A5D05" overflow="visible">
            <path d="M 0 0m 5.024 6.6400003 c 0.72000027 0 1.0880003 -0.55999994 1.0880003 -1.6960001 v -3.6800003 c 0 -0.30400002 -0.048000336 -0.49600005 -0.16000032 -0.56 c -0.11199999 -0.06400001 -0.46399975 -0.08000004 -1.0559998 -0.08000004 v -0.624 l 1.8400002 0.048 l 1.8239999 -0.048 v 0.624 c -0.5120001 0 -0.84800005 0.016000032 -1.0079999 0.06400001 c -0.16000032 0.048000038 -0.22399998 0.16000003 -0.22399998 0.33600003 v 3.0240002 c 0 0.7680001 -0.01600027 1.296 -0.06400013 1.5999999 c -0.15999985 0.9760003 -0.8800001 1.4720001 -2.144 1.4720001 c -0.9760003 0 -1.7120001 -0.44799995 -2.2080002 -1.3439999 v 5.3279996 l -2.4 -0.17599964 v -0.6079998 c 0.57600003 0 0.92800003 -0.048000336 1.056 -0.14400005 c 0.12800002 -0.09599972 0.176 -0.3199997 0.176 -0.6879997 v -8.224001 c 0 -0.30400002 -0.06400001 -0.49600005 -0.176 -0.56 c -0.11199999 -0.06400001 -0.464 -0.08000004 -1.056 -0.08000004 v -0.624 l 1.8399999 0.048 l 1.8240001 -0.048 v 0.624 c -0.592 0 -0.928 0.016000032 -1.04 0.08000004 c -0.11199999 0.06399995 -0.17600012 0.25599998 -0.17600012 0.56 v 2.9120002 c 0 1.296 0.8160002 2.4640002 2.0640001 2.4640002 Z "/>
        </symbol>
        <symbol id="gA0D485AB365C080A2B7E74DDD113CE36" overflow="visible">
            <path d="M 0 0m 11.168 4.32 h -9.8880005 c -0.25600004 0 -0.38400006 -0.11199999 -0.38400006 -0.32000017 c 0 -0.2079997 0.12800002 -0.31999993 0.38400006 -0.31999993 h 9.8880005 c 0.25600052 0 0.38400078 0.11200023 0.38400078 0.31999993 c 0 0.19200039 -0.19200039 0.32000017 -0.38400078 0.32000017 Z "/>
        </symbol>
    </defs>
</svg>
