<svg class="typst-doc" viewBox="0 0 59.948 17.962" width="71.9" height="21.6" xmlns="http://www.w3.org/2000/svg" xmlns:xlink="http://www.w3.org/1999/xlink" xmlns:h5="http://www.w3.org/1999/xhtml">
    <g>
        <g class="typst-group">
            <g>
                <g class="typst-text" transform="matrix(1 0 0 -1 4.2 13.761999999999999)">
                    <use xlink:href="#gF4A5CB55E66965CF4CDE1E2A8DC2E88C" x="0" y="0" fill="#000000" fill-rule="nonzero"/>
                </g>
                <g class="typst-text" transform="matrix(1 0 0 -1 15.319111111111111 13.761999999999999)">
                    <use xlink:href="#g562401A8368AA85D3B1CA201004B30A0" x="0" y="0" fill="#000000" fill-rule="nonzero"/>
                </g>
                <g class="typst-text" transform="matrix(1 0 0 -1 22.32222222222222 13.761999999999999)">
                    <use xlink:href="#g1F5ADBBBCAC3372F5DDBFAD83217EB50" x="0" y="0" fill="#000000" fill-rule="nonzero"/>
                </g>
                <g class="typst-text" transform="matrix(1 0 0 -1 33.46311111111111 13.761999999999999)">
                    <use xlink:href="#g2A4084421414AE051DDEC66D9D529DF" x="0" y="0" fill="#000000" fill-rule="nonzero"/>
                </g>
                <g class="typst-text" transform="matrix(1 0 0 -1 48.24399999999999 13.761999999999999)">
                    <use xlink:href="#g32EB16F4D3B99734709C01D84194EA1A" x="0" y="0" fill="#000000" fill-rule="nonzero"/>
                </g>
            </g>
        </g>
    </g>
    <defs id="glyph">
        <symbol id="gF4A5CB55E66965CF4CDE1E2A8DC2E88C" overflow="visible">
            <path d="M 0 0m 7.3780003 5.222 c 0 0.64400005 -0.6300001 0.9660001 -1.3299999 0.9660001 c -0.60200024 0 -1.0780001 -0.32200003 -1.4420004 -0.9660001 c -0.29399967 0.64400005 -0.7839999 0.9660001 -1.4979999 0.9660001 c -0.6859999 0 -1.2459999 -0.32200003 -1.694 -0.95200014 c -0.37800002 -0.546 -0.574 -0.95200014 -0.574 -1.2179999 c 0 -0.12599993 0.06999999 -0.1960001 0.21000004 -0.1960001 c 0.12599993 0 0.20999992 0.07000017 0.23799992 0.1960001 c 0.26600003 0.8119998 0.854 1.7639999 1.7920002 1.7639999 c 0.4619999 0 0.6859999 -0.29399967 0.6859999 -0.86800003 c 0 -0.29399967 -0.25199986 -1.3859999 -0.74199986 -3.262 c -0.23800015 -0.938 -0.658 -1.4000001 -1.2600001 -1.4000001 c -0.19599998 0 -0.37800002 0.041999996 -0.53200006 0.11200002 c 0.36400008 0.13999999 0.546 0.39200002 0.546 0.756 c 0 0.36400008 -0.18199992 0.546 -0.55999994 0.546 c -0.462 0 -0.81200004 -0.39199996 -0.81200004 -0.854 c 0 -0.64400005 0.658 -0.966 1.344 -0.966 c 0.58800006 0 1.0640001 0.32200003 1.4420002 0.966 c 0.26600003 -0.64400005 0.77 -0.966 1.4979999 -0.966 c 0.67199993 0 1.2320004 0.32200003 1.6800003 0.952 c 0.37799978 0.54600006 0.5739999 0.95199996 0.5739999 1.2179999 c 0 0.12599993 -0.07000017 0.1960001 -0.21000004 0.1960001 c -0.12599993 0 -0.1960001 -0.07000017 -0.23799992 -0.1960001 c -0.23799992 -0.798 -0.86800003 -1.764 -1.7780004 -1.764 c -0.4619999 0 -0.6999998 0.28 -0.6999998 0.8540001 c 0 0.18199992 0.07000017 0.574 0.22399998 1.2040001 l 0.47599983 1.8900001 c 0.26600027 1.0499997 0.7000003 1.5819998 1.3160005 1.5819998 c 0.19599962 0 0.37799978 -0.041999817 0.5319996 -0.11199999 c -0.37799978 -0.12599993 -0.55999994 -0.37799978 -0.55999994 -0.75600004 c 0 -0.36399984 0.1960001 -0.546 0.57400036 -0.546 c 0.44799995 0 0.79799986 0.40600014 0.79799986 0.8540001 Z "/>
        </symbol>
        <symbol id="g562401A8368AA85D3B1CA201004B30A0" overflow="visible">
            <path d="M 0 0m 2.6880002 3.5 c 0 0.40600014 -0.3360002 0.7420001 -0.7420001 0.7420001 c -0.40600002 0 -0.7420001 -0.33599997 -0.7420001 -0.7420001 c 0 -0.4059999 0.33600008 -0.74199986 0.7420001 -0.74199986 c 0.4059999 0 0.7420001 0.33599997 0.7420001 0.74199986 Z "/>
        </symbol>
        <symbol id="g1F5ADBBBCAC3372F5DDBFAD83217EB50" overflow="visible">
            <path d="M 0 0m 2.282 6.188 c -0.63 0 -1.12 -0.3499999 -1.47 -1.0500002 c -0.26600003 -0.546 -0.40600002 -0.9239998 -0.40600002 -1.1339998 c 0 -0.12600017 0.06999999 -0.1960001 0.22399998 -0.1960001 c 0.19600004 0 0.21000004 0.08400011 0.26600003 0.29400015 c 0.32200003 1.106 0.77 1.6659999 1.344 1.6659999 c 0.18200016 0 0.27999997 -0.12599993 0.27999997 -0.37799978 c 0 -0.22399998 -0.06999993 -0.546 -0.22399998 -0.95200014 c -0.53199995 -1.4420002 -0.798 -2.4080002 -0.798 -2.926 c 0 -1.0640001 0.6580001 -1.6940001 1.7360002 -1.6940001 c 0.4619999 0 0.8959999 0.16800001 1.2880001 0.504 c -0.49000025 -1.848 -1.2600002 -2.772 -2.3100002 -2.772 c -0.47600007 0 -0.7980001 0.15400004 -0.9660001 0.462 c 0.56000006 0.027999997 0.8399999 0.29400003 0.8399999 0.798 c 0 0.35000002 -0.18199992 0.53200006 -0.55999994 0.53200006 c -0.518 0 -0.826 -0.43400002 -0.826 -0.952 c 0 -0.7700001 0.70000005 -1.2600001 1.5120001 -1.2600001 c 1.6099999 0 2.9259999 1.4840001 3.2760003 2.8560002 l 1.316 5.2920003 c 0.041999817 0.1539998 0.055999756 0.2659998 0.055999756 0.33599997 c 0 0.27999973 -0.1539998 0.42000008 -0.44799995 0.42000008 c -0.22399998 0 -0.40600014 -0.11199999 -0.53200006 -0.32200003 c -0.08400011 -0.29400015 -0.1539998 -0.546 -0.1960001 -0.75600004 l -0.8959999 -3.5980003 c -0.13999987 -0.504 -0.88199997 -1.1340001 -1.5120001 -1.1340001 c -0.5319998 0 -0.79799986 0.35 -0.79799986 1.064 c 0 0.58800006 0.23799992 1.4840001 0.70000005 2.6880002 c 0.18199992 0.49 0.27999997 0.826 0.27999997 1.0220001 c 0 0.6859999 -0.49 1.19 -1.1760001 1.19 Z "/>
        </symbol>
        <symbol id="g2A4084421414AE051DDEC66D9D529DF" overflow="visible">
            <path d="M 0 0m 9.772 5.138 h -8.652 c -0.22399998 0 -0.33599997 -0.11199999 -0.33599997 -0.32200003 c 0 -0.21000004 0.11199999 -0.32200003 0.33599997 -0.32200003 h 8.652 c 0.22399998 0 0.33600044 0.11199999 0.33600044 0.32200003 c 0 0.16800022 -0.15400028 0.32200003 -0.33600044 0.32200003 Z m 0 -2.632 h -8.652 c -0.22399998 0 -0.33599997 -0.11199999 -0.33599997 -0.32200003 c 0 -0.20999992 0.11199999 -0.3219999 0.33599997 -0.3219999 h 8.652 c 0.22399998 0 0.33600044 0.11199999 0.33600044 0.3219999 c 0 0.18200016 -0.15400028 0.32200003 -0.33600044 0.32200003 Z "/>
        </symbol>
        <symbol id="g32EB16F4D3B99734709C01D84194EA1A" overflow="visible">
            <path d="M 0 0m 5.7260003 4.9420004 c 0 -0.36400032 0.1960001 -0.5460005 0.5739999 -0.5460005 c 0.49000025 0 0.8119998 0.43400002 0.8119998 0.9100003 c 0 0.546 -0.44799995 0.9239998 -0.99399996 0.9239998 c -0.62999964 0 -1.302 -0.42000008 -2.0439997 -1.2459998 c -0.57400036 -0.6300001 -1.0360003 -1.036 -1.4140003 -1.2180002 l 1.4140003 5.7400007 c -0.028000355 0.12599945 -0.056000233 0.21000004 -0.23800015 0.21000004 c -0.4480002 0 -1.5120001 -0.1260004 -1.6800001 -0.14000034 c -0.21000004 -0.027999878 -0.3080001 -0.12599945 -0.3080001 -0.3359995 c 0 -0.14000034 0.12600005 -0.21000004 0.37800002 -0.21000004 c 0.26600003 0 0.6300001 0.013999939 0.6300001 -0.18200016 l -2.0300002 -8.246 c -0.041999996 -0.15399998 -0.055999994 -0.25199997 -0.055999994 -0.308 c 0 -0.294 0.15399998 -0.448 0.448 -0.448 c 0.23800004 0 0.41999996 0.111999996 0.518 0.32200003 c 0.07000005 0.12599999 0.32200003 1.12 0.77 2.996 c 0.72800016 -0.06999993 1.4980001 -0.41999984 1.4980001 -1.1199999 c 0 -0.21000004 -0.09800005 -0.6300001 -0.09800005 -0.7700001 c 0 -0.79800004 0.5180001 -1.4280001 1.316 -1.4280001 c 0.8120003 0 1.3580003 0.728 1.638 2.184 c 0 0.12600017 -0.069999695 0.1960001 -0.21000004 0.1960001 c -0.12599993 0 -0.21000004 -0.09800005 -0.25199986 -0.29400003 c -0.3080001 -1.106 -0.6859999 -1.666 -1.1480002 -1.666 c -0.25199986 0 -0.37799978 0.19600001 -0.37799978 0.58800006 c 0 0.22400004 0.16799974 0.9800001 0.16799974 1.204 c 0 0.7980001 -0.64400005 1.2880001 -1.9459999 1.484 c 0.32200003 0.22399998 0.6860001 0.54600024 1.0779998 0.9660003 c 0.3920002 0.4199996 0.6720004 0.6859999 0.8540001 0.8399997 c 0.37800026 0.3080001 0.7420001 0.4619999 1.0640001 0.4619999 c 0.13999987 0 0.25199986 -0.027999878 0.33599997 -0.083999634 c -0.37799978 -0.07000017 -0.6999998 -0.42000008 -0.6999998 -0.7839999 Z "/>
        </symbol>
    </defs>
</svg>
