<svg class="typst-doc" viewBox="0 0 19.348 17.962" width="23.2" height="21.6" xmlns="http://www.w3.org/2000/svg" xmlns:xlink="http://www.w3.org/1999/xlink" xmlns:h5="http://www.w3.org/1999/xhtml">
    <g>
        <g class="typst-text" transform="matrix(1 0 0 -1 4.2 13.761999999999999)">
            <use xlink:href="#g3B8C61105869391F0D41C218996698F2" x="0" y="0" fill="#000000" fill-rule="nonzero"/>
        </g>
    </g>
    <defs id="glyph">
        <symbol id="g3B8C61105869391F0D41C218996698F2" overflow="visible">
            <path d="M 0 0m 7.7700005 9.562 h -4.4800005 c -0.32200003 0 -0.47600007 -0.013999939 -0.47600007 -0.32199955 c 0 -0.15400028 0.15400004 -0.22399998 0.4619999 -0.22399998 c 0.27999997 0 0.84000015 0.041999817 0.84000015 -0.18200016 c 0 -0.027999878 -0.013999939 -0.112000465 -0.056000233 -0.25199986 l -1.8479998 -7.434001 c -0.08400011 -0.30799997 -0.2240001 -0.49 -0.42000008 -0.56 c -0.09800005 -0.027999997 -0.35000002 -0.041999996 -0.78400004 -0.041999996 c -0.30799997 0 -0.448 -0.027999997 -0.448 -0.322 c 0 -0.15400001 0.08399999 -0.224 0.26600003 -0.224 l 1.75 0.042000003 l 0.89600015 -0.014000002 c 0.15400004 0 0.7140002 -0.028 0.8959999 -0.028 c 0.22399998 0 0.33599997 0.112 0.33599997 0.33600003 c 0 0.13999999 -0.1539998 0.20999998 -0.44799995 0.20999998 c -0.55999994 0 -0.8399999 0.055999994 -0.8399999 0.18200004 c 0 0 0.013999939 0.041999996 0.042000055 0.22399998 l 0.84000015 3.416 h 2.31 c 0.90999985 0 1.7780004 0.2800002 2.5899997 0.8260002 c 0.9100008 0.60199976 1.3580008 1.3439999 1.3580008 2.2259998 c 0 1.3860006 -1.316 2.1420002 -2.7860003 2.1420002 Z m -0.43400002 -0.5459995 c 1.2179995 0 1.8199997 -0.42000008 1.8199997 -1.2600007 c 0 -0.7839999 -0.3920002 -1.8339996 -0.79800034 -2.198 c -0.5319996 -0.47599983 -1.2319994 -0.71399975 -2.0999994 -0.71399975 h -1.8760004 l 0.92400026 3.6959996 c 0.11199999 0.4760008 0.11199999 0.4760008 0.6999998 0.4760008 Z "/>
        </symbol>
    </defs>
</svg>
