<svg class="typst-doc" viewBox="0 0 47.63422222222222 17.962" width="57.2" height="21.6" xmlns="http://www.w3.org/2000/svg" xmlns:xlink="http://www.w3.org/1999/xlink" xmlns:h5="http://www.w3.org/1999/xhtml">
    <g>
        <g class="typst-group">
            <g>
                <g class="typst-text" transform="matrix(1 0 0 -1 4.2 13.761999999999999)">
                    <use xlink:href="#gDC6D50905D30F9F7918B9381664D25B6" x="0" y="0" fill="#000000" fill-rule="nonzero"/>
                </g>
                <g class="typst-text" transform="matrix(1 0 0 -1 11.200000000000001 13.761999999999999)">
                    <use xlink:href="#gA3B711D029D54B71E20614543ED383DA" x="0" y="0" fill="#000000" fill-rule="nonzero"/>
                </g>
                <g class="typst-text" transform="matrix(1 0 0 -1 22.43111111111111 13.761999999999999)">
                    <use xlink:href="#g96894DBFAEB88B8C0688943D1086C853" x="0" y="0" fill="#000000" fill-rule="nonzero"/>
                </g>
                <g class="typst-text" transform="matrix(1 0 0 -1 36.43422222222222 13.761999999999999)">
                    <use xlink:href="#gFD0BA9881D0D806DC2AC3DFA3953260D" x="0" y="0" fill="#000000" fill-rule="nonzero"/>
                </g>
            </g>
        </g>
    </g>
    <defs id="glyph">
        <symbol id="gDC6D50905D30F9F7918B9381664D25B6" overflow="visible">
            <path d="M 0 0m 3.318 9.324 c -0.714 0 -1.316 -0.25199986 -1.834 -0.7560005 c -0.51800007 -0.5039997 -0.78400004 -1.0919995 -0.78400004 -1.8059998 c 0 -0.47599983 0.35000002 -0.82599974 0.78400004 -0.82599974 c 0.41999996 0 0.7700001 0.36399984 0.7700001 0.7839999 c 0 0.4619999 -0.33600008 0.7839999 -0.78400016 0.7839999 c -0.041999936 0 -0.06999993 0 -0.09799993 -0.013999939 c 0.2659999 0.68600035 0.8820001 1.2879996 1.764 1.2879996 c 1.1479998 0 1.7919998 -0.9939995 1.7919998 -2.1979995 c 0 -0.9380002 -0.47599983 -1.9460001 -1.428 -3.0100002 l -2.632 -2.9680002 c -0.18199998 -0.20999998 -0.16799998 -0.19599998 -0.16799998 -0.602 h 5.1940002 l 0.40600014 2.52 h -0.4619999 c -0.11199999 -0.71399987 -0.21000004 -1.1199999 -0.29400015 -1.2459999 c -0.07000017 -0.07000005 -0.48999977 -0.09800005 -1.2600002 -0.09800005 h -2.3379998 l 1.358 1.33 c 0.9519999 0.89600015 2.156 1.862 2.562 2.604 c 0.2800002 0.49000025 0.42000008 0.98 0.42000008 1.4700003 c 0 1.652 -1.2880001 2.744 -2.9680002 2.744 Z "/>
        </symbol>
        <symbol id="gA3B711D029D54B71E20614543ED383DA" overflow="visible">
            <path d="M 0 0m 7.728 8.862 c 0 0.6160002 -0.60199976 1.0079994 -1.2599998 1.0079994 c -0.86800003 0 -1.4700003 -0.55999947 -1.7920003 -1.6659994 c -0.07000017 -0.25200033 -0.22399998 -0.9660001 -0.44799995 -2.1420002 h -0.9100001 c -0.3080001 0 -0.4619999 -0.013999939 -0.4619999 -0.3080001 c 0 -0.1539998 0.13999987 -0.22399998 0.43400002 -0.22399998 h 0.8399999 l -1.0220001 -5.418 c -0.15400004 -0.79800004 -0.2939999 -1.386 -0.41999984 -1.778 c -0.16800022 -0.518 -0.40600014 -0.78400004 -0.7140001 -0.78400004 c -0.21000004 0 -0.37800002 0.055999994 -0.53200006 0.15400004 c 0.44800007 0.06999993 0.67200005 0.33599997 0.67200005 0.7839999 c 0 0.36400008 -0.18200004 0.54600006 -0.56000006 0.54600006 c -0.47599995 0 -0.812 -0.42000002 -0.812 -0.8960001 c 0 -0.61600006 0.57399994 -1.008 1.2320001 -1.008 c 0.35000002 0 0.67200005 0.1400001 0.9380001 0.43400002 c 0.44799995 0.462 0.79799986 1.1200001 1.05 2.002 c 0.15400004 0.546 0.2939999 1.0780001 0.39199996 1.61 l 0.8120003 4.354 h 1.1479998 c 0.32200003 0 0.4619999 0.013999939 0.4619999 0.33599997 c 0 0.12599993 -0.13999987 0.1960001 -0.4199996 0.1960001 h -1.0780001 c 0.083999634 0.5739999 0.47599983 2.6879997 0.60199976 2.9540005 c 0.13999987 0.29399967 0.33599997 0.43400002 0.5880003 0.43400002 c 0.20999956 0 0.39199972 -0.05600071 0.546 -0.15400028 c -0.43400002 -0.09800053 -0.658 -0.35000038 -0.658 -0.7840004 c 0 -0.36399937 0.18199968 -0.546 0.55999994 -0.546 c 0.47599983 0 0.8119998 0.42000055 0.8119998 0.8960004 Z "/>
        </symbol>
        <symbol id="g96894DBFAEB88B8C0688943D1086C853" overflow="visible">
            <path d="M 0 0m 9.772 3.8360002 h -3.9900002 v 3.99 c 0 0.22399998 -0.11199999 0.33600044 -0.33599997 0.33600044 c -0.22399998 0 -0.33599997 -0.112000465 -0.33599997 -0.33600044 v -3.99 h -3.9900002 c -0.22399998 0 -0.33599997 -0.11199999 -0.33599997 -0.3360002 c 0 -0.22399998 0.11199999 -0.33599997 0.33599997 -0.33599997 h 3.9900002 v -3.99 c 0 -0.22400004 0.11199999 -0.33600003 0.33599997 -0.33600003 c 0.22399998 0 0.33599997 0.11199999 0.33599997 0.33600003 v 3.99 h 3.9900002 c 0.22399998 0 0.33600044 0.11199999 0.33600044 0.33599997 c 0 0.18200016 -0.15400028 0.3360002 -0.33600044 0.3360002 Z "/>
        </symbol>
        <symbol id="gFD0BA9881D0D806DC2AC3DFA3953260D" overflow="visible">
            <path d="M 0 0m 3.766 9.324 c -0.5739999 -0.5880003 -1.414 -0.88199997 -2.52 -0.88199997 v -0.546 c 0.72800004 0 1.3299999 0.11199999 1.792 0.33599997 v -7.0840006 c 0 -0.25199997 -0.055999994 -0.41999996 -0.18199992 -0.49 c -0.12600017 -0.06999999 -0.47600007 -0.11199999 -1.0360001 -0.11199999 h -0.49 v -0.546 c 0.35000002 0.028 1.1060001 0.042000003 2.2680001 0.042000003 c 1.1620002 0 1.9180002 -0.014000002 2.2680001 -0.042000003 v 0.546 h -0.48999977 c -0.57400036 0 -0.92400026 0.041999996 -1.0360003 0.11199999 c -0.11199999 0.07000005 -0.18200016 0.23800004 -0.18200016 0.49 v 7.7560005 c 0 0.33600044 -0.027999878 0.42000008 -0.39199996 0.42000008 Z "/>
        </symbol>
    </defs>
</svg>
