<svg class="typst-doc" viewBox="0 0 16.52 17.962" width="19.8" height="21.6" xmlns="http://www.w3.org/2000/svg" xmlns:xlink="http://www.w3.org/1999/xlink" xmlns:h5="http://www.w3.org/1999/xhtml">
    <g>
        <g class="typst-text" transform="matrix(1 0 0 -1 4.2 13.761999999999999)">
            <use xlink:href="#gA3B711D029D54B71E20614543ED383DA" x="0" y="0" fill="#000000" fill-rule="nonzero"/>
        </g>
    </g>
    <defs id="glyph">
        <symbol id="gA3B711D029D54B71E20614543ED383DA" overflow="visible">
            <path d="M 0 0m 7.728 8.862 c 0 0.6160002 -0.60199976 1.0079994 -1.2599998 1.0079994 c -0.86800003 0 -1.4700003 -0.55999947 -1.7920003 -1.6659994 c -0.07000017 -0.25200033 -0.22399998 -0.9660001 -0.44799995 -2.1420002 h -0.9100001 c -0.3080001 0 -0.4619999 -0.013999939 -0.4619999 -0.3080001 c 0 -0.1539998 0.13999987 -0.22399998 0.43400002 -0.22399998 h 0.8399999 l -1.0220001 -5.418 c -0.15400004 -0.79800004 -0.2939999 -1.386 -0.41999984 -1.778 c -0.16800022 -0.518 -0.40600014 -0.78400004 -0.7140001 -0.78400004 c -0.21000004 0 -0.37800002 0.055999994 -0.53200006 0.15400004 c 0.44800007 0.06999993 0.67200005 0.33599997 0.67200005 0.7839999 c 0 0.36400008 -0.18200004 0.54600006 -0.56000006 0.54600006 c -0.47599995 0 -0.812 -0.42000002 -0.812 -0.8960001 c 0 -0.61600006 0.57399994 -1.008 1.2320001 -1.008 c 0.35000002 0 0.67200005 0.1400001 0.9380001 0.43400002 c 0.44799995 0.462 0.79799986 1.1200001 1.05 2.002 c 0.15400004 0.546 0.2939999 1.0780001 0.39199996 1.61 l 0.8120003 4.354 h 1.1479998 c 0.32200003 0 0.4619999 0.013999939 0.4619999 0.33599997 c 0 0.12599993 -0.13999987 0.1960001 -0.4199996 0.1960001 h -1.0780001 c 0.083999634 0.5739999 0.47599983 2.6879997 0.60199976 2.9540005 c 0.13999987 0.29399967 0.33599997 0.43400002 0.5880003 0.43400002 c 0.20999956 0 0.39199972 -0.05600071 0.546 -0.15400028 c -0.43400002 -0.09800053 -0.658 -0.35000038 -0.658 -0.7840004 c 0 -0.36399937 0.18199968 -0.546 0.55999994 -0.546 c 0.47599983 0 0.8119998 0.42000055 0.8119998 0.8960004 Z "/>
        </symbol>
    </defs>
</svg>
