<svg class="typst-doc" viewBox="0 0 175.6232888888889 42.576" width="210.7" height="51.1" xmlns="http://www.w3.org/2000/svg" xmlns:xlink="http://www.w3.org/1999/xlink" xmlns:h5="http://www.w3.org/1999/xhtml">
    <g>
        <g class="typst-group">
            <g>
                <g class="typst-text" transform="matrix(1 0 0 -1 4.8 22.704)">
                    <use xlink:href="#gDFE15D62F155B7E71B89E3A419D7439A" x="0" y="0" fill="#000000" fill-rule="nonzero"/>
                </g>
                <g class="typst-text" transform="matrix(1 0 0 -1 13.952 26.656)">
                    <use xlink:href="#g5862E4CB70D59A7B81D04D8745B5099B" x="0" y="0" fill="#000000" fill-rule="nonzero"/>
                </g>
                <g class="typst-text" transform="matrix(1 0 0 -1 25.66524444444444 22.704)">
                    <use xlink:href="#gEBC7A44254DF8960ACE54D79D0347C26" x="0" y="0" fill="#000000" fill-rule="nonzero"/>
                </g>
                <g class="typst-group">
                    <g>
                        <g class="typst-text" transform="matrix(1 0 0 -1 46.32328888888889 11.872000000000002)">
                            <use xlink:href="#gDFE15D62F155B7E71B89E3A419D7439A" x="0" y="0" fill="#000000" fill-rule="nonzero"/>
                        </g>
                        <g class="typst-text" transform="matrix(1 0 0 -1 55.47528888888889 15.824000000000002)">
                            <use xlink:href="#gB51887AC4CF7A1F09D9BC9BCB5F6E80F" x="0" y="0" fill="#000000" fill-rule="nonzero"/>
                        </g>
                        <g class="typst-text" transform="matrix(1 0 0 -1 44.157688888888885 22.416)">
                            <use xlink:href="#gAFB633AB724C57674C59CF0192B86B86" x="0" y="0" fill="#000000" fill-rule="nonzero"/>
                        </g>
                        <path class="typst-shape" fill="none" stroke="#000000" stroke-width="0.768" stroke-linecap="butt" stroke-linejoin="miter" stroke-miterlimit="4" transform="matrix(1 0 0 1 57.48568888888889 22.16)" d="M 0 0h 7.424 "/>
                        <g class="typst-text" transform="matrix(1 0 0 -1 57.48568888888889 34.008)">
                            <use xlink:href="#g9BB6D13EB437EA4852DF264BAA318B85" x="0" y="0" fill="#000000" fill-rule="nonzero"/>
                        </g>
                        <path class="typst-shape" fill="none" stroke="#000000" stroke-width="0.768" stroke-linecap="butt" stroke-linejoin="miter" stroke-miterlimit="4" transform="matrix(1 0 0 1 44.157688888888885 18.704)" d="M 0 0h 20.752 "/>
                    </g>
                </g>
                <g class="typst-text" transform="matrix(1 0 0 -1 66.50968888888889 22.704)">
                    <use xlink:href="#g387ED7F1CF043DE547E2F9416A6F43BC" x="0" y="0" fill="#000000" fill-rule="nonzero"/>
                </g>
                <g class="typst-text" transform="matrix(1 0 0 -1 86.9576888888889 22.704)">
                    <use xlink:href="#g808772734043F97D61E163CEAAB27189" x="0" y="0" fill="#000000" fill-rule="nonzero"/>
                </g>
                <g class="typst-text" transform="matrix(1 0 0 -1 94.7976888888889 26.656)">
                    <use xlink:href="#g5862E4CB70D59A7B81D04D8745B5099B" x="0" y="0" fill="#000000" fill-rule="nonzero"/>
                </g>
                <g class="typst-text" transform="matrix(1 0 0 -1 106.51093333333334 22.704)">
                    <use xlink:href="#gEBC7A44254DF8960ACE54D79D0347C26" x="0" y="0" fill="#000000" fill-rule="nonzero"/>
                </g>
                <g class="typst-text" transform="matrix(1 0 0 -1 123.4033777777778 22.704)">
                    <use xlink:href="#g808772734043F97D61E163CEAAB27189" x="0" y="0" fill="#000000" fill-rule="nonzero"/>
                </g>
                <g class="typst-text" transform="matrix(1 0 0 -1 131.2433777777778 26.656)">
                    <use xlink:href="#gB51887AC4CF7A1F09D9BC9BCB5F6E80F" x="0" y="0" fill="#000000" fill-rule="nonzero"/>
                </g>
                <g class="typst-text" transform="matrix(1 0 0 -1 142.06773333333334 22.704)">
                    <use xlink:href="#g5F953B2C3915CEDCD3A184411AE8B3F2" x="0" y="0" fill="#000000" fill-rule="nonzero"/>
                </g>
                <g class="typst-text" transform="matrix(1 0 0 -1 150.0712888888889 10.328)">
                    <use xlink:href="#gAFB633AB724C57674C59CF0192B86B86" x="0" y="0" fill="#000000" fill-rule="nonzero"/>
                </g>
                <path class="typst-shape" fill="none" stroke="#000000" stroke-width="0.768" stroke-linecap="butt" stroke-linejoin="miter" stroke-miterlimit="4" transform="matrix(1 0 0 1 163.3992888888889 10.072)" d="M 0 0h 7.424 "/>
                <g class="typst-text" transform="matrix(1 0 0 -1 163.3992888888889 22.704)">
                    <use xlink:href="#g9BB6D13EB437EA4852DF264BAA318B85" x="0" y="0" fill="#000000" fill-rule="nonzero"/>
                </g>
            </g>
        </g>
    </g>
    <defs id="glyph">
        <symbol id="gDFE15D62F155B7E71B89E3A419D7439A" overflow="visible">
            <path d="M 0 0m 8.432 5.9680004 c 0 0.73600006 -0.7199998 1.1040001 -1.52 1.1040001 c -0.6879997 0 -1.2319999 -0.36800003 -1.6479998 -1.1040001 c -0.33599997 0.73600006 -0.8960004 1.1040001 -1.7120001 1.1040001 c -0.78400016 0 -1.4240003 -0.36800003 -1.9360002 -1.0880003 c -0.43200004 -0.6240001 -0.656 -1.0879998 -0.656 -1.3920002 c 0 -0.14399958 0.08000004 -0.22399998 0.24000001 -0.22399998 c 0.14400005 0 0.24000001 0.0800004 0.27200007 0.22399998 c 0.30400002 0.92800045 0.9760001 2.0160003 2.048 2.0160003 c 0.5280001 0 0.78400016 -0.33599997 0.78400016 -0.9920001 c 0 -0.33599997 -0.2880001 -1.5840001 -0.8480003 -3.7280002 c -0.27199984 -1.072 -0.75199986 -1.6000001 -1.44 -1.6000001 c -0.22399998 0 -0.43199992 0.048000008 -0.6079999 0.12799999 c 0.416 0.16000003 0.62399995 0.448 0.62399995 0.8640001 c 0 0.416 -0.20799994 0.62399995 -0.64 0.62399995 c -0.52800006 0 -0.9280001 -0.44799995 -0.9280001 -0.976 c 0 -0.73600006 0.7520001 -1.1040001 1.536 -1.1040001 c 0.67200017 0 1.2160001 0.36800003 1.6480002 1.1040001 c 0.3039999 -0.73600006 0.8800001 -1.1040001 1.7119999 -1.1040001 c 0.7680001 0 1.408 0.36800003 1.9200001 1.088 c 0.43200016 0.62399995 0.65600014 1.0879999 0.65600014 1.3920001 c 0 0.14400005 -0.07999992 0.22399998 -0.23999977 0.22399998 c -0.14400005 0 -0.22400045 -0.07999992 -0.2720003 -0.22399998 c -0.27199984 -0.91200006 -0.9920001 -2.016 -2.032 -2.016 c -0.5279999 0 -0.8000002 0.32000002 -0.8000002 0.9760001 c 0 0.20800006 0.0800004 0.656 0.25600004 1.376 l 0.54400015 2.16 c 0.3039999 1.2000003 0.8000002 1.8080001 1.5040002 1.8080001 c 0.22399998 0 0.43200016 -0.04799986 0.6079998 -0.12799978 c -0.43199968 -0.14400005 -0.63999987 -0.43200016 -0.63999987 -0.8640003 c 0 -0.4159999 0.22399998 -0.6240001 0.65600014 -0.6240001 c 0.5120001 0 0.9119997 0.46400023 0.9119997 0.9760003 Z "/>
        </symbol>
        <symbol id="g5862E4CB70D59A7B81D04D8745B5099B" overflow="visible">
            <path d="M 0 0m 3.3936 7.4367995 c -0.48160005 -0.47039986 -1.1984 -0.7055998 -2.1728 -0.7055998 v -0.49279976 c 0.6608 0 1.1872001 0.10079956 1.5904 0.29119968 v -5.5775995 c 0 -0.14560002 -0.011199951 -0.23519999 -0.044800043 -0.27999997 c -0.055999994 -0.1232 -0.39199996 -0.1904 -1.0079999 -0.1904 h -0.45920002 v -0.4816 l 1.9936 0.0448 l 2.0047998 -0.0448 v 0.4816 h -0.4591999 c -0.6160002 0 -0.95200014 0.067200005 -1.0192001 0.1904 c -0.022399902 0.044799984 -0.033599854 0.13439995 -0.033599854 0.27999997 v 6.1263995 c 0 0.3024001 -0.044800043 0.35839987 -0.39199996 0.35839987 Z "/>
        </symbol>
        <symbol id="gEBC7A44254DF8960ACE54D79D0347C26" overflow="visible">
            <path d="M 0 0m 11.168 5.872 h -9.8880005 c -0.25600004 0 -0.38400006 -0.12799978 -0.38400006 -0.36800003 c 0 -0.23999977 0.12800002 -0.36800003 0.38400006 -0.36800003 h 9.8880005 c 0.25600052 0 0.38400078 0.12800026 0.38400078 0.36800003 c 0 0.19199991 -0.1760006 0.36800003 -0.38400078 0.36800003 Z m 0 -3.0080001 h -9.8880005 c -0.25600004 0 -0.38400006 -0.12800002 -0.38400006 -0.36800003 c 0 -0.24000001 0.12800002 -0.36800003 0.38400006 -0.36800003 h 9.8880005 c 0.25600052 0 0.38400078 0.12800002 0.38400078 0.36800003 c 0 0.20800018 -0.1760006 0.36800003 -0.38400078 0.36800003 Z "/>
        </symbol>
        <symbol id="gB51887AC4CF7A1F09D9BC9BCB5F6E80F" overflow="visible">
            <path d="M 0 0m 5.7791996 3.5728 c 0 1.2656 -0.22399998 2.2288 -0.6608 2.8896 c -0.35839987 0.55999994 -1.0751996 0.97439957 -1.9375997 0.97439957 c -0.3584001 0 -0.6832001 -0.055999756 -0.9632001 -0.1791997 c -1.2319999 -0.51520014 -1.6351999 -1.9488001 -1.6351999 -3.6848 c 0 -0.3808 0.022400022 -0.7392001 0.055999994 -1.0864 c 0.1904 -1.4671999 0.8736 -2.7103999 2.5424 -2.7103999 c 0.35839987 0 0.6831999 0.055999994 0.9632001 0.1792 c 1.2319999 0.504 1.6351995 1.9039999 1.6351995 3.6176 Z m -1.2767997 2.4864 c 0.12319994 -0.4144001 0.19040012 -1.1872001 0.19040012 -2.3408 c 0 -1.0975997 -0.04480028 -1.8703998 -0.14560032 -2.3295999 c -0.13439989 -0.6607999 -0.60479975 -1.2096 -1.3663998 -1.2096 c -0.27999997 0 -0.55999994 0.0896 -0.8176 0.28 c -0.34719992 0.25759998 -0.56000006 0.7615999 -0.6496 1.5343999 c -0.033599973 0.25760007 -0.044799924 0.82879996 -0.044799924 1.7247999 c 0 1.0864003 0.055999994 1.8367999 0.16799998 2.24 c 0.1904 0.7168002 0.63839996 1.0752001 1.344 1.0752001 c 0.67199993 0 1.1647997 -0.4368 1.3216 -0.97440004 Z "/>
        </symbol>
        <symbol id="gAFB633AB724C57674C59CF0192B86B86" overflow="visible">
            <path d="M 0 0m 13.552001 -0.032 c 0.063999176 0.14400001 0.09599972 0.24000001 0.09599972 0.28800002 c 0 0.256 -0.12800026 0.38400003 -0.38399982 0.38400003 c -0.14400005 0 -0.25600052 -0.06400001 -0.32000065 -0.20800003 c -2.288 -4.576 -3.4239998 -6.8800006 -3.4239998 -6.9120007 v -0.015999794 c 0 -0.11199999 -1.0880003 -2.4320002 -3.2800002 -6.9920006 l -2.7680001 6.1120005 c -0.07999992 0.17600012 -0.15999985 0.25600004 -0.25600004 0.25600004 c -0.04799986 0 -0.14400005 -0.04799986 -0.27199984 -0.14400005 l -1.5680002 -1.1839995 c -0.14399993 -0.112000465 -0.20799994 -0.19200039 -0.20799994 -0.2720003 c 0 -0.15999985 0.07999992 -0.23999977 0.22399998 -0.23999977 c 0.047999978 0 0.12800002 0.047999382 0.25600004 0.14400005 l 0.768 0.55999947 l 3.1040003 -6.832 c 0.07999992 -0.1760006 0.19199991 -0.2720003 0.35199976 -0.2720003 c 0.19199991 0 0.32000017 0.07999992 0.4000001 0.22399998 Z "/>
        </symbol>
        <symbol id="g9BB6D13EB437EA4852DF264BAA318B85" overflow="visible">
            <path d="M 0 0m 6.9760003 5.984 c 0 0.67199993 -0.65600014 1.0880003 -1.3600001 1.0880003 c -0.7839999 0 -1.44 -0.36800003 -1.984 -1.1200004 c -0.16000009 0.6240001 -0.704 1.1200004 -1.4560001 1.1200004 c -0.656 0 -1.136 -0.5120001 -1.4720001 -1.552 c -0.16000003 -0.52800035 -0.24000004 -0.83200026 -0.24000004 -0.92800045 c 0 -0.14399958 0.08000001 -0.22399998 0.256 -0.22399998 c 0.07999998 0 0.12800002 0.01600027 0.176 0.048000336 c 0.08000004 0.14400005 0.12800002 0.25600004 0.14400005 0.36800003 c 0.288 1.2160001 0.656 1.8239999 1.0879999 1.8239999 c 0.27200007 0 0.41600013 -0.22399998 0.41600013 -0.67199993 c 0 -0.20800018 -0.07999992 -0.63999987 -0.24000001 -1.296 l -0.91200006 -3.6320004 c -0.047999978 -0.208 -0.14400005 -0.624 -0.14400005 -0.704 c 0 -0.32000002 0.176 -0.48000002 0.5120001 -0.48000002 c 0.32000005 0 0.528 0.16000001 0.64 0.48000002 l 0.30400014 1.1520001 c 0.17599988 0.68799996 0.28799987 1.1359999 0.33599997 1.3440001 l 0.49600005 2.0479999 c 0.031999826 0.12800026 0.15999985 0.33599997 0.36800003 0.64000034 c 0.43200016 0.6079998 0.928 1.1199999 1.7119999 1.1199999 c 0.19199991 0 0.35200024 -0.032000065 0.4960003 -0.11199999 c -0.48000002 -0.14400005 -0.72000027 -0.44799995 -0.72000027 -0.8800001 c 0 -0.4159999 0.22399998 -0.6240001 0.65600014 -0.6240001 c 0.5279999 0 0.928 0.46400023 0.928 0.9920001 Z "/>
        </symbol>
        <symbol id="g387ED7F1CF043DE547E2F9416A6F43BC" overflow="visible">
            <path d="M 0 0m 2.2240002 1.6960001 c -0.5120001 0 -0.84800017 -0.38400006 -0.84800017 -0.8960001 c 0 -0.48 0.36800003 -0.88 0.84800017 -0.88 c 0.22399998 0 0.4159999 0.064 0.55999994 0.208 l 0.016000032 -0.128 c 0 -1.008 -0.33599997 -1.8720001 -1.0080001 -2.5600002 c -0.11199999 -0.12800002 -0.176 -0.22399998 -0.176 -0.28799987 c 0 -0.16000009 0.06400001 -0.24000001 0.20800006 -0.24000001 c 0.14399993 0 0.33599997 0.19199991 0.60800004 0.55999994 c 0.5439999 0.768 0.816 1.616 0.816 2.528 c 0 0.84800005 -0.2880001 1.6960001 -1.0239999 1.6960001 Z "/>
        </symbol>
        <symbol id="g808772734043F97D61E163CEAAB27189" overflow="visible">
            <path d="M 0 0m 2.608 7.0720005 c -0.7199999 0 -1.28 -0.4000001 -1.6800001 -1.2000003 c -0.30400002 -0.6240001 -0.46400002 -1.0559998 -0.46400002 -1.296 c 0 -0.14400005 0.08000001 -0.22399998 0.256 -0.22399998 c 0.22400004 0 0.24000001 0.096000195 0.30400002 0.33599997 c 0.36800003 1.2639999 0.88 1.9040003 1.5360001 1.9040003 c 0.20799994 0 0.31999993 -0.14400005 0.31999993 -0.43200016 c 0 -0.25600004 -0.07999992 -0.6240001 -0.25600004 -1.0880003 c -0.60800004 -1.6479998 -0.91199994 -2.7519999 -0.91199994 -3.3439999 c 0 -1.2160001 0.7520001 -1.9360001 1.984 -1.9360001 c 0.5279999 0 1.0240002 0.192 1.4720001 0.57600003 c -0.55999994 -2.112 -1.44 -3.1680002 -2.64 -3.1680002 c -0.544 0 -0.91200006 0.17600012 -1.1040001 0.5280001 c 0.6400001 0.032000065 0.96000004 0.33599997 0.96000004 0.91200006 c 0 0.39999998 -0.20799994 0.608 -0.64 0.608 c -0.592 0 -0.94400007 -0.496 -0.94400007 -1.088 c 0 -0.88 0.8 -1.4400002 1.7280002 -1.4400002 c 1.8399999 0 3.344 1.6960001 3.7440002 3.2640002 l 1.5040002 6.048 c 0.04799986 0.17600012 0.06399965 0.30400038 0.06399965 0.3840003 c 0 0.32000017 -0.17599964 0.48000002 -0.5119996 0.48000002 c -0.25600004 0 -0.46400023 -0.12800026 -0.6080003 -0.36800003 c -0.09599972 -0.33599997 -0.17600012 -0.6240001 -0.22399998 -0.8640003 l -1.0240002 -4.112 c -0.15999985 -0.576 -1.0079999 -1.296 -1.7279999 -1.296 c -0.60800004 0 -0.9120002 0.4 -0.9120002 1.2160001 c 0 0.67199993 0.27200007 1.6960001 0.8000002 3.072 c 0.20799994 0.55999994 0.31999993 0.94400024 0.31999993 1.1680002 c 0 0.7839999 -0.55999994 1.3600001 -1.3440001 1.3600001 Z "/>
        </symbol>
        <symbol id="g5F953B2C3915CEDCD3A184411AE8B3F2" overflow="visible">
            <path d="M 0 0m 3.072 4 c 0 0.46400023 -0.38399982 0.84800005 -0.8479998 0.84800005 c -0.4640001 0 -0.84800017 -0.38399982 -0.84800017 -0.84800005 c 0 -0.46399975 0.38400006 -0.8479998 0.84800017 -0.8479998 c 0.464 0 0.8479998 0.38400006 0.8479998 0.8479998 Z "/>
        </symbol>
    </defs>
</svg>
