<svg class="typst-doc" viewBox="0 0 13.23 17.962" width="15.9" height="21.6" xmlns="http://www.w3.org/2000/svg" xmlns:xlink="http://www.w3.org/1999/xlink" xmlns:h5="http://www.w3.org/1999/xhtml">
    <g>
        <g class="typst-text" transform="matrix(1 0 0 -1 4.2 13.761999999999999)">
            <use xlink:href="#g2F0055D3827D331B4ECFD5622F807CCB" x="0" y="0" fill="#000000" fill-rule="nonzero"/>
        </g>
    </g>
    <defs id="glyph">
        <symbol id="g2F0055D3827D331B4ECFD5622F807CCB" overflow="visible">
            <path d="M 0 0m 3.976 8.694 c 0 0.37800026 -0.18199992 0.5600004 -0.55999994 0.5600004 c -0.39199996 0 -0.78400016 -0.3920002 -0.78400016 -0.7840004 c 0 -0.37800026 0.1960001 -0.55999994 0.5740001 -0.55999994 c 0.39199996 0 0.77 0.39199972 0.77 0.7839999 Z m -0.3499999 -6.762 c -0.3080001 -1.106 -0.75600004 -1.666 -1.3300002 -1.666 c -0.18199992 0 -0.27999997 0.12600002 -0.27999997 0.392 c 0 0.23800004 0.40600014 1.4420002 1.2320001 3.626 c 0.11199999 0.32200003 0.16799998 0.57400036 0.16799998 0.75600004 c 0 0.68600035 -0.47600007 1.19 -1.162 1.19 c -0.6020001 0 -1.0780002 -0.3499999 -1.4280002 -1.0639997 c -0.28000003 -0.57400036 -0.42000002 -0.95200014 -0.42000002 -1.1340003 c 0 -0.12599993 0.06999999 -0.18199992 0.22399998 -0.18199992 c 0.18200004 0 0.21000004 0.08399987 0.26600003 0.27999997 c 0.32200003 1.1199999 0.75600004 1.6799998 1.3160001 1.6799998 c 0.18199992 0 0.27999997 -0.12599993 0.27999997 -0.39199972 c 0 -0.1960001 -0.042000055 -0.42000008 -0.1400001 -0.6859999 c -0.32200003 -0.8820002 -0.658 -1.8200002 -0.93799996 -2.5620003 c -0.21000004 -0.56000006 -0.32200003 -0.9380001 -0.32200003 -1.1340001 c 0 -0.686 0.50400007 -1.19 1.1760001 -1.19 c 0.602 0 1.0780001 0.35000002 1.428 1.0500001 c 0.26600003 0.546 0.40600014 0.924 0.40600014 1.134 c 0 0.12600017 -0.07000017 0.1960001 -0.22400022 0.1960001 c -0.041999817 0 -0.25199986 -0.12599993 -0.25199986 -0.29400003 Z "/>
        </symbol>
    </defs>
</svg>
