<svg class="typst-doc" viewBox="0 0 193.87377777777786 25.536" width="232.6" height="30.6" xmlns="http://www.w3.org/2000/svg" xmlns:xlink="http://www.w3.org/1999/xlink" xmlns:h5="http://www.w3.org/1999/xhtml">
    <g>
        <g class="typst-group">
            <g>
                <g class="typst-text" transform="matrix(1 0 0 -1 4.8 16.768)">
                    <use xlink:href="#gA2FBC3443D771EDF60252FE0008B4EF2" x="0" y="0" fill="#000000" fill-rule="nonzero"/>
                    <use xlink:href="#gB943829011F417281E5E437A9DA05F67" x="4.448" y="0" fill="#000000" fill-rule="nonzero"/>
                    <use xlink:href="#gB943829011F417281E5E437A9DA05F67" x="12.448" y="0" fill="#000000" fill-rule="nonzero"/>
                    <use xlink:href="#g4FF3BD96F437CCBB37D191761487CE10" x="20.448" y="0" fill="#000000" fill-rule="nonzero"/>
                    <use xlink:href="#g8DADD165207394D7DEA5802DE9BD829D" x="28.896" y="0" fill="#000000" fill-rule="nonzero"/>
                    <use xlink:href="#g9D1B70376732B58D4012779C53C0F0E6" x="37.792" y="0" fill="#000000" fill-rule="nonzero"/>
                </g>
                <g class="typst-text" transform="matrix(1 0 0 -1 51.488000000000014 16.768)">
                    <use xlink:href="#g510A2F4626C8E1179A673AFEE9E4E2CF" x="0" y="0" fill="#000000" fill-rule="nonzero"/>
                </g>
                <g class="typst-text" transform="matrix(1 0 0 -1 57.71200000000002 16.768)">
                    <use xlink:href="#g561D952198E06AD821F22C0C8423513" x="0" y="0" fill="#000000" fill-rule="nonzero"/>
                </g>
                <g class="typst-text" transform="matrix(1 0 0 -1 65.168 16.768)">
                    <use xlink:href="#g27C4ADFA50FFEB42B80D7FFBC084C81B" x="0" y="0" fill="#000000" fill-rule="nonzero"/>
                </g>
                <g class="typst-text" transform="matrix(1 0 0 -1 75.83644444444447 16.768)">
                    <use xlink:href="#gEBC7A44254DF8960ACE54D79D0347C26" x="0" y="0" fill="#000000" fill-rule="nonzero"/>
                </g>
                <g class="typst-text" transform="matrix(1 0 0 -1 92.72888888888892 16.768)">
                    <use xlink:href="#g561D952198E06AD821F22C0C8423513" x="0" y="0" fill="#000000" fill-rule="nonzero"/>
                </g>
                <g class="typst-text" transform="matrix(1 0 0 -1 104.62933333333338 16.768)">
                    <use xlink:href="#g6FBD66DE1940355307EC49EBAF99ACC6" x="0" y="0" fill="#000000" fill-rule="nonzero"/>
                </g>
                <g class="typst-text" transform="matrix(1 0 0 -1 119.74577777777783 16.768)">
                    <use xlink:href="#g952375DBABC23535DAEE868455FB859" x="0" y="0" fill="#000000" fill-rule="nonzero"/>
                </g>
                <g class="typst-text" transform="matrix(1 0 0 -1 135.30133333333336 16.768)">
                    <use xlink:href="#g5C413F16D1E1C543CF961D0752C723C3" x="0" y="0" fill="#000000" fill-rule="nonzero"/>
                </g>
                <g class="typst-text" transform="matrix(1 0 0 -1 149.52888888888893 16.768)">
                    <use xlink:href="#g561D952198E06AD821F22C0C8423513" x="0" y="0" fill="#000000" fill-rule="nonzero"/>
                </g>
                <g class="typst-text" transform="matrix(1 0 0 -1 161.42933333333337 16.768)">
                    <use xlink:href="#gB0A6605EA6A48A1DE88703FE79BD821" x="0" y="0" fill="#000000" fill-rule="nonzero"/>
                </g>
                <g class="typst-text" transform="matrix(1 0 0 -1 176.54577777777783 16.768)">
                    <use xlink:href="#g4CC432FBA2E1A28F1DF68BA02EB030EA" x="0" y="0" fill="#000000" fill-rule="nonzero"/>
                </g>
            </g>
        </g>
    </g>
    <defs id="glyph">
        <symbol id="gA2FBC3443D771EDF60252FE0008B4EF2" overflow="visible">
            <path d="M 0 0m 2.3040001 0.048 l 1.7760003 -0.048 v 0.624 c -0.5760002 0 -0.9280002 0.016000032 -1.0400002 0.08000004 c -0.11199999 0.06399995 -0.16000009 0.25599998 -0.16000009 0.56 v 9.84 l -2.3520002 -0.17599964 v -0.6079998 c 0.56000006 0 0.91200006 -0.048000336 1.024 -0.14400005 c 0.11199999 -0.09599972 0.176 -0.3199997 0.176 -0.6879997 v -8.224001 c 0 -0.30400002 -0.047999978 -0.49600005 -0.15999997 -0.56 c -0.11199999 -0.06400001 -0.464 -0.08000004 -1.0400001 -0.08000004 v -0.624 Z "/>
        </symbol>
        <symbol id="gB943829011F417281E5E437A9DA05F67" overflow="visible">
            <path d="M 0 0m 3.9840002 -0.17600001 c 0.9920001 0 1.8239999 0.35200003 2.512 1.0560001 c 0.6880002 0.70400006 1.04 1.552 1.04 2.5440001 c 0 1.0079999 -0.33599997 1.888 -1.0079999 2.624 c -0.67199993 0.73600006 -1.52 1.1199999 -2.5280004 1.1199999 c -1.0079999 0 -1.8399999 -0.38399982 -2.5279999 -1.1199999 c -0.6880001 -0.73600006 -1.0240002 -1.6160002 -1.0240002 -2.624 c 0 -0.9920001 0.33600003 -1.8400002 1.0240002 -2.5440001 c 0.68799996 -0.70400006 1.536 -1.0560001 2.512 -1.0560001 Z m 0.015999794 0.512 c -0.7679999 0 -1.3439999 0.33600003 -1.744 1.0239999 c -0.25600004 0.44800007 -0.38399994 1.1840001 -0.38399994 2.1920004 c 0 0.9760001 0.1279999 1.6800001 0.3679999 2.128 c 0.38400006 0.6880002 0.96000004 1.0240002 1.7440002 1.0240002 c 0.75199986 0 1.3280001 -0.33599997 1.7280002 -0.9920001 c 0.27199984 -0.44799995 0.4000001 -1.1680002 0.4000001 -2.16 c 0 -1.8560002 -0.54400015 -3.2160003 -2.1120005 -3.2160003 Z "/>
        </symbol>
        <symbol id="g4FF3BD96F437CCBB37D191761487CE10" overflow="visible">
            <path d="M 0 0m 6.7520003 0.048 c 0.32000017 0.016000003 0.8000002 0 1.4240003 -0.048 v 0.624 c -0.3840003 0 -0.6720004 0.048000038 -0.8640003 0.12800002 c -0.19199991 0.07999998 -0.4159999 0.30399996 -0.67199993 0.672 l -2 2.832 c -0.048000336 0.14400005 -0.07999992 0.19200039 -0.07999992 0.14400005 c 0 0.01600027 0.15999985 0.16000032 0.4959998 0.44799995 c 0.55999994 0.4960003 0.97599983 0.816 1.2480001 0.9920001 c 0.4959998 0.3039999 0.9920001 0.46400023 1.5040002 0.4960003 v 0.6079998 c -0.33600044 -0.032000065 -0.72000027 -0.04799986 -1.1520004 -0.04799986 c -0.73600006 0 -1.3439999 0.015999794 -1.8399997 0.04799986 v -0.6079998 c 0.3039999 -0.01600027 0.46399975 -0.12800026 0.46399975 -0.33599997 c 0 -0.19200039 -0.11199999 -0.3840003 -0.32000017 -0.5760002 l -2.112 -1.8400002 v 7.52 l -2.4 -0.17599964 v -0.6079998 c 0.57600003 0 0.92800003 -0.048000336 1.056 -0.14400005 c 0.12800002 -0.09599972 0.176 -0.3199997 0.176 -0.6879997 v -8.224001 c 0 -0.30400002 -0.06400001 -0.49600005 -0.176 -0.56 c -0.11199999 -0.06400001 -0.464 -0.08000004 -1.056 -0.08000004 v -0.624 l 1.7760003 0.048 l 1.792 -0.048 v 0.624 c -0.592 0 -0.9280002 0.016000032 -1.0400002 0.08000004 c -0.11199999 0.06399995 -0.17599988 0.25599998 -0.17599988 0.56 v 1.6 l 0.928 0.816 l 0.25600004 -0.38399982 c 1.04 -1.4400002 1.5679998 -2.2400002 1.5679998 -2.3840003 c 0 -0.19200003 -0.19199991 -0.28800005 -0.57599974 -0.28800005 v -0.624 Z "/>
        </symbol>
        <symbol id="g8DADD165207394D7DEA5802DE9BD829D" overflow="visible">
            <path d="M 0 0m 4.2720003 0.28800002 c -1.1040001 0 -1.3120003 0.46400002 -1.3120003 1.5040001 v 5.2800007 l -2.448 -0.17600012 v -0.6080003 c 0.624 0 0.99200004 -0.06399965 1.088 -0.17599964 c 0.096000075 -0.11199999 0.14400005 -0.5120001 0.14400005 -1.2160001 v -2.3520002 c 0 -0.6240001 0.047999978 -1.1040001 0.15999997 -1.4720001 c 0.24000001 -0.832 1.1200001 -1.248 2.2880003 -1.248 c 0.86399984 0 1.52 0.40000004 1.9679999 1.2160001 v -1.2160001 l 2.4 0.17600001 v 0.60800004 c -0.5760002 0 -0.9120002 0.032000005 -1.04 0.12800002 c -0.12800026 0.095999956 -0.19199991 0.31999993 -0.19199991 0.68799996 v 5.6480007 l -2.4320002 -0.17600012 v -0.6080003 c 0.55999994 0 0.8959999 -0.04799986 1.0239997 -0.14400005 c 0.12800026 -0.09599972 0.19200039 -0.3039999 0.19200039 -0.67199993 v -2.8 c 0 -1.264 -0.6720004 -2.384 -1.8400002 -2.384 Z "/>
        </symbol>
        <symbol id="g9D1B70376732B58D4012779C53C0F0E6" overflow="visible">
            <path d="M 0 0m 4.768 -0.208 c 0.9920001 0 1.8400002 0.352 2.5280004 1.072 c 0.6879997 0.7200001 1.04 1.5680001 1.04 2.576 c 0 0.9760003 -0.3199997 1.8080001 -0.94400024 2.512 c -0.65599966 0.75200033 -1.4559999 1.1200004 -2.416 1.1200004 c -0.816 0 -1.5200002 -0.32000017 -2.1280003 -0.94400024 v 0.94400024 l -2.4 -0.17600012 v -0.6080003 c 0.59200007 0 0.94400007 -0.031999588 1.056 -0.11199999 c 0.11199999 -0.07999992 0.176 -0.28799963 0.176 -0.6240001 v -7.392 c 0 -0.30400002 -0.06400001 -0.49600017 -0.176 -0.56000006 c -0.11199999 -0.06400013 -0.464 -0.07999992 -1.056 -0.07999992 v -0.6240001 l 1.8240001 0.04799986 l 1.8399999 -0.04799986 v 0.6240001 c -0.59199977 0 -0.92799973 0.015999794 -1.04 0.07999992 c -0.11199999 0.06399989 -0.17599988 0.25600004 -0.17599988 0.56000006 v 2.5440001 c 0.352 -0.49600005 1.04 -0.91200006 1.872 -0.91200006 Z m 0.096000195 6.7520003 c 0.65600014 0 1.1679997 -0.36800003 1.5679998 -1.1040001 c 0.30400038 -0.6239996 0.46400023 -1.2799997 0.46400023 -2 c 0 -0.75199986 -0.17600012 -1.44 -0.5279999 -2.0640001 c -0.41600037 -0.75200003 -0.9760003 -1.12 -1.6640005 -1.12 c -0.67199993 0 -1.1999998 0.32000002 -1.5999999 0.944 c -0.14400005 0.20800006 -0.20799994 0.416 -0.20799994 0.6240001 v 3.504 c 0.464 0.816 1.1200001 1.2160001 1.9680002 1.2160001 Z "/>
        </symbol>
        <symbol id="g510A2F4626C8E1179A673AFEE9E4E2CF" overflow="visible">
            <path d="M 0 0m 5.0880003 -3.9680002 c 0.14400005 0 0.22399998 0.07999992 0.22399998 0.22399998 c 0 0.048000097 -0.032000065 0.11199999 -0.07999992 0.17600012 c -0.83200026 0.63999987 -1.5040002 1.696 -2.0000002 3.152 c -0.43199992 1.264 -0.6559999 2.512 -0.6559999 3.744 v 1.3440003 c 0 1.2319999 0.22399998 2.48 0.6559999 3.744 c 0.49600005 1.4560003 1.168 2.512 2.0000002 3.1520004 c 0.04799986 0.047999382 0.07999992 0.11199951 0.07999992 0.17599964 c 0 0.14400005 -0.07999992 0.22399998 -0.22399998 0.22399998 c -0.01600027 0 -0.06400013 -0.015999794 -0.11199999 -0.047999382 c -0.96000004 -0.73600006 -1.7600002 -1.8240004 -2.4160001 -3.2800007 c -0.6240001 -1.3920002 -0.9440001 -2.704 -0.9440001 -3.968 v -1.3440003 c 0 -1.2639999 0.32000005 -2.576 0.9440001 -3.9680002 c 0.6559999 -1.4560001 1.4560001 -2.5440001 2.4160001 -3.28 c 0.04799986 -0.032000065 0.09599972 -0.048000097 0.11199999 -0.048000097 Z "/>
        </symbol>
        <symbol id="g561D952198E06AD821F22C0C8423513" overflow="visible">
            <path d="M 0 0m 1.9840001 2.0640001 c 0 0.38400006 0.08000004 0.91199994 0.24000013 1.5680001 h 0.7839999 c 1.0400002 0 1.8399999 0.12800002 2.4160001 0.3679998 c 0.5279999 0.22399998 0.8800001 0.54400015 1.0560002 0.94400024 c 0.11199999 0.27199984 0.15999985 0.5279999 0.15999985 0.73600006 c 0 0.8800001 -0.83200026 1.3920002 -1.7280002 1.3920002 c -0.6240001 0 -1.2479999 -0.16000032 -1.872 -0.48000002 c -1.2320001 -0.64000034 -2.3040001 -2.0960002 -2.3040001 -3.8560004 c 0 -1.632 0.944 -2.9120002 2.528 -2.9120002 c 0.8479998 0 1.6000001 0.20800002 2.2560003 0.60800004 c 0.5439997 0.336 0.94399977 0.67200005 1.1999998 1.008 c 0.11199999 0.14400005 0.15999985 0.25600004 0.15999985 0.30400002 c 0 0.176 -0.07999992 0.27199996 -0.25599957 0.27199996 c -0.0800004 0 -0.16000032 -0.06399989 -0.25600004 -0.19199991 c -0.52800035 -0.7040001 -1.1840005 -1.1520001 -1.9360003 -1.3440001 c -0.49600005 -0.12799999 -0.8640001 -0.192 -1.1359999 -0.192 c -0.9120002 0 -1.3120002 0.8640001 -1.3120002 1.7760001 Z m 4.0160003 3.6160002 c 0 -1.0560002 -1.0240002 -1.5840001 -3.0880003 -1.5840001 h -0.5600002 c 0.30400014 1.0560002 0.7520001 1.7600002 1.3600001 2.0960002 c 0.48000026 0.27199984 0.8799999 0.4159999 1.2 0.4159999 c 0.5760002 0 1.0880003 -0.35199976 1.0880003 -0.928 Z "/>
        </symbol>
        <symbol id="g27C4ADFA50FFEB42B80D7FFBC084C81B" overflow="visible">
            <path d="M 0 0m 1.248 -3.92 c 0.96000016 0.7359998 1.7600001 1.8239999 2.4160004 3.28 c 0.62399983 1.3920001 0.944 2.7040002 0.944 3.9680002 v 1.3440003 c 0 1.2639999 -0.32000017 2.5759997 -0.944 3.968 c -0.65600014 1.4560003 -1.4560001 2.5440006 -2.4160004 3.2800007 c -0.047999978 0.031999588 -0.095999956 0.047999382 -0.11199999 0.047999382 c -0.144 0 -0.22399998 -0.07999992 -0.22399998 -0.22399998 c 0 -0.06400013 0.032000005 -0.12800026 0.07999998 -0.17599964 c 0.8320001 -0.64000034 1.504 -1.6960001 2 -3.1520004 c 0.43200016 -1.2639999 0.65600014 -2.512 0.65600014 -3.744 v -1.3440003 c 0 -1.2319999 -0.22399998 -2.48 -0.65600014 -3.744 c -0.49600005 -1.4560001 -1.168 -2.512 -2 -3.152 c -0.047999978 -0.06400013 -0.07999998 -0.12800002 -0.07999998 -0.17600012 c 0 -0.14400005 0.07999998 -0.22399998 0.22399998 -0.22399998 c 0.016000032 0 0.06400001 0.016000032 0.11199999 0.048000097 Z "/>
        </symbol>
        <symbol id="gEBC7A44254DF8960ACE54D79D0347C26" overflow="visible">
            <path d="M 0 0m 11.168 5.872 h -9.8880005 c -0.25600004 0 -0.38400006 -0.12799978 -0.38400006 -0.36800003 c 0 -0.23999977 0.12800002 -0.36800003 0.38400006 -0.36800003 h 9.8880005 c 0.25600052 0 0.38400078 0.12800026 0.38400078 0.36800003 c 0 0.19199991 -0.1760006 0.36800003 -0.38400078 0.36800003 Z m 0 -3.0080001 h -9.8880005 c -0.25600004 0 -0.38400006 -0.12800002 -0.38400006 -0.36800003 c 0 -0.24000001 0.12800002 -0.36800003 0.38400006 -0.36800003 h 9.8880005 c 0.25600052 0 0.38400078 0.12800002 0.38400078 0.36800003 c 0 0.20800018 -0.1760006 0.36800003 -0.38400078 0.36800003 Z "/>
        </symbol>
        <symbol id="g6FBD66DE1940355307EC49EBAF99ACC6" overflow="visible">
            <path d="M 0 0m 9.008 0.064 h -3.04 c -1.0080004 0 -1.9040003 0.336 -2.6400003 1.024 c -0.73600006 0.6880001 -1.152 1.52 -1.2479999 2.528 h 6.9280005 c 0.25600052 0 0.38399982 0.12800002 0.38399982 0.38399982 c 0 0.25600004 -0.1279993 0.3840003 -0.38399982 0.3840003 h -6.9280005 c 0.095999956 1.0079999 0.51199985 1.8400002 1.2479999 2.5279999 c 0.73600006 0.6880002 1.632 1.0240002 2.6400003 1.0240002 h 3.04 c 0.25600052 0 0.38399982 0.12799978 0.38399982 0.3680005 c 0 0.25599957 -0.1279993 0.38399982 -0.38399982 0.38399982 h -3.04 c -1.296 0 -2.4000003 -0.44799995 -3.3120003 -1.3600001 c -0.91200006 -0.9120002 -1.3600001 -2.0160003 -1.3600001 -3.3280005 c 0 -1.3119998 0.44800007 -2.416 1.3600001 -3.328 c 0.91199994 -0.91200006 2.0160003 -1.3600001 3.3120003 -1.3600001 h 3.04 c 0.25600052 0 0.38399982 0.12800002 0.38399982 0.384 c 0 0.19200002 -0.17599964 0.36800003 -0.38399982 0.36800003 Z "/>
        </symbol>
        <symbol id="g952375DBABC23535DAEE868455FB859" overflow="visible">
            <path d="M 0 0m 2.1920002 0.048 c 0.28799987 0 1.28 -0.048 1.5840001 -0.048 c 0.24000001 0 0.352 0.128 0.352 0.36800003 c 0 0.144 -0.096000195 0.24000001 -0.30400014 0.25599998 c -0.464 0.016000032 -0.68799996 0.176 -0.68799996 0.48000008 c 0 0.14399993 0.14400005 0.464 0.44799995 0.944 c 0.43200016 0.72 0.73600006 1.2480001 0.94400024 1.6000001 h 3.888 c 0 -0.11199999 0.015999794 -0.33599997 0.06400013 -0.6880002 c 0.11199951 -1.168 0.17599964 -1.808 0.17599964 -1.888 c 0 -0.30400002 -0.35199928 -0.448 -1.0719995 -0.448 c -0.30400038 0 -0.44800043 -0.12799999 -0.44800043 -0.384 c 0 -0.16 0.096000195 -0.24000001 0.2880001 -0.24000001 c 0.3840003 0 1.5999999 0.048 1.9839997 0.048 c 0.32000065 0 1.4560003 -0.048 1.776001 -0.048 c 0.23999977 0 0.35199928 0.128 0.35199928 0.384 c 0 0.16000003 -0.14400005 0.24000001 -0.43200016 0.24000001 c -0.44799995 0 -0.7199993 0.032000005 -0.79999924 0.08000004 c -0.07999992 0.047999978 -0.14400005 0.19199997 -0.1600008 0.43199998 l -0.96000004 9.8880005 c -0.047999382 0.3039999 -0.031999588 0.43200016 -0.36800003 0.43200016 c -0.19199944 0 -0.35199928 -0.09599972 -0.46399975 -0.3039999 l -5.504 -9.232 c -0.48000002 -0.8000001 -1.12 -1.2320001 -1.904 -1.296 c -0.25600004 -0.015999973 -0.38400006 -0.144 -0.38400006 -0.384 c 0 -0.16 0.096000016 -0.24000001 0.272 -0.24000001 c 0.25600004 0 1.1040001 0.048 1.3600001 0.048 Z m 5.6800003 9.184 l 0.48000002 -4.96 h -3.44 Z "/>
        </symbol>
        <symbol id="g5C413F16D1E1C543CF961D0752C723C3" overflow="visible">
            <path d="M 0 0m 9.184 -0.32000002 c 0.25600052 0 0.4960003 0.24000001 0.36800003 0.528 l -3.8399997 9.168 c -0.06400013 0.17599964 -0.19199991 0.25600052 -0.36800003 0.25600052 c -0.17600012 0 -0.3039999 -0.08000088 -0.36800003 -0.25600052 l -3.8400002 -9.168 c -0.016000032 -0.047999993 -0.031999946 -0.112 -0.031999946 -0.176 c 0 -0.24000001 0.12800002 -0.35200003 0.38399994 -0.35200003 c 0.16000009 0 0.27200007 0.08000001 0.33600008 0.22400002 l 3.5200002 8.400001 l 3.5040002 -8.400001 c 0.06400013 -0.14400001 0.17599964 -0.22400002 0.3359995 -0.22400002 Z "/>
        </symbol>
        <symbol id="gB0A6605EA6A48A1DE88703FE79BD821" overflow="visible">
            <path d="M 0 0m 9.008 0.048 h -3.04 c -0.52800035 0 -1.04 0.11200001 -1.5360003 0.32000002 l 1.184 3.2480001 h 3.3920002 c 0.25600052 0 0.38399982 0.12800002 0.38399982 0.38399982 c 0 0.25600004 -0.1279993 0.3840003 -0.38399982 0.3840003 h -3.12 l 1.2799997 3.5679998 h 1.8400002 c 0.25600052 0 0.38399982 0.12799978 0.38399982 0.3840003 c 0 0.25599957 -0.1279993 0.38399982 -0.38399982 0.38399982 h -1.552 l 0.8800001 2.448 c 0.015999794 0.048000336 0.031999588 0.07999992 0.031999588 0.12800026 c 0 0.25600052 -0.1279993 0.38399982 -0.38399982 0.38399982 c -0.19199991 0 -0.3039999 -0.07999992 -0.35199976 -0.25599957 l -0.9920001 -2.7040005 h -0.67199993 c -1.3120003 0 -2.4160001 -0.46399975 -3.3120003 -1.3759999 c -0.896 -0.9120002 -1.3600001 -2.032 -1.3600001 -3.3440003 c 0 -1.8399999 0.9920001 -3.248 2.2080002 -4 l -1.1520002 -3.1680002 c -0.015999794 -0.031999826 -0.015999794 -0.07999992 -0.015999794 -0.12800002 c 0 -0.25600004 0.12800002 -0.38399982 0.38399982 -0.38399982 c 0.17600012 0 0.2880001 0.07999992 0.3360002 0.2559998 l 1.1199999 3.0720003 c 0.592 -0.23999998 1.184 -0.368 1.7920003 -0.368 h 3.04 c 0.25600052 0 0.38399982 0.12800002 0.38399982 0.384 c 0 0.20800002 -0.17599964 0.38400003 -0.38399982 0.38400003 Z m -3.04 7.9040003 h 0.4000001 l -1.2960005 -3.5679998 h -2.9919999 c 0.095999956 1.0079999 0.51199985 1.856 1.2479999 2.5440001 c 0.73600006 0.6879997 1.632 1.0239997 2.6400003 1.0239997 Z m -3.8880002 -4.336 h 2.72 l -1.0239999 -2.88 c -1.0400002 0.704 -1.6000001 1.664 -1.6960001 2.88 Z "/>
        </symbol>
        <symbol id="g4CC432FBA2E1A28F1DF68BA02EB030EA" overflow="visible">
            <path d="M 0 0m 11.824 8.496 c 0 0.816 -0.4159994 1.4400005 -1.2319994 1.8880005 c -0.65600014 0.36800003 -1.4400005 0.5439997 -2.3200006 0.5439997 h -4.512 c -0.36800003 0 -0.5280001 -0.015999794 -0.5280001 -0.38399982 c 0 -0.112000465 0.048000097 -0.19200039 0.14400005 -0.20800018 c 0.16000009 -0.015999794 0.2880001 -0.031999588 0.36800003 -0.031999588 c 0.47999978 -0.016000748 0.7520001 -0.048000336 0.832 -0.06400013 c 0.07999992 -0.015999794 0.12799978 -0.06400013 0.12799978 -0.14400005 c 0 -0.03200054 -0.015999794 -0.12800026 -0.06399965 -0.2880001 l -2.1120002 -8.496 c -0.07999992 -0.352 -0.24000001 -0.576 -0.48000002 -0.656 c -0.11199999 -0.032000005 -0.39999998 -0.047999978 -0.896 -0.047999978 c -0.35200006 0 -0.49600005 -0.016000032 -0.49600005 -0.36800003 c 0 -0.176 0.096000016 -0.256 0.28800005 -0.24000001 l 1.9840002 0.048 l 2.016 -0.048 c 0.25600004 -0.016 0.38399982 0.128 0.38399982 0.36800003 c 0 0.15999997 -0.17599964 0.24000001 -0.5119996 0.24000001 c -0.64000034 0 -0.9600003 0.07999998 -0.9600003 0.22399998 c 0 0 0.016000032 0.032000005 0.048000097 0.25600004 l 1.0240002 4.144 h 1.8399997 c 1.1040001 0 1.664 -0.46400023 1.664 -1.3760002 c 0 -0.14400005 -0.07999992 -0.49600005 -0.22399998 -1.072 c -0.17599964 -0.67200017 -0.25600004 -1.1200001 -0.25600004 -1.3600001 c 0 -1.2160001 0.9440007 -1.776 2.1600003 -1.776 c 0.44799995 0 0.8800001 0.20800002 1.3120003 0.60800004 c 0.43200016 0.4 0.65600014 0.832 0.65600014 1.28 c 0 0.16000009 -0.07999992 0.24000013 -0.25600052 0.24000013 c -0.11199951 0 -0.20800018 -0.08000004 -0.25599957 -0.25600004 c -0.1760006 -0.49600005 -0.40000057 -0.8640001 -0.65600014 -1.072 c -0.25600052 -0.208 -0.4960003 -0.32 -0.73600006 -0.32 c -0.36800003 0 -0.5600004 0.30400002 -0.5600004 0.896 c 0 0.38400006 0.048000336 0.97599995 0.15999985 1.7920002 c 0.048000336 0.33599997 0.06400013 0.576 0.06400013 0.75199986 c 0 0.8480003 -0.44799995 1.4720004 -1.3439999 1.8560002 c 1.5039997 0.36800003 3.328 1.44 3.328 3.072 Z m -2.08 1.3600006 c 0.3199997 -0.20800018 0.4800005 -0.5600004 0.4800005 -1.0560007 c 0 -0.3199997 -0.06400013 -0.6879997 -0.20800018 -1.1199999 c -0.43200016 -1.3119998 -1.5200005 -1.9679999 -3.2640004 -1.9679999 h -1.6960001 l 1.0079999 4.048 c 0.07999992 0.33600044 0.20800018 0.5120001 0.3840003 0.5279999 c 0.07999992 0.016000748 0.4000001 0.016000748 0.96000004 0.016000748 c 1.0399995 0 1.6480002 -0.03200054 2.336 -0.44799995 Z "/>
        </symbol>
    </defs>
</svg>
