<svg class="typst-doc" viewBox="0 0 38.444 17.962" width="46.1" height="21.6" xmlns="http://www.w3.org/2000/svg" xmlns:xlink="http://www.w3.org/1999/xlink" xmlns:h5="http://www.w3.org/1999/xhtml">
    <g>
        <g class="typst-group">
            <g>
                <g class="typst-text" transform="matrix(1 0 0 -1 4.2 13.761999999999999)">
                    <use xlink:href="#gC8CB4ED7A4568321F6AEB04E0E55FBEF" x="0" y="0" fill="#000000" fill-rule="nonzero"/>
                </g>
                <g class="typst-text" transform="matrix(1 0 0 -1 14.952 13.761999999999999)">
                    <use xlink:href="#g67E75225963B96DF1938118DEE18B881" x="0" y="0" fill="#000000" fill-rule="nonzero"/>
                </g>
                <g class="typst-text" transform="matrix(1 0 0 -1 20.398000000000003 13.761999999999999)">
                    <use xlink:href="#g7C18B8792220ED935CC59A29C1F04D7F" x="0" y="0" fill="#000000" fill-rule="nonzero"/>
                </g>
                <g class="typst-text" transform="matrix(1 0 0 -1 28.798 13.761999999999999)">
                    <use xlink:href="#g464370D6C65904C1BEE2124B13B9E023" x="0" y="0" fill="#000000" fill-rule="nonzero"/>
                </g>
            </g>
        </g>
    </g>
    <defs id="glyph">
        <symbol id="gC8CB4ED7A4568321F6AEB04E0E55FBEF" overflow="visible">
            <path d="M 0 0m 9.828 3.6820002 c 0.35000038 0.79799986 0.53200054 1.5960002 0.53200054 2.408 c 0 1.092 -0.3220005 1.9879999 -0.9800005 2.7019997 c -0.658 0.7140007 -1.526 1.0780001 -2.604 1.0780001 c -0.7419996 0 -1.4839997 -0.1819992 -2.2259998 -0.5459995 c -1.5120001 -0.7419996 -2.618 -1.9180002 -3.3320003 -3.5140004 c -0.35000002 -0.7839999 -0.532 -1.5679998 -0.532 -2.366 c 0 -1.106 0.32199997 -2.0019999 0.97999996 -2.702 c 0.6580001 -0.70000005 1.5260001 -1.0500001 2.618 -1.0500001 c 0.72800016 0 1.4560003 0.182 2.1980004 0.532 c 1.526 0.742 2.632 1.904 3.3459997 3.4580002 Z m -0.8119993 2.954 c 0 -1.862 -0.84000015 -3.724 -1.7360005 -4.83 c -0.6160002 -0.7700001 -1.6799998 -1.6380001 -2.9120002 -1.6380001 c -1.4979999 0 -2.282 1.302 -2.282 2.884 c 0 0.49 0.09800005 1.1480002 0.2800002 1.9460001 c 0.37800002 1.652 1.3299999 3.1079998 2.5760002 3.8640003 c 0.60199976 0.36399937 1.1899996 0.5459995 1.75 0.5459995 c 1.5120001 0 2.3240004 -1.2039995 2.3240004 -2.7719998 Z "/>
        </symbol>
        <symbol id="g67E75225963B96DF1938118DEE18B881" overflow="visible">
            <path d="M 0 0m 4.452 -3.4720001 c 0.12599993 0 0.1960001 0.06999993 0.1960001 0.1960001 c 0 0.041999817 -0.027999878 0.09799981 -0.07000017 0.15400004 c -0.7279999 0.55999994 -1.316 1.484 -1.75 2.758 c -0.37800002 1.1060001 -0.5739999 2.1980002 -0.5739999 3.2760003 v 1.1760001 c 0 1.0780001 0.19599986 2.17 0.5739999 3.276 c 0.43400002 1.2740002 1.0220001 2.198 1.75 2.7580004 c 0.042000294 0.041999817 0.07000017 0.09799957 0.07000017 0.15399933 c 0 0.1260004 -0.07000017 0.1960001 -0.1960001 0.1960001 c -0.013999939 0 -0.056000233 -0.013999939 -0.09800005 -0.041999817 c -0.8399999 -0.64400005 -1.54 -1.5959997 -2.114 -2.87 c -0.546 -1.2180004 -0.826 -2.3660002 -0.826 -3.4720001 v -1.1760001 c 0 -1.1060001 0.27999997 -2.2540002 0.826 -3.4720001 c 0.5740001 -1.2740002 1.2740002 -2.226 2.114 -2.8700001 c 0.041999817 -0.028000116 0.08400011 -0.042000055 0.09800005 -0.042000055 Z "/>
        </symbol>
        <symbol id="g7C18B8792220ED935CC59A29C1F04D7F" overflow="visible">
            <path d="M 0 0m 7.518 1.9180001 c -0.32200003 -1.1060001 -0.7839999 -1.6660001 -1.3579998 -1.6660001 c -0.18200016 0 -0.2800002 0.14000002 -0.2800002 0.406 c 0 0.19600004 0.08400011 0.518 0.25199986 0.952 c 0.5600004 1.5260001 0.84000015 2.534 0.84000015 3.052 c 0 0.98 -0.658 1.526 -1.638 1.526 c -0.82599974 0 -1.54 -0.36399984 -2.114 -1.106 c -0.11199999 0.6159997 -0.602 1.106 -1.316 1.106 c -0.78400004 0 -1.092 -0.72800016 -1.2880001 -1.3580003 c -0.13999999 -0.44799995 -0.20999998 -0.71399975 -0.20999998 -0.8119998 c 0 -0.12599993 0.06999999 -0.1960001 0.22399998 -0.1960001 c 0.07000005 0 0.11200005 0.014000177 0.15400004 0.042000055 c 0.06999999 0.12599993 0.11199999 0.22400022 0.12599999 0.32200027 c 0.25200003 1.0639997 0.57400006 1.5959997 0.9520001 1.5959997 c 0.25199997 0 0.3779999 -0.1960001 0.3779999 -0.5879998 c 0 -0.18200016 -0.06999993 -0.55999994 -0.22399998 -1.1340003 l -0.798 -3.178 c -0.042000055 -0.18199998 -0.12600005 -0.546 -0.12600005 -0.61600006 c 0 -0.28 0.15400004 -0.42000002 0.462 -0.42000002 c 0.26600003 0 0.462 0.14 0.56000006 0.42000002 c 0.027999878 0.07000002 0.11199999 0.42000005 0.26600003 1.022 l 0.2939999 1.2460002 l 0.42000008 1.596 c 0.15400004 0.32200003 0.39199996 0.64400005 0.6860001 0.98 c 0.40600014 0.44799995 0.90999985 0.67199993 1.5120001 0.67199993 c 0.4619999 0 0.6859999 -0.3080001 0.6859999 -0.90999985 c 0 -0.53200006 -0.29400015 -1.5960002 -0.8959999 -3.1920002 c -0.09800005 -0.25199997 -0.13999987 -0.462 -0.13999987 -0.64400005 c 0 -0.686 0.51799965 -1.19 1.1899996 -1.19 c 0.6160002 0 1.1060004 0.35000002 1.4560003 1.0500001 c 0.2659998 0.56000006 0.40600014 0.9380001 0.40600014 1.12 c 0 0.12599993 -0.07000017 0.1960001 -0.22399998 0.1960001 c -0.042000294 0 -0.25200033 -0.12600017 -0.25200033 -0.29400003 Z "/>
        </symbol>
        <symbol id="g464370D6C65904C1BEE2124B13B9E023" overflow="visible">
            <path d="M 0 0m 1.092 -3.43 c 0.84000003 0.64400005 1.54 1.596 2.114 2.8700001 c 0.546 1.2179999 0.826 2.3660002 0.826 3.4720001 v 1.1760001 c 0 1.106 -0.27999997 2.2539997 -0.826 3.4720001 c -0.5740001 1.2740002 -1.274 2.2259998 -2.114 2.87 c -0.041999936 0.027999878 -0.08399999 0.041999817 -0.09799999 0.041999817 c -0.12599999 0 -0.19599998 -0.069999695 -0.19599998 -0.1960001 c 0 -0.055999756 0.027999997 -0.11199951 0.06999999 -0.15399933 c 0.72800004 -0.5600004 1.316 -1.4840002 1.75 -2.7580004 c 0.37800002 -1.106 0.5740001 -2.198 0.5740001 -3.276 v -1.1760001 c 0 -1.0780001 -0.1960001 -2.17 -0.5740001 -3.2760003 c -0.43400002 -1.2739999 -1.022 -2.198 -1.75 -2.758 c -0.041999996 -0.056000233 -0.06999999 -0.11200023 -0.06999999 -0.15400004 c 0 -0.12600017 0.06999999 -0.1960001 0.19599998 -0.1960001 c 0.013999999 0 0.056000054 0.013999939 0.09799999 0.042000055 Z "/>
        </symbol>
    </defs>
</svg>
