<svg class="typst-doc" viewBox="0 0 136.8352 25.1312" width="164.2" height="30.2" xmlns="http://www.w3.org/2000/svg" xmlns:xlink="http://www.w3.org/1999/xlink" xmlns:h5="http://www.w3.org/1999/xhtml">
    <g>
        <g class="typst-group">
            <g>
                <g class="typst-text" transform="matrix(1 0 0 -1 4.8 16.256)">
                    <use xlink:href="#g96F51943A42C8D7D99094F532582FE63" x="0" y="0" fill="#000000" fill-rule="nonzero"/>
                </g>
                <g class="typst-text" transform="matrix(1 0 0 -1 18.128 16.256)">
                    <use xlink:href="#gDFE15D62F155B7E71B89E3A419D7439A" x="0" y="0" fill="#000000" fill-rule="nonzero"/>
                </g>
                <g class="typst-text" transform="matrix(1 0 0 -1 27.28 20.208000000000002)">
                    <use xlink:href="#gDABEA0BB155D837257EF737C92EDE93A" x="0" y="0" fill="#000000" fill-rule="nonzero"/>
                    <use xlink:href="#gDC982211A287E7D2627A90094683477B" x="4.972799999999999" y="0" fill="#000000" fill-rule="nonzero"/>
                    <use xlink:href="#gDC982211A287E7D2627A90094683477B" x="8.399999999999999" y="0" fill="#000000" fill-rule="nonzero"/>
                </g>
                <g class="typst-text" transform="matrix(1 0 0 -1 44.44764444444444 16.256)">
                    <use xlink:href="#gEBC7A44254DF8960ACE54D79D0347C26" x="0" y="0" fill="#000000" fill-rule="nonzero"/>
                </g>
                <g class="typst-text" transform="matrix(1 0 0 -1 61.340088888888886 16.256)">
                    <use xlink:href="#g96F51943A42C8D7D99094F532582FE63" x="0" y="0" fill="#000000" fill-rule="nonzero"/>
                </g>
                <g class="typst-text" transform="matrix(1 0 0 -1 74.66808888888889 16.256)">
                    <use xlink:href="#gDFE15D62F155B7E71B89E3A419D7439A" x="0" y="0" fill="#000000" fill-rule="nonzero"/>
                </g>
                <g class="typst-text" transform="matrix(1 0 0 -1 87.37564444444443 16.256)">
                    <use xlink:href="#g5F953B2C3915CEDCD3A184411AE8B3F2" x="0" y="0" fill="#000000" fill-rule="nonzero"/>
                </g>
                <g class="typst-text" transform="matrix(1 0 0 -1 95.37919999999998 16.256)">
                    <use xlink:href="#gEFF057DC0F6C674EACA9DD4507AA917E" x="0" y="0" fill="#000000" fill-rule="nonzero"/>
                </g>
                <g class="typst-text" transform="matrix(1 0 0 -1 103.37919999999998 16.256)">
                    <use xlink:href="#gEE1F931D6B7663329A77DB1D46C23AA6" x="0" y="0" fill="#000000" fill-rule="nonzero"/>
                </g>
                <g class="typst-text" transform="matrix(1 0 0 -1 107.82719999999999 16.256)">
                    <use xlink:href="#g516B8A07D662C6956DE4B18E56CD7CD9" x="0" y="0" fill="#000000" fill-rule="nonzero"/>
                </g>
                <g class="typst-text" transform="matrix(1 0 0 -1 115.82719999999999 16.256)">
                    <use xlink:href="#g516B8A07D662C6956DE4B18E56CD7CD9" x="0" y="0" fill="#000000" fill-rule="nonzero"/>
                </g>
                <g class="typst-text" transform="matrix(1 0 0 -1 123.82719999999999 16.256)">
                    <use xlink:href="#gF89D350DA61FA72E892E334C23ED33A1" x="0" y="0" fill="#000000" fill-rule="nonzero"/>
                </g>
            </g>
        </g>
    </g>
    <defs id="glyph">
        <symbol id="g96F51943A42C8D7D99094F532582FE63" overflow="visible">
            <path d="M 0 0m 12.144001 0 c 0.27199936 0 0.4159994 0.064 0.4159994 0.208 l -5.44 10.928 c -0.11199999 0.20800018 -0.25600004 0.3199997 -0.46400023 0.3199997 c -0.2079997 0 -0.35199976 -0.11199951 -0.46399975 -0.3199997 l -5.3600006 -10.736001 c -0.047999978 -0.11199999 -0.07999998 -0.176 -0.07999998 -0.208 c 0 -0.12799999 0.144 -0.192 0.41600007 -0.192 Z m -6.000001 9.6640005 l 4.160001 -8.336 h -8.320001 Z "/>
        </symbol>
        <symbol id="gDFE15D62F155B7E71B89E3A419D7439A" overflow="visible">
            <path d="M 0 0m 8.432 5.9680004 c 0 0.73600006 -0.7199998 1.1040001 -1.52 1.1040001 c -0.6879997 0 -1.2319999 -0.36800003 -1.6479998 -1.1040001 c -0.33599997 0.73600006 -0.8960004 1.1040001 -1.7120001 1.1040001 c -0.78400016 0 -1.4240003 -0.36800003 -1.9360002 -1.0880003 c -0.43200004 -0.6240001 -0.656 -1.0879998 -0.656 -1.3920002 c 0 -0.14399958 0.08000004 -0.22399998 0.24000001 -0.22399998 c 0.14400005 0 0.24000001 0.0800004 0.27200007 0.22399998 c 0.30400002 0.92800045 0.9760001 2.0160003 2.048 2.0160003 c 0.5280001 0 0.78400016 -0.33599997 0.78400016 -0.9920001 c 0 -0.33599997 -0.2880001 -1.5840001 -0.8480003 -3.7280002 c -0.27199984 -1.072 -0.75199986 -1.6000001 -1.44 -1.6000001 c -0.22399998 0 -0.43199992 0.048000008 -0.6079999 0.12799999 c 0.416 0.16000003 0.62399995 0.448 0.62399995 0.8640001 c 0 0.416 -0.20799994 0.62399995 -0.64 0.62399995 c -0.52800006 0 -0.9280001 -0.44799995 -0.9280001 -0.976 c 0 -0.73600006 0.7520001 -1.1040001 1.536 -1.1040001 c 0.67200017 0 1.2160001 0.36800003 1.6480002 1.1040001 c 0.3039999 -0.73600006 0.8800001 -1.1040001 1.7119999 -1.1040001 c 0.7680001 0 1.408 0.36800003 1.9200001 1.088 c 0.43200016 0.62399995 0.65600014 1.0879999 0.65600014 1.3920001 c 0 0.14400005 -0.07999992 0.22399998 -0.23999977 0.22399998 c -0.14400005 0 -0.22400045 -0.07999992 -0.2720003 -0.22399998 c -0.27199984 -0.91200006 -0.9920001 -2.016 -2.032 -2.016 c -0.5279999 0 -0.8000002 0.32000002 -0.8000002 0.9760001 c 0 0.20800006 0.0800004 0.656 0.25600004 1.376 l 0.54400015 2.16 c 0.3039999 1.2000003 0.8000002 1.8080001 1.5040002 1.8080001 c 0.22399998 0 0.43200016 -0.04799986 0.6079998 -0.12799978 c -0.43199968 -0.14400005 -0.63999987 -0.43200016 -0.63999987 -0.8640003 c 0 -0.4159999 0.22399998 -0.6240001 0.65600014 -0.6240001 c 0.5120001 0 0.9119997 0.46400023 0.9119997 0.9760003 Z "/>
        </symbol>
        <symbol id="gDABEA0BB155D837257EF737C92EDE93A" overflow="visible">
            <path d="M 0 0m 4.648 2.8112 c 0 1.2879999 -0.7503998 2.2064002 -2.0047998 2.2064002 c -0.67199993 0 -1.232 -0.2576003 -1.6912 -0.7840004 c -0.4256 -0.49279976 -0.63839996 -1.0863998 -0.63839996 -1.7695997 c 0 -0.7056 0.23519999 -1.2992 0.70559996 -1.8144 c 0.47039998 -0.51519996 1.0528 -0.77279997 1.7471999 -0.77279997 c 0.6384001 0 1.1312001 0.22399999 1.4671998 0.6608 c 0.2800002 0.3696 0.4144001 0.6384 0.4144001 0.81759995 c 0 0.11199999 -0.06719971 0.16799998 -0.19040012 0.16799998 c -0.08959961 0 -0.14559984 -0.055999994 -0.1791997 -0.17919993 c -0.24639988 -0.7392 -0.72800016 -1.1087999 -1.4448001 -1.1087999 c -0.50399995 0 -0.8959999 0.23519999 -1.1983999 0.7168 c -0.2127999 0.34719998 -0.31359994 0.87359995 -0.3247999 1.5904 h 3.0239997 c 0.24640036 0 0.31360006 0.02240014 0.31360006 0.26880002 Z m -0.99679995 1.0976 c 0.12319994 -0.36960006 0.17919993 -0.7279999 0.17919993 -1.0527999 h -2.5087998 c 0.033599973 0.7391999 0.22399998 1.2431998 0.55999994 1.5008001 c 0.27999997 0.22399998 0.5264001 0.33599997 0.7616 0.33599997 c 0.50399995 0 0.8399999 -0.2576003 1.0079999 -0.78400016 Z "/>
        </symbol>
        <symbol id="gDC982211A287E7D2627A90094683477B" overflow="visible">
            <path d="M 0 0m 2.968 7.896 c -0.99679995 0 -1.736 -0.8064003 -1.736 -1.8032002 v -1.2319999 h -0.8624 v -0.42560005 h 0.8624 v -3.5503998 c 0 -0.21279997 -0.033600092 -0.34719998 -0.11199999 -0.39199996 c -0.078400016 -0.044800013 -0.3248 -0.056000024 -0.7392 -0.056000024 v -0.43679997 l 1.288 0.0336 c 0.47039998 0.0112 0.952 0 1.4335998 -0.0336 v 0.43679997 h -0.26880002 c -0.36959982 0 -0.6048 0.022400022 -0.6831999 0.078399986 c -0.0783999 0.055999994 -0.11199999 0.1904 -0.11199999 0.39200002 v 3.5279999 h 1.2544 v 0.42560005 h -1.2880001 v 1.2431998 c 0 0.67199993 0.34720016 1.4560003 0.9632001 1.4560003 c 0.08959985 0 0.16799998 -0.011200428 0.24639988 -0.03360033 c -0.16799998 -0.089600086 -0.25759983 -0.24639988 -0.25759983 -0.4591999 c 0 -0.34719992 0.16799998 -0.5264001 0.5151999 -0.5264001 c 0.34719992 0 0.5264001 0.17920017 0.5264001 0.53760004 c 0 0.5040002 -0.5264001 0.81760025 -1.0304 0.81760025 Z "/>
        </symbol>
        <symbol id="gEBC7A44254DF8960ACE54D79D0347C26" overflow="visible">
            <path d="M 0 0m 11.168 5.872 h -9.8880005 c -0.25600004 0 -0.38400006 -0.12799978 -0.38400006 -0.36800003 c 0 -0.23999977 0.12800002 -0.36800003 0.38400006 -0.36800003 h 9.8880005 c 0.25600052 0 0.38400078 0.12800026 0.38400078 0.36800003 c 0 0.19199991 -0.1760006 0.36800003 -0.38400078 0.36800003 Z m 0 -3.0080001 h -9.8880005 c -0.25600004 0 -0.38400006 -0.12800002 -0.38400006 -0.36800003 c 0 -0.24000001 0.12800002 -0.36800003 0.38400006 -0.36800003 h 9.8880005 c 0.25600052 0 0.38400078 0.12800002 0.38400078 0.36800003 c 0 0.20800018 -0.1760006 0.36800003 -0.38400078 0.36800003 Z "/>
        </symbol>
        <symbol id="g5F953B2C3915CEDCD3A184411AE8B3F2" overflow="visible">
            <path d="M 0 0m 3.072 4 c 0 0.46400023 -0.38399982 0.84800005 -0.8479998 0.84800005 c -0.4640001 0 -0.84800017 -0.38399982 -0.84800017 -0.84800005 c 0 -0.46399975 0.38400006 -0.8479998 0.84800017 -0.8479998 c 0.464 0 0.8479998 0.38400006 0.8479998 0.8479998 Z "/>
        </symbol>
        <symbol id="gEFF057DC0F6C674EACA9DD4507AA917E" overflow="visible">
            <path d="M 0 0m 3.9840002 -0.35200003 c 2.256 0 3.376 1.8240001 3.376 5.4720006 c 0 2.448 -0.5119996 4.0800004 -1.52 4.8799996 c -0.55999994 0.43200016 -1.184 0.65600014 -1.8400002 0.65600014 c -2.256 0 -3.376 -1.8400002 -3.376 -5.536 c 0 -2.9440002 0.7840001 -5.4720006 3.3600001 -5.4720006 Z m 1.7920003 8.736001 c 0.11199999 -0.5600004 0.15999985 -1.5840006 0.15999985 -3.0720005 c 0 -1.4720001 -0.06400013 -2.5600002 -0.17600012 -3.2640002 c -0.20800018 -1.2800001 -0.8000002 -1.9200001 -1.776 -1.9200001 c -0.36800003 0 -0.73600006 0.14400001 -1.072 0.416 c -0.43200016 0.36800003 -0.68799996 1.12 -0.8000002 2.2720003 c -0.04799986 0.39999986 -0.06399989 1.2320001 -0.06399989 2.496 c 0 1.3920002 0.048000097 2.368 0.12800002 2.896 c 0.14400005 0.8800001 0.43199992 1.4400005 0.8800001 1.6800003 c 0.352 0.19200039 0.6559999 0.2880001 0.928 0.2880001 c 1.04 0 1.6160002 -0.8480005 1.7920003 -1.7919998 Z "/>
        </symbol>
        <symbol id="gEE1F931D6B7663329A77DB1D46C23AA6" overflow="visible">
            <path d="M 0 0m 3.072 0.84800005 c 0 0.464 -0.38399982 0.84800005 -0.8479998 0.84800005 c -0.4640001 0 -0.84800017 -0.38400006 -0.84800017 -0.84800005 c 0 -0.46400005 0.38400006 -0.84800005 0.84800017 -0.84800005 c 0.464 0 0.8479998 0.384 0.8479998 0.84800005 Z "/>
        </symbol>
        <symbol id="g516B8A07D662C6956DE4B18E56CD7CD9" overflow="visible">
            <path d="M 0 0m 1.8560001 2.24 c -0.528 0 -0.78400004 -0.27199996 -0.78400004 -0.816 c 0 -1.2 0.9760001 -1.776 2.2400002 -1.776 c 1.2799997 0 2.304 0.64000005 3.0560002 1.9360001 c 0.6239996 1.072 0.94399977 2.3040001 0.94399977 3.6800003 c 0 2.032 -0.36800003 3.4719996 -1.1040001 4.32 c -0.6240001 0.72000027 -1.3439999 1.0719995 -2.1599998 1.0719995 c -0.94400024 0 -1.7280002 -0.3359995 -2.3520002 -1.0239992 c -0.6880001 -0.72000027 -1.024 -1.5840006 -1.024 -2.5920005 c 0 -0.9760003 0.288 -1.8080001 0.86399996 -2.4960003 c 0.60800004 -0.73600006 1.3920002 -1.1040001 2.3360002 -1.1040001 c 0.8319998 0 1.4720001 0.4480002 1.9040003 1.3440003 v -0.20800018 c 0 -1.7440002 -0.30400038 -2.928 -0.92800045 -3.5680003 c -0.4959998 -0.528 -1.0239999 -0.78400004 -1.5519998 -0.78400004 c -0.6400001 0 -1.1040001 0.14400002 -1.4080001 0.44800004 c 0.49599993 0 0.752 0.288 0.752 0.78400004 c 0 0.44799995 -0.33599997 0.7839999 -0.78400004 0.7839999 Z m 2.032 1.6960001 c -0.6240001 0 -1.088 0.31999993 -1.4080002 0.9600003 c -0.17599988 0.36800003 -0.27199984 1.0879998 -0.27199984 2.1279998 c 0 1.04 0.11199999 1.7440004 0.31999993 2.144 c 0.352 0.64000034 0.8640001 0.96000004 1.5200002 0.96000004 c 0.65599966 0 1.1359997 -0.39999962 1.44 -1.1999998 c 0.17599964 -0.43200016 0.2880001 -1.1680002 0.2880001 -2.2080002 c 0 -1.3920002 -0.6240001 -2.7840002 -1.8880002 -2.7840002 Z "/>
        </symbol>
        <symbol id="gF89D350DA61FA72E892E334C23ED33A1" overflow="visible">
            <path d="M 0 0m 7.6000004 9.6640005 c 0.11199999 0.14400005 0.15999985 0.35200024 0.15999985 0.64000034 h -3.872 c -1.1040001 0 -1.7280002 0.063999176 -1.8400002 0.20799923 c -0.048000097 0.048000336 -0.095999956 0.1600008 -0.12800002 0.30400085 h -0.49600005 l -0.54399997 -3.3920007 h 0.52800006 c 0.15999997 0.8960004 0.288 1.3759999 0.38399994 1.4559999 c 0.047999978 0.048000336 0.54400015 0.07999992 1.4880002 0.07999992 h 3.1360002 l -1.6960001 -2.3999996 c -1.296 -1.8400002 -1.9360001 -3.8240004 -1.9360001 -5.984 c 0 -0.624 0.25600004 -0.9280001 0.7839999 -0.9280001 c 0.5280001 0 0.78400016 0.30400002 0.78400016 0.9280001 v 0.81600004 c 0 2.4320002 0.38399982 4.192 1.1360002 5.264 Z "/>
        </symbol>
    </defs>
</svg>
