<svg class="typst-doc" viewBox="0 0 170.2375111111111 57.44" width="204.3" height="68.9" xmlns="http://www.w3.org/2000/svg" xmlns:xlink="http://www.w3.org/1999/xlink" xmlns:h5="http://www.w3.org/1999/xhtml">
    <g>
        <g class="typst-group">
            <g>
                <g class="typst-text" transform="matrix(1 0 0 -1 4.8 32.720000000000006)">
                    <use xlink:href="#gDFE15D62F155B7E71B89E3A419D7439A" x="0" y="0" fill="#000000" fill-rule="nonzero"/>
                </g>
                <g class="typst-text" transform="matrix(1 0 0 -1 18.396444444444445 32.720000000000006)">
                    <use xlink:href="#gEBC7A44254DF8960ACE54D79D0347C26" x="0" y="0" fill="#000000" fill-rule="nonzero"/>
                </g>
                <g class="typst-text" transform="matrix(1 0 0 -1 35.28888888888889 32.720000000000006)">
                    <use xlink:href="#g4FED9F84867EFED9C5F0FCA66B9430A0" x="0" y="0" fill="#000000" fill-rule="nonzero"/>
                </g>
                <g class="typst-text" transform="matrix(1 0 0 -1 49.74044444444445 32.720000000000006)">
                    <use xlink:href="#g5F953B2C3915CEDCD3A184411AE8B3F2" x="0" y="0" fill="#000000" fill-rule="nonzero"/>
                </g>
                <g class="typst-text" transform="matrix(1 0 0 -1 57.744 32.720000000000006)">
                    <use xlink:href="#g705798A7588BC5D76582BF23BA12CE7F" x="0" y="0" fill="#000000" fill-rule="nonzero"/>
                </g>
                <g class="typst-text" transform="matrix(1 0 0 -1 82.264 21.888)">
                    <use xlink:href="#g8B48538E2F907912949701677B70EB19" x="0" y="0" fill="#000000" fill-rule="nonzero"/>
                </g>
                <g class="typst-text" transform="matrix(1 0 0 -1 73.344 32.43200000000001)">
                    <use xlink:href="#gAFB633AB724C57674C59CF0192B86B86" x="0" y="0" fill="#000000" fill-rule="nonzero"/>
                </g>
                <path class="typst-shape" fill="none" stroke="#000000" stroke-width="0.768" stroke-linecap="butt" stroke-linejoin="miter" stroke-miterlimit="4" transform="matrix(1 0 0 1 86.672 32.17600000000001)" d="M 0 0h 12.512 "/>
                <g class="typst-text" transform="matrix(1 0 0 -1 86.672 46.04000000000001)">
                    <use xlink:href="#g7D6B40D039086DA6753A1C6492426CBD" x="0" y="0" fill="#000000" fill-rule="nonzero"/>
                </g>
                <path class="typst-shape" fill="none" stroke="#000000" stroke-width="0.768" stroke-linecap="butt" stroke-linejoin="miter" stroke-miterlimit="4" transform="matrix(1 0 0 1 73.344 28.72)" d="M 0 0h 25.84 "/>
                <g class="typst-text" transform="matrix(1 0 0 -1 104.33955555555555 32.720000000000006)">
                    <use xlink:href="#gA0D485AB365C080A2B7E74DDD113CE36" x="0" y="0" fill="#000000" fill-rule="nonzero"/>
                </g>
                <g class="typst-group">
                    <g>
                        <g class="typst-text" transform="matrix(1 0 0 -1 131.8903111111111 21.887999999999998)">
                            <use xlink:href="#g8B48538E2F907912949701677B70EB19" x="0" y="0" fill="#000000" fill-rule="nonzero"/>
                        </g>
                        <g class="typst-text" transform="matrix(1 0 0 -1 121.94311111111111 34.047999999999995)">
                            <use xlink:href="#gAFB633AB724C57674C59CF0192B86B86" x="0" y="0" fill="#000000" fill-rule="nonzero"/>
                        </g>
                        <path class="typst-shape" fill="none" stroke="#000000" stroke-width="0.768" stroke-linecap="butt" stroke-linejoin="miter" stroke-miterlimit="4" transform="matrix(1 0 0 1 135.27111111111108 33.792)" d="M 0 0h 14.5664 "/>
                        <g class="typst-text" transform="matrix(1 0 0 -1 135.27111111111108 43.696)">
                            <use xlink:href="#g6F984C1783BA5CC8E2498A96BA9BF0D5" x="0" y="0" fill="#000000" fill-rule="nonzero"/>
                        </g>
                        <g class="typst-text" transform="matrix(1 0 0 -1 143.3191111111111 47.648)">
                            <use xlink:href="#g505F26E11C082690221E0805E42FFE7D" x="0" y="0" fill="#000000" fill-rule="nonzero"/>
                        </g>
                        <path class="typst-shape" fill="none" stroke="#000000" stroke-width="0.768" stroke-linecap="butt" stroke-linejoin="miter" stroke-miterlimit="4" transform="matrix(1 0 0 1 121.94311111111111 28.72)" d="M 0 0h 27.8944 "/>
                    </g>
                </g>
                <g class="typst-text" transform="matrix(1 0 0 -1 151.4375111111111 32.720000000000006)">
                    <use xlink:href="#gFCA9870F37749F90BE27FB952800BD82" x="0" y="0" fill="#000000" fill-rule="nonzero"/>
                </g>
            </g>
        </g>
    </g>
    <defs id="glyph">
        <symbol id="gDFE15D62F155B7E71B89E3A419D7439A" overflow="visible">
            <path d="M 0 0m 8.432 5.9680004 c 0 0.73600006 -0.7199998 1.1040001 -1.52 1.1040001 c -0.6879997 0 -1.2319999 -0.36800003 -1.6479998 -1.1040001 c -0.33599997 0.73600006 -0.8960004 1.1040001 -1.7120001 1.1040001 c -0.78400016 0 -1.4240003 -0.36800003 -1.9360002 -1.0880003 c -0.43200004 -0.6240001 -0.656 -1.0879998 -0.656 -1.3920002 c 0 -0.14399958 0.08000004 -0.22399998 0.24000001 -0.22399998 c 0.14400005 0 0.24000001 0.0800004 0.27200007 0.22399998 c 0.30400002 0.92800045 0.9760001 2.0160003 2.048 2.0160003 c 0.5280001 0 0.78400016 -0.33599997 0.78400016 -0.9920001 c 0 -0.33599997 -0.2880001 -1.5840001 -0.8480003 -3.7280002 c -0.27199984 -1.072 -0.75199986 -1.6000001 -1.44 -1.6000001 c -0.22399998 0 -0.43199992 0.048000008 -0.6079999 0.12799999 c 0.416 0.16000003 0.62399995 0.448 0.62399995 0.8640001 c 0 0.416 -0.20799994 0.62399995 -0.64 0.62399995 c -0.52800006 0 -0.9280001 -0.44799995 -0.9280001 -0.976 c 0 -0.73600006 0.7520001 -1.1040001 1.536 -1.1040001 c 0.67200017 0 1.2160001 0.36800003 1.6480002 1.1040001 c 0.3039999 -0.73600006 0.8800001 -1.1040001 1.7119999 -1.1040001 c 0.7680001 0 1.408 0.36800003 1.9200001 1.088 c 0.43200016 0.62399995 0.65600014 1.0879999 0.65600014 1.3920001 c 0 0.14400005 -0.07999992 0.22399998 -0.23999977 0.22399998 c -0.14400005 0 -0.22400045 -0.07999992 -0.2720003 -0.22399998 c -0.27199984 -0.91200006 -0.9920001 -2.016 -2.032 -2.016 c -0.5279999 0 -0.8000002 0.32000002 -0.8000002 0.9760001 c 0 0.20800006 0.0800004 0.656 0.25600004 1.376 l 0.54400015 2.16 c 0.3039999 1.2000003 0.8000002 1.8080001 1.5040002 1.8080001 c 0.22399998 0 0.43200016 -0.04799986 0.6079998 -0.12799978 c -0.43199968 -0.14400005 -0.63999987 -0.43200016 -0.63999987 -0.8640003 c 0 -0.4159999 0.22399998 -0.6240001 0.65600014 -0.6240001 c 0.5120001 0 0.9119997 0.46400023 0.9119997 0.9760003 Z "/>
        </symbol>
        <symbol id="gEBC7A44254DF8960ACE54D79D0347C26" overflow="visible">
            <path d="M 0 0m 11.168 5.872 h -9.8880005 c -0.25600004 0 -0.38400006 -0.12799978 -0.38400006 -0.36800003 c 0 -0.23999977 0.12800002 -0.36800003 0.38400006 -0.36800003 h 9.8880005 c 0.25600052 0 0.38400078 0.12800026 0.38400078 0.36800003 c 0 0.19199991 -0.1760006 0.36800003 -0.38400078 0.36800003 Z m 0 -3.0080001 h -9.8880005 c -0.25600004 0 -0.38400006 -0.12800002 -0.38400006 -0.36800003 c 0 -0.24000001 0.12800002 -0.36800003 0.38400006 -0.36800003 h 9.8880005 c 0.25600052 0 0.38400078 0.12800002 0.38400078 0.36800003 c 0 0.20800018 -0.1760006 0.36800003 -0.38400078 0.36800003 Z "/>
        </symbol>
        <symbol id="g4FED9F84867EFED9C5F0FCA66B9430A0" overflow="visible">
            <path d="M 0 0m 8.320001 10.672001 c 0 0.17599964 -0.112000465 0.25599957 -0.32000065 0.25599957 l -2.336 -0.048000336 l -2.096 0.048000336 c -0.24000001 0.015999794 -0.36800003 -0.11199951 -0.36800003 -0.38399982 c 0 -0.112000465 0.048000097 -0.19200039 0.14400005 -0.20800018 c 0.14400005 -0.015999794 0.27200007 -0.031999588 0.352 -0.031999588 c 0.4960003 -0.016000748 0.7680001 -0.048000336 0.84800005 -0.06400013 c 0.07999992 -0.015999794 0.12800026 -0.06400013 0.12800026 -0.14400005 c 0 -0.03200054 -0.01600027 -0.12800026 -0.06400013 -0.2880001 l -2.1120002 -8.496 c -0.095999956 -0.352 -0.25600004 -0.56 -0.49600005 -0.64 c -0.095999956 -0.032000005 -0.38399994 -0.048000038 -0.88 -0.048000038 c -0.33599997 0 -0.496 -0.12799999 -0.496 -0.384 c 0 -0.16 0.16000003 -0.24000001 0.496 -0.24000001 h 7.3120003 c 0.40000057 0 0.43200016 0 0.5440006 0.30400002 l 1.2480001 3.4240003 c 0.047999382 0.11199999 0.063999176 0.19199991 0.063999176 0.24000001 c 0 0.16000009 -0.07999992 0.24000001 -0.25599957 0.24000001 c -0.15999985 0 -0.23999977 -0.14400005 -0.3199997 -0.36800003 c -0.30400085 -0.7839999 -0.592 -1.3759999 -0.83200073 -1.744 c -0.592 -0.89600015 -1.5999999 -1.4720001 -3.072 -1.4720001 h -1.4879999 c -0.17600012 0 -0.2880001 0 -0.33599997 0.016000032 c -0.11199999 0 -0.16000009 0.032000005 -0.16000009 0.07999998 c 0 0.032000005 0.032000065 0.144 0.08000016 0.352 l 2.1279998 8.544001 c 0.096000195 0.36800003 0.30400038 0.5760002 0.6080003 0.65600014 c 0.096000195 0.015999794 0.43200016 0.03200054 1.0079999 0.03200054 c 0.44800043 0 0.6720004 0 0.6720004 0.36800003 Z "/>
        </symbol>
        <symbol id="g5F953B2C3915CEDCD3A184411AE8B3F2" overflow="visible">
            <path d="M 0 0m 3.072 4 c 0 0.46400023 -0.38399982 0.84800005 -0.8479998 0.84800005 c -0.4640001 0 -0.84800017 -0.38399982 -0.84800017 -0.84800005 c 0 -0.46399975 0.38400006 -0.8479998 0.84800017 -0.8479998 c 0.464 0 0.8479998 0.38400006 0.8479998 0.8479998 Z "/>
        </symbol>
        <symbol id="g705798A7588BC5D76582BF23BA12CE7F" overflow="visible">
            <path d="M 0 0m 12.768001 -19.92 c 0.2720003 0 0.39999962 0.12799835 0.39999962 0.39999962 c 0 0.12800026 -0.047999382 0.23999977 -0.15999985 0.3199997 c -1.2959995 0.97599983 -2.4639997 2.5119991 -3.5360003 4.6400003 c -1.9039998 3.7919998 -3.3119998 9.120001 -3.3119998 14.576 v 7.9680004 c 0 2.4800005 0.2880001 4.976001 0.84800005 7.488001 c 0.9919996 4.4800005 3.0720005 9.5199995 6 11.728 c 0.112000465 0.07999992 0.15999985 0.19200134 0.15999985 0.3199997 c 0 0.27200127 -0.1279993 0.40000153 -0.39999962 0.40000153 c -0.07999992 0 -0.15999985 -0.032001495 -0.22399998 -0.07999992 c -1.3920002 -1.0720005 -2.7200003 -2.6560001 -3.9680004 -4.7840004 c -2.2079997 -3.776001 -4.144 -9.456001 -4.144 -15.072001 v -7.9680004 c 0 -5.28 1.776 -10.688001 3.7600002 -14.400001 c 1.3120003 -2.4160004 2.7680006 -4.24 4.352 -5.4559994 c 0.06400013 -0.048000336 0.14400005 -0.07999992 0.22399998 -0.07999992 Z "/>
        </symbol>
        <symbol id="g8B48538E2F907912949701677B70EB19" overflow="visible">
            <path d="M 0 0m 4.3040004 10.656 c -0.65600014 -0.67199993 -1.6160002 -1.0079994 -2.8800004 -1.0079994 v -0.62400055 c 0.832 0 1.5200002 0.12800026 2.048 0.38399982 v -8.096 c 0 -0.288 -0.06399989 -0.48000002 -0.20799994 -0.56 c -0.14400005 -0.07999998 -0.54400015 -0.12800002 -1.184 -0.12800002 h -0.56000006 v -0.624 c 0.39999998 0.032 1.264 0.048 2.592 0.048 c 1.3280001 0 2.1920004 -0.015999999 2.5920005 -0.048 v 0.624 h -0.5600004 c -0.65599966 0 -1.0559998 0.048000038 -1.184 0.12800002 c -0.12799978 0.07999998 -0.2079997 0.272 -0.2079997 0.56 v 8.864 c 0 0.38399982 -0.032000065 0.47999954 -0.44799995 0.47999954 Z "/>
        </symbol>
        <symbol id="gAFB633AB724C57674C59CF0192B86B86" overflow="visible">
            <path d="M 0 0m 13.552001 -0.032 c 0.063999176 0.14400001 0.09599972 0.24000001 0.09599972 0.28800002 c 0 0.256 -0.12800026 0.38400003 -0.38399982 0.38400003 c -0.14400005 0 -0.25600052 -0.06400001 -0.32000065 -0.20800003 c -2.288 -4.576 -3.4239998 -6.8800006 -3.4239998 -6.9120007 v -0.015999794 c 0 -0.11199999 -1.0880003 -2.4320002 -3.2800002 -6.9920006 l -2.7680001 6.1120005 c -0.07999992 0.17600012 -0.15999985 0.25600004 -0.25600004 0.25600004 c -0.04799986 0 -0.14400005 -0.04799986 -0.27199984 -0.14400005 l -1.5680002 -1.1839995 c -0.14399993 -0.112000465 -0.20799994 -0.19200039 -0.20799994 -0.2720003 c 0 -0.15999985 0.07999992 -0.23999977 0.22399998 -0.23999977 c 0.047999978 0 0.12800002 0.047999382 0.25600004 0.14400005 l 0.768 0.55999947 l 3.1040003 -6.832 c 0.07999992 -0.1760006 0.19199991 -0.2720003 0.35199976 -0.2720003 c 0.19199991 0 0.32000017 0.07999992 0.4000001 0.22399998 Z "/>
        </symbol>
        <symbol id="g7D6B40D039086DA6753A1C6492426CBD" overflow="visible">
            <path d="M 0 0m 8.88 10.928 h -5.12 c -0.36800003 0 -0.54400015 -0.015999794 -0.54400015 -0.36800003 c 0 -0.17599964 0.17600012 -0.25599957 0.5280001 -0.25599957 c 0.31999993 0 0.9599998 0.047999382 0.9599998 -0.20800018 c 0 -0.03200054 -0.015999794 -0.12800026 -0.06399965 -0.2880001 l -2.1120002 -8.496 c -0.095999956 -0.352 -0.25600004 -0.56 -0.48000002 -0.64 c -0.11199999 -0.032000005 -0.39999998 -0.048000038 -0.896 -0.048000038 c -0.35200006 0 -0.512 -0.032000005 -0.512 -0.368 c 0 -0.176 0.096000016 -0.256 0.30400002 -0.256 l 2.0000002 0.048 l 1.0239999 -0.015999999 c 0.17599988 0 0.8160002 -0.032 1.0239999 -0.032 c 0.25600004 0 0.3840003 0.128 0.3840003 0.384 c 0 0.16000003 -0.17600012 0.24000001 -0.5120001 0.24000001 c -0.64000034 0 -0.96000004 0.06400001 -0.96000004 0.208 c 0 0 0.015999794 0.048000038 0.04799986 0.25600004 l 0.96000004 3.904 h 2.6400003 c 1.0399995 0 2.032 0.32000017 2.9599996 0.94400024 c 1.0400009 0.6880002 1.552 1.5359998 1.552 2.5440001 c 0 1.5839996 -1.5039997 2.448 -3.184 2.448 Z m -0.49599934 -0.6239996 c 1.3919992 0 2.08 -0.4800005 2.08 -1.4400005 c 0 -0.8959999 -0.44799995 -2.0960002 -0.91200066 -2.512 c -0.6079998 -0.54400015 -1.408 -0.816 -2.3999996 -0.816 h -2.144 l 1.0559998 4.224 c 0.12800026 0.5440006 0.12800026 0.5440006 0.8000002 0.5440006 Z "/>
        </symbol>
        <symbol id="gA0D485AB365C080A2B7E74DDD113CE36" overflow="visible">
            <path d="M 0 0m 11.168 4.32 h -9.8880005 c -0.25600004 0 -0.38400006 -0.11199999 -0.38400006 -0.32000017 c 0 -0.2079997 0.12800002 -0.31999993 0.38400006 -0.31999993 h 9.8880005 c 0.25600052 0 0.38400078 0.11200023 0.38400078 0.31999993 c 0 0.19200039 -0.19200039 0.32000017 -0.38400078 0.32000017 Z "/>
        </symbol>
        <symbol id="g6F984C1783BA5CC8E2498A96BA9BF0D5" overflow="visible">
            <path d="M 0 0m 5.6800003 7.0720005 c -0.704 0 -1.3759999 -0.36800003 -2.032 -1.1040001 c -0.17600012 0.73600006 -0.67200017 1.1040001 -1.4560001 1.1040001 c -0.65600014 0 -1.1360002 -0.52800035 -1.4720001 -1.5680003 c -0.16000003 -0.5279999 -0.24000001 -0.8319998 -0.24000001 -0.928 c 0 -0.14400005 0.07999998 -0.22399998 0.25600004 -0.22399998 c 0.07999998 0 0.12799996 0.015999794 0.176 0.04799986 c 0.07999998 0.14400005 0.12800002 0.25600004 0.14399993 0.36800003 c 0.2880001 1.2160001 0.65600014 1.8240004 1.088 1.8240004 c 0.2880001 0 0.43200016 -0.22399998 0.43200016 -0.65600014 c 0 -0.24000025 -0.032000065 -0.5120001 -0.11199999 -0.8000002 l -1.7600002 -7.024 c -0.14400005 -0.528 -0.16000003 -0.5919999 -0.78400004 -0.5919999 c -0.28800002 0 -0.432 -0.12800002 -0.432 -0.36800003 c 0 -0.17600012 0.096000016 -0.25600004 0.272 -0.25600004 c 0.24000001 0 1.072 0.04799986 1.312 0.04799986 c 0.30400002 0 1.2640002 -0.04799986 1.5680001 -0.04799986 c 0.24000001 0 0.352 0.12800002 0.352 0.38400006 c 0 0.15999985 -0.14400005 0.24000001 -0.44799995 0.24000001 c -0.2880001 0 -0.72 -0.016000032 -0.72 0.17599988 c 0 0.20799994 0.6559999 2.7200003 0.72 2.992 c 0.31999993 -0.592 0.79999995 -0.896 1.44 -0.896 c 1.04 0 1.9520001 0.528 2.7520003 1.6000001 c 0.7359996 0.97599995 1.1039996 2.0160003 1.1039996 3.0879998 c 0 1.3920002 -0.8319998 2.5920005 -2.1599998 2.5920005 Z m -0.04799986 -0.48000002 c 0.6240001 0 0.94399977 -0.48000002 0.94399977 -1.4240003 c 0 -0.43200016 -0.09599972 -1.0079999 -0.27199984 -1.7280002 c -0.36800003 -1.392 -0.83200026 -2.304 -1.3920002 -2.7680001 c -0.33599997 -0.27200004 -0.63999987 -0.41600004 -0.944 -0.41600004 c -0.464 0 -0.7839999 0.208 -0.96000004 0.64 c -0.14400005 0.33600008 -0.22399998 0.5760001 -0.22399998 0.704 l 0.816 3.3440003 c 0.07999992 0.35200024 0.36800003 0.7199998 0.8160002 1.0879998 c 0.44799995 0.36800003 0.84800005 0.5600004 1.2160001 0.5600004 Z "/>
        </symbol>
        <symbol id="g505F26E11C082690221E0805E42FFE7D" overflow="visible">
            <path d="M 0 0m 3.5839999 4.9728 c -0.4368 0 -0.8736 -0.17920017 -1.3104 -0.53760004 l 0.7279999 2.9456 c 0.01120019 0.022399902 0.02240014 0.089600086 0.044800043 0.19040012 c 0 0.13439989 -0.0783999 0.2015996 -0.22399998 0.2015996 l -1.4111999 -0.11199999 c -0.1904 -0.011199951 -0.27999997 -0.11199999 -0.27999997 -0.30239964 c 0 -0.12319994 0.11199999 -0.19040012 0.33599997 -0.19040012 c 0.1904 0 0.48160005 0 0.48160005 -0.12319994 c 0 -0.033599854 -0.01120007 -0.11199999 -0.044800043 -0.23519993 c -0.16799998 -0.6831999 -0.3024 -1.1984 -0.3808 -1.5455999 l -0.7279999 -2.9456 c -0.033600032 -0.15680003 -0.055999994 -0.34719992 -0.055999994 -0.55999994 c 0 -1.0416 0.63839996 -1.8704 1.6575998 -1.8704 c 0.7616 0 1.4336 0.34719998 2.0272 1.0304 c 0.5711999 0.6607999 0.8512001 1.3887999 0.8512001 2.1615999 c 0 1.0640001 -0.6608 1.8927999 -1.6912 1.8927999 Z m -1.9824 -3.6063998 c 0 0.3024 0.13440001 0.9743998 0.4144001 2.0272 c 0.033599854 0.14559984 0.11199999 0.29119992 0.25759983 0.4591999 c 0.4144001 0.4815998 0.8399999 0.71679974 1.2767999 0.71679974 c 0.5040002 0 0.7616 -0.34719992 0.7616 -1.0303998 c 0 -0.6496 -0.34719992 -1.7471999 -0.5711999 -2.1952 c -0.22399998 -0.47040004 -0.7279999 -1.0527999 -1.3327999 -1.0527999 c -0.53760004 0 -0.80640006 0.4928 -0.80640006 1.0752001 Z "/>
        </symbol>
        <symbol id="gFCA9870F37749F90BE27FB952800BD82" overflow="visible">
            <path d="M 0 0m 9.568001 0.016 v 7.9680004 c 0 5.2800007 -1.7760005 10.688001 -3.7600007 14.400001 c -1.3119998 2.4160004 -2.768 4.24 -4.352 5.4560013 c -0.06400001 0.04799843 -0.14400005 0.07999992 -0.22399998 0.07999992 c -0.27200007 0 -0.4000001 -0.12800026 -0.4000001 -0.40000153 c 0 -0.12799835 0.048000038 -0.23999977 0.16000003 -0.3199997 c 1.296 -0.97599983 2.464 -2.5119991 3.5360003 -4.6399994 c 1.9039998 -3.7919998 3.3119998 -9.120001 3.3119998 -14.576001 v -7.9680004 c 0 -2.4800003 -0.28799963 -4.976 -0.84800005 -7.488 c -0.9919996 -4.4800005 -3.072 -9.52 -6 -11.728001 c -0.11199999 -0.07999992 -0.16000003 -0.19199944 -0.16000003 -0.3199997 c 0 -0.27200127 0.12800002 -0.39999962 0.4000001 -0.39999962 c 0.07999992 0 0.15999997 0.031999588 0.22399998 0.07999992 c 1.392 1.0719986 2.72 2.6560001 3.9680002 4.7839994 c 2.2080002 3.776 4.1440005 9.456 4.1440005 15.0720005 Z "/>
        </symbol>
    </defs>
</svg>
