<svg class="typst-doc" viewBox="0 0 49.14093333333334 17.962" width="59.0" height="21.6" xmlns="http://www.w3.org/2000/svg" xmlns:xlink="http://www.w3.org/1999/xlink" xmlns:h5="http://www.w3.org/1999/xhtml">
    <g>
        <g class="typst-group">
            <g>
                <g class="typst-text" transform="matrix(1 0 0 -1 4.2 13.761999999999999)">
                    <use xlink:href="#gE683AADB1B0A53551B7A4114314227FB" x="0" y="0" fill="#000000" fill-rule="nonzero"/>
                </g>
                <g class="typst-text" transform="matrix(1 0 0 -1 8.176 13.761999999999999)">
                    <use xlink:href="#g37E0264F1E04C769CE2611564A552A63" x="0" y="0" fill="#000000" fill-rule="nonzero"/>
                </g>
                <g class="typst-text" transform="matrix(1 0 0 -1 15.218000000000002 17.22)">
                    <use xlink:href="#g42D6A80ADCDC8169D17EAC43FCFBA9B5" x="0" y="0" fill="#000000" fill-rule="nonzero"/>
                </g>
                <g class="typst-text" transform="matrix(1 0 0 -1 22.078000000000003 13.761999999999999)">
                    <use xlink:href="#g33F3B6CAB8F90F0610A588276DD2E949" x="0" y="0" fill="#000000" fill-rule="nonzero"/>
                </g>
                <g class="typst-text" transform="matrix(1 0 0 -1 28.303333333333338 13.761999999999999)">
                    <use xlink:href="#g37E0264F1E04C769CE2611564A552A63" x="0" y="0" fill="#000000" fill-rule="nonzero"/>
                </g>
                <g class="typst-text" transform="matrix(1 0 0 -1 35.345333333333336 17.22)">
                    <use xlink:href="#gA4D358BFA8D7637DC036F7E960C5046E" x="0" y="0" fill="#000000" fill-rule="nonzero"/>
                </g>
                <g class="typst-text" transform="matrix(1 0 0 -1 41.04893333333334 13.761999999999999)">
                    <use xlink:href="#g6607CDBB464E770EE76C0A95FA108A2" x="0" y="0" fill="#000000" fill-rule="nonzero"/>
                </g>
            </g>
        </g>
    </g>
    <defs id="glyph">
        <symbol id="gE683AADB1B0A53551B7A4114314227FB" overflow="visible">
            <path d="M 0 0m 3.262 -2.828 h -1.036 v 12.656 h 1.036 c 0.21000004 0 0.32200003 0.112000465 0.32200003 0.33600044 c 0 0.22399998 -0.11199999 0.3359995 -0.32200003 0.3359995 h -1.666 v -14 h 1.666 c 0.21000004 0 0.32200003 0.11199999 0.32200003 0.33599997 c 0 0.16799998 -0.15400004 0.33599997 -0.32200003 0.33599997 Z "/>
        </symbol>
        <symbol id="g37E0264F1E04C769CE2611564A552A63" overflow="visible">
            <path d="M 0 0m 4.9700003 6.188 c -0.6160002 0 -1.2040002 -0.32200003 -1.7780001 -0.9660001 c -0.15400004 0.64400005 -0.58800006 0.9660001 -1.274 0.9660001 c -0.574 0 -0.9940001 -0.4619999 -1.2880001 -1.3720002 c -0.13999999 -0.4619999 -0.20999998 -0.7279997 -0.20999998 -0.8119998 c 0 -0.12600017 0.06999999 -0.1960001 0.22399998 -0.1960001 c 0.07000005 0 0.11200005 0.013999939 0.15400004 0.042000055 c 0.06999999 0.12599993 0.11199999 0.22400022 0.12599999 0.3219998 c 0.25199997 1.0640001 0.574 1.5960002 0.952 1.5960002 c 0.25199997 0 0.37800014 -0.1960001 0.37800014 -0.5739999 c 0 -0.21000004 -0.028000116 -0.44799995 -0.09800005 -0.7000003 l -1.5400002 -6.146 c -0.12599999 -0.462 -0.13999999 -0.518 -0.686 -0.518 c -0.252 0 -0.37800002 -0.11199999 -0.37800002 -0.32200003 c 0 -0.15400004 0.08399999 -0.22399998 0.238 -0.22399998 c 0.21000001 0 0.9380001 0.042000055 1.148 0.042000055 c 0.26599997 0 1.1060002 -0.042000055 1.3720002 -0.042000055 c 0.2099998 0 0.30799985 0.11199999 0.30799985 0.33599997 c 0 0.1400001 -0.12599993 0.21000004 -0.39199996 0.21000004 c -0.25199997 0 -0.63 -0.013999939 -0.63 0.15400004 c 0 0.18199992 0.574 2.38 0.63 2.618 c 0.27999997 -0.518 0.70000005 -0.78400004 1.26 -0.78400004 c 0.90999985 0 1.7080002 0.462 2.408 1.4000001 c 0.64400005 0.854 0.9660001 1.764 0.9660001 2.7020001 c 0 1.2179999 -0.72800016 2.2680001 -1.8899999 2.2680001 Z m -0.042000294 -0.42000008 c 0.546 0 0.8260002 -0.42000008 0.8260002 -1.2459998 c 0 -0.37800026 -0.08400011 -0.8820002 -0.23799992 -1.5120003 c -0.32200003 -1.2179999 -0.72800016 -2.016 -1.2179999 -2.422 c -0.29400015 -0.23799998 -0.5600002 -0.364 -0.8260002 -0.364 c -0.40600014 0 -0.6860001 0.18200001 -0.84000015 0.56000006 c -0.12599993 0.29400003 -0.19599986 0.50399995 -0.19599986 0.61600006 l 0.714 2.926 c 0.06999993 0.3080001 0.32200003 0.6300001 0.714 0.95200014 c 0.39199996 0.32200003 0.74199986 0.48999977 1.0639999 0.48999977 Z "/>
        </symbol>
        <symbol id="g42D6A80ADCDC8169D17EAC43FCFBA9B5" overflow="visible">
            <path d="M 0 0m 2.0972 -0.098000005 c 0.44100022 0 0.89180017 0.21560001 1.3524001 0.6468 c 0.15680003 -0.40179998 0.50960016 -0.6468 1.0094001 -0.6468 c 0.32340002 0 0.5879998 0.1764 0.7937999 0.5292 c 0.078400135 0.12740001 0.34299994 0.78400004 0.34299994 0.98 c 0 0.10780001 -0.0685997 0.16659999 -0.19599962 0.16659999 c -0.049000263 0 -0.08820009 -0.009799957 -0.11760044 -0.029399991 c -0.0685997 -0.11760008 -0.117599964 -0.21560001 -0.12739992 -0.29400003 c -0.16659975 -0.67620003 -0.39199972 -1.0094 -0.66639996 -1.0094 c -0.18620014 0 -0.2841997 0.14700001 -0.2841997 0.44099998 c 0 0.10780001 0.048999786 0.3528 0.14699984 0.7448 l 0.21560001 0.8722 c 0.078400135 0.32340002 0.13719988 0.56840014 0.18620014 0.7252002 l 0.17639971 0.7644 c 0 0.22539997 -0.117599964 0.34299994 -0.36259985 0.34299994 c -0.22539997 0 -0.38220024 -0.10780001 -0.4605999 -0.33319998 c -0.24500012 0.34299994 -0.5782001 0.5194001 -0.98000026 0.5194001 c -0.66639996 0 -1.2642 -0.3038001 -1.7836 -0.9016001 c -0.49979997 -0.5782001 -0.7448 -1.2054 -0.7448 -1.8816001 c 0 -0.91139996 0.6076 -1.6366 1.4993999 -1.6366 Z m 1.6758001 3.7142 c 0.117599964 -0.20579982 0.17639995 -0.3527999 0.17639995 -0.44099998 c 0 -0.009799957 0 -0.029399872 -0.009799957 -0.049000025 l -0.47039986 -1.8718 c -0.058799982 -0.23520005 -0.23520017 -0.47039998 -0.53900003 -0.686 c -0.3038001 -0.21560001 -0.56840014 -0.32340002 -0.8036001 -0.32340002 c -0.44099998 0 -0.66639996 0.3038 -0.66639996 0.9016 c 0 0.23520005 0.058799982 0.55860007 0.16659999 0.9898 c 0.10780001 0.43120003 0.21560001 0.7448001 0.32340002 0.94079995 c 0.34299994 0.5978 0.7349999 0.9016001 1.1759999 0.9016001 c 0.3038001 0 0.5194001 -0.117599964 0.64680004 -0.3626001 Z "/>
        </symbol>
        <symbol id="g33F3B6CAB8F90F0610A588276DD2E949" overflow="visible">
            <path d="M 0 0m 1.9460001 1.4840001 c -0.44800007 0 -0.7420001 -0.33600008 -0.7420001 -0.78400004 c 0 -0.42000005 0.32200003 -0.77000004 0.7420001 -0.77000004 c 0.19599986 0 0.36400008 0.056 0.49 0.18200001 l 0.013999939 -0.112 c 0 -0.882 -0.2939999 -1.638 -0.88199997 -2.24 c -0.09800005 -0.11199999 -0.15400004 -0.1960001 -0.15400004 -0.2520001 c 0 -0.13999987 0.055999994 -0.21000004 0.18200004 -0.21000004 c 0.12599993 0 0.29400003 0.16799998 0.53199995 0.49 c 0.47600007 0.67200005 0.714 1.414 0.714 2.2120001 c 0 0.74200004 -0.25199986 1.4840001 -0.8959999 1.4840001 Z "/>
        </symbol>
        <symbol id="gA4D358BFA8D7637DC036F7E960C5046E" overflow="visible">
            <path d="M 0 0m 3.1360002 4.3512 c -0.38220024 0 -0.76440024 -0.15680027 -1.1466001 -0.4704001 l 0.63699996 2.5774 c 0.009799957 0.019599915 0.019600153 0.078400135 0.039200068 0.16660023 c 0 0.117599964 -0.06859994 0.17639971 -0.1960001 0.17639971 l -1.2348 -0.09800005 c -0.16659999 -0.009799957 -0.24499995 -0.09799957 -0.24499995 -0.2645998 c 0 -0.10780001 0.09799999 -0.16659975 0.29399997 -0.16659975 c 0.16659999 0 0.42140007 0 0.42140007 -0.10780001 c 0 -0.029400349 -0.0098000765 -0.09800005 -0.039200068 -0.20580006 c -0.14699996 -0.59780025 -0.26460004 -1.0486002 -0.33319998 -1.3524003 l -0.637 -2.5774 c -0.029399991 -0.1372 -0.049000025 -0.3038 -0.049000025 -0.49 c 0 -0.91139996 0.5586 -1.6366 1.4503999 -1.6366 c 0.6664002 0 1.2544 0.3038 1.7738001 0.9016 c 0.49979997 0.57820004 0.74479985 1.2152 0.74479985 1.8913999 c 0 0.931 -0.57819986 1.6562002 -1.4797997 1.6562002 Z m -1.7346002 -3.1556 c 0 0.26460004 0.11760008 0.8526001 0.3626001 1.7737999 c 0.029399991 0.12740016 0.09799993 0.25480008 0.22539997 0.40180016 c 0.36259997 0.42140007 0.735 0.6271999 1.1172 0.6271999 c 0.44099998 0 0.66639996 -0.30379987 0.66639996 -0.9015999 c 0 -0.56840014 -0.30379987 -1.5288 -0.49979997 -1.9208001 c -0.1960001 -0.4116 -0.6370001 -0.92120004 -1.1661999 -0.92120004 c -0.4704001 0 -0.70560014 0.4312 -0.70560014 0.9408001 Z "/>
        </symbol>
        <symbol id="g6607CDBB464E770EE76C0A95FA108A2" overflow="visible">
            <path d="M 0 0m 0.63 -3.5 h 1.666 v 14 h -1.666 c -0.20999998 0 -0.322 -0.11199951 -0.322 -0.3359995 c 0 -0.22399998 0.11200002 -0.33600044 0.322 -0.33600044 h 1.036 v -12.656 h -1.036 c -0.20999998 0 -0.322 -0.11199999 -0.322 -0.33599997 c 0 -0.22399998 0.11200002 -0.33599997 0.322 -0.33599997 Z "/>
        </symbol>
    </defs>
</svg>
