<svg class="typst-doc" viewBox="0 0 247.248 45.024" width="296.7" height="54.0" xmlns="http://www.w3.org/2000/svg" xmlns:xlink="http://www.w3.org/1999/xlink" xmlns:h5="http://www.w3.org/1999/xhtml">
    <g>
        <g class="typst-group">
            <g>
                <g class="typst-text" transform="matrix(1 0 0 -1 4.8 26.144)">
                    <use xlink:href="#g2BEE8D1E6BD79092E36C1DBFEB7383FF" x="0" y="0" fill="#000000" fill-rule="nonzero"/>
                    <use xlink:href="#gA2FBC3443D771EDF60252FE0008B4EF2" x="6.304" y="0" fill="#000000" fill-rule="nonzero"/>
                    <use xlink:href="#g81B430898A153190D358ED056FA67739" x="10.752" y="0" fill="#000000" fill-rule="nonzero"/>
                    <use xlink:href="#g9D1B70376732B58D4012779C53C0F0E6" x="15.200000000000001" y="0" fill="#000000" fill-rule="nonzero"/>
                    <use xlink:href="#g9D1B70376732B58D4012779C53C0F0E6" x="24.096000000000004" y="0" fill="#000000" fill-rule="nonzero"/>
                    <use xlink:href="#gA356090470692EF51E09CF1BD6D9D155" x="32.992000000000004" y="0" fill="#000000" fill-rule="nonzero"/>
                    <use xlink:href="#g2006BDB6C4606827A5FF5D783959A3A0" x="40.992000000000004" y="0" fill="#000000" fill-rule="nonzero"/>
                    <use xlink:href="#gCBBCED971BD41F41DD31F6C4F41BE73E" x="48.992000000000004" y="0" fill="#000000" fill-rule="nonzero"/>
                </g>
                <g class="typst-text" transform="matrix(1 0 0 -1 65.34044444444444 26.144)">
                    <use xlink:href="#gEBC7A44254DF8960ACE54D79D0347C26" x="0" y="0" fill="#000000" fill-rule="nonzero"/>
                </g>
                <g class="typst-text" transform="matrix(1 0 0 -1 83.8328888888889 15.312000000000001)">
                    <use xlink:href="#g2BEE8D1E6BD79092E36C1DBFEB7383FF" x="0" y="0" fill="#000000" fill-rule="nonzero"/>
                    <use xlink:href="#g9D1B70376732B58D4012779C53C0F0E6" x="6.304" y="0" fill="#000000" fill-rule="nonzero"/>
                    <use xlink:href="#gB943829011F417281E5E437A9DA05F67" x="15.200000000000001" y="0" fill="#000000" fill-rule="nonzero"/>
                    <use xlink:href="#gF32AE40DAB3C25054FF1898B46C96A10" x="23.200000000000003" y="0" fill="#000000" fill-rule="nonzero"/>
                    <use xlink:href="#g9D1B70376732B58D4012779C53C0F0E6" x="34.736000000000004" y="0" fill="#000000" fill-rule="nonzero"/>
                    <use xlink:href="#gDD7C6BC6E2DAC43581514E165E0D31CF" x="43.632000000000005" y="0" fill="#000000" fill-rule="nonzero"/>
                    <use xlink:href="#g81B430898A153190D358ED056FA67739" x="49.904" y="0" fill="#000000" fill-rule="nonzero"/>
                    <use xlink:href="#g81F5EADF207A96B8341796173B8304A5" x="54.352000000000004" y="0" fill="#000000" fill-rule="nonzero"/>
                    <use xlink:href="#gCBBCED971BD41F41DD31F6C4F41BE73E" x="61.456" y="0" fill="#000000" fill-rule="nonzero"/>
                </g>
                <g class="typst-text" transform="matrix(1 0 0 -1 155.94844444444445 15.312000000000001)">
                    <use xlink:href="#gA0D485AB365C080A2B7E74DDD113CE36" x="0" y="0" fill="#000000" fill-rule="nonzero"/>
                </g>
                <g class="typst-text" transform="matrix(1 0 0 -1 171.952 15.312000000000001)">
                    <use xlink:href="#gCBBCED971BD41F41DD31F6C4F41BE73E" x="0" y="0" fill="#000000" fill-rule="nonzero"/>
                    <use xlink:href="#gFDDE6184F69C8D0649068013DBB387E1" x="7.104" y="0" fill="#000000" fill-rule="nonzero"/>
                    <use xlink:href="#gCBBCED971BD41F41DD31F6C4F41BE73E" x="15.552" y="0" fill="#000000" fill-rule="nonzero"/>
                    <use xlink:href="#g81F5EADF207A96B8341796173B8304A5" x="22.656" y="0" fill="#000000" fill-rule="nonzero"/>
                    <use xlink:href="#g9D1B70376732B58D4012779C53C0F0E6" x="35.071999999999996" y="0" fill="#000000" fill-rule="nonzero"/>
                    <use xlink:href="#gDD7C6BC6E2DAC43581514E165E0D31CF" x="43.967999999999996" y="0" fill="#000000" fill-rule="nonzero"/>
                    <use xlink:href="#g81B430898A153190D358ED056FA67739" x="50.239999999999995" y="0" fill="#000000" fill-rule="nonzero"/>
                    <use xlink:href="#g81F5EADF207A96B8341796173B8304A5" x="54.687999999999995" y="0" fill="#000000" fill-rule="nonzero"/>
                    <use xlink:href="#gCBBCED971BD41F41DD31F6C4F41BE73E" x="61.791999999999994" y="0" fill="#000000" fill-rule="nonzero"/>
                </g>
                <g class="typst-text" transform="matrix(1 0 0 -1 128.06044444444444 37.120000000000005)">
                    <use xlink:href="#g2BEE8D1E6BD79092E36C1DBFEB7383FF" x="0" y="0" fill="#000000" fill-rule="nonzero"/>
                    <use xlink:href="#g9D1B70376732B58D4012779C53C0F0E6" x="6.304" y="0" fill="#000000" fill-rule="nonzero"/>
                    <use xlink:href="#gB943829011F417281E5E437A9DA05F67" x="15.200000000000001" y="0" fill="#000000" fill-rule="nonzero"/>
                    <use xlink:href="#gF32AE40DAB3C25054FF1898B46C96A10" x="23.200000000000003" y="0" fill="#000000" fill-rule="nonzero"/>
                    <use xlink:href="#g9D1B70376732B58D4012779C53C0F0E6" x="34.736000000000004" y="0" fill="#000000" fill-rule="nonzero"/>
                    <use xlink:href="#gDD7C6BC6E2DAC43581514E165E0D31CF" x="43.632000000000005" y="0" fill="#000000" fill-rule="nonzero"/>
                    <use xlink:href="#g81B430898A153190D358ED056FA67739" x="49.904" y="0" fill="#000000" fill-rule="nonzero"/>
                    <use xlink:href="#g81F5EADF207A96B8341796173B8304A5" x="54.352000000000004" y="0" fill="#000000" fill-rule="nonzero"/>
                    <use xlink:href="#gCBBCED971BD41F41DD31F6C4F41BE73E" x="61.456" y="0" fill="#000000" fill-rule="nonzero"/>
                </g>
                <path class="typst-shape" fill="none" stroke="#000000" stroke-width="0.768" stroke-linecap="butt" stroke-linejoin="miter" stroke-miterlimit="4" transform="matrix(1 0 0 1 83.8328888888889 22.144)" d="M 0 0h 157.0151 "/>
            </g>
        </g>
    </g>
    <defs id="glyph">
        <symbol id="g2BEE8D1E6BD79092E36C1DBFEB7383FF" overflow="visible">
            <path d="M 0 0m 5.76 2.0800002 c 0 1.2160001 -0.8319998 1.984 -2.48 2.3040001 c -0.7520001 0.14400005 -1.2320001 0.3199997 -1.4880002 0.4959998 c -0.25600004 0.17600012 -0.38399994 0.43200016 -0.38399994 0.73600006 c 0 0.75200033 0.55999994 1.1200004 1.68 1.1200004 c 1.088 0 1.6800001 -0.6080003 1.76 -1.8400002 c 0.01600027 -0.12800026 0.096000195 -0.19200039 0.25600004 -0.19200039 c 0.17600012 0 0.2720003 0.14400005 0.2720003 0.43200016 v 1.5840001 c 0 0.3039999 -0.07999992 0.44799995 -0.24000025 0.44799995 c -0.17600012 0 -0.4159999 -0.2880001 -0.57599974 -0.4159999 c -0.4000001 0.27199984 -0.89600015 0.4159999 -1.4720004 0.4159999 c -1.424 0 -2.56 -0.63999987 -2.56 -2 c 0 -0.54400015 0.22400004 -1.0079999 0.6880001 -1.3759999 c 0.56000006 -0.46400023 1.088 -0.5600002 2.0960002 -0.73600006 c 1.04 -0.20800018 1.5679998 -0.67200017 1.5679998 -1.3920002 c 0 -0.912 -0.55999994 -1.376 -1.6959999 -1.376 c -1.1040001 0 -1.8080002 0.73600006 -2.1120002 2.192 c -0.047999978 0.20800018 -0.12799996 0.32000017 -0.272 0.32000017 c -0.176 0 -0.272 -0.16000009 -0.272 -0.464 v -2.0640001 c 0 -0.30400002 0.08000004 -0.448 0.24000001 -0.448 c 0.048000038 0 0.12800002 0.048000008 0.25600004 0.16000001 c 0.288 0.256 0.15999997 0.208 0.44800007 0.49600002 c 0.464 -0.432 1.04 -0.656 1.7120001 -0.656 c 1.5199997 0 2.576 0.78400004 2.576 2.2560003 Z "/>
        </symbol>
        <symbol id="gA2FBC3443D771EDF60252FE0008B4EF2" overflow="visible">
            <path d="M 0 0m 2.3040001 0.048 l 1.7760003 -0.048 v 0.624 c -0.5760002 0 -0.9280002 0.016000032 -1.0400002 0.08000004 c -0.11199999 0.06399995 -0.16000009 0.25599998 -0.16000009 0.56 v 9.84 l -2.3520002 -0.17599964 v -0.6079998 c 0.56000006 0 0.91200006 -0.048000336 1.024 -0.14400005 c 0.11199999 -0.09599972 0.176 -0.3199997 0.176 -0.6879997 v -8.224001 c 0 -0.30400002 -0.047999978 -0.49600005 -0.15999997 -0.56 c -0.11199999 -0.06400001 -0.464 -0.08000004 -1.0400001 -0.08000004 v -0.624 Z "/>
        </symbol>
        <symbol id="g81B430898A153190D358ED056FA67739" overflow="visible">
            <path d="M 0 0m 3.104 9.616 c 0 0.4800005 -0.39999986 0.8959999 -0.8799999 0.8959999 c -0.48000014 0 -0.89600015 -0.4159994 -0.89600015 -0.8959999 c 0 -0.47999954 0.39999998 -0.9119997 0.8800001 -0.9119997 c 0.49600005 0 0.8959999 0.41600037 0.8959999 0.9119997 Z m -0.816 -9.568 l 1.664 -0.048 v 0.624 c -0.5279999 0 -0.84800005 0.032000005 -0.944 0.096000016 c -0.095999956 0.06400001 -0.12800002 0.24000001 -0.12800002 0.528 v 5.872 l -2.288 -0.19199991 v -0.6080003 c 0.528 0 0.8640001 -0.04799986 0.9760001 -0.12799978 c 0.11199999 -0.07999992 0.15999997 -0.3039999 0.15999997 -0.67199993 v -4.2560005 c 0 -0.30400002 -0.047999978 -0.49600005 -0.15999997 -0.56 c -0.11199999 -0.06400001 -0.464 -0.08000004 -1.0400001 -0.08000004 v -0.624 Z "/>
        </symbol>
        <symbol id="g9D1B70376732B58D4012779C53C0F0E6" overflow="visible">
            <path d="M 0 0m 4.768 -0.208 c 0.9920001 0 1.8400002 0.352 2.5280004 1.072 c 0.6879997 0.7200001 1.04 1.5680001 1.04 2.576 c 0 0.9760003 -0.3199997 1.8080001 -0.94400024 2.512 c -0.65599966 0.75200033 -1.4559999 1.1200004 -2.416 1.1200004 c -0.816 0 -1.5200002 -0.32000017 -2.1280003 -0.94400024 v 0.94400024 l -2.4 -0.17600012 v -0.6080003 c 0.59200007 0 0.94400007 -0.031999588 1.056 -0.11199999 c 0.11199999 -0.07999992 0.176 -0.28799963 0.176 -0.6240001 v -7.392 c 0 -0.30400002 -0.06400001 -0.49600017 -0.176 -0.56000006 c -0.11199999 -0.06400013 -0.464 -0.07999992 -1.056 -0.07999992 v -0.6240001 l 1.8240001 0.04799986 l 1.8399999 -0.04799986 v 0.6240001 c -0.59199977 0 -0.92799973 0.015999794 -1.04 0.07999992 c -0.11199999 0.06399989 -0.17599988 0.25600004 -0.17599988 0.56000006 v 2.5440001 c 0.352 -0.49600005 1.04 -0.91200006 1.872 -0.91200006 Z m 0.096000195 6.7520003 c 0.65600014 0 1.1679997 -0.36800003 1.5679998 -1.1040001 c 0.30400038 -0.6239996 0.46400023 -1.2799997 0.46400023 -2 c 0 -0.75199986 -0.17600012 -1.44 -0.5279999 -2.0640001 c -0.41600037 -0.75200003 -0.9760003 -1.12 -1.6640005 -1.12 c -0.67199993 0 -1.1999998 0.32000002 -1.5999999 0.944 c -0.14400005 0.20800006 -0.20799994 0.416 -0.20799994 0.6240001 v 3.504 c 0.464 0.816 1.1200001 1.2160001 1.9680002 1.2160001 Z "/>
        </symbol>
        <symbol id="gA356090470692EF51E09CF1BD6D9D155" overflow="visible">
            <path d="M 0 0m 7.728 1.4560001 v 0.944 h -0.5119996 v -0.944 c 0 -0.6240001 -0.17600012 -0.94400007 -0.5120001 -0.94400007 c -0.32000017 0 -0.5120001 0.40000004 -0.5120001 0.7200001 v 3.1520002 c 0 0.55999994 -0.06400013 0.97599983 -0.17600012 1.2639999 c -0.38399982 0.94400024 -1.4879999 1.52 -2.608 1.52 c -1.2320001 0 -2.4480002 -0.6879997 -2.4480002 -1.8400002 c 0 -0.5279999 0.27200007 -0.7999997 0.8000001 -0.7999997 c 0.528 0 0.78400004 0.25600004 0.78400004 0.7839999 c 0 0.46400023 -0.24000001 0.73600006 -0.73600006 0.7839999 c 0.352 0.4000001 0.8800001 0.6080003 1.5680001 0.6080003 c 0.99199986 0 1.6000001 -0.9120002 1.6000001 -1.9520001 v -0.52800035 c -1.2480001 -0.07999992 -2.1920002 -0.27199984 -2.8480003 -0.57599974 c -1.072 -0.49600005 -1.6159999 -1.184 -1.6159999 -2.0960002 c 0 -0.416 0.16000003 -0.768 0.46400005 -1.04 c 0.51199996 -0.46400002 1.2160001 -0.688 2.112 -0.688 c 0.944 0 1.6159999 0.40000004 2.0320003 1.2160001 c 0.11199999 -0.60800004 0.55999994 -1.136 1.2480001 -1.136 c 0.84800005 0 1.3599997 0.67200005 1.3599997 1.552 Z m -4.528 -1.1680001 c -0.7359998 0 -1.344 0.544 -1.344 1.2800001 c 0 1.4880002 1.5520002 2.128 3.1200004 2.2080002 v -1.5200002 c 0 -1.072 -0.704 -1.968 -1.7760003 -1.968 Z "/>
        </symbol>
        <symbol id="g2006BDB6C4606827A5FF5D783959A3A0" overflow="visible">
            <path d="M 0 0m 6.8960004 7.248 c -0.6080003 0 -1.1680002 -0.23999977 -1.6800003 -0.7199998 c -0.48000002 0.36800003 -1.0239997 0.54400015 -1.648 0.54400015 c -1.3759999 0 -2.624 -1.0240002 -2.624 -2.3680005 c 0 -0.67199993 0.23999995 -1.2159998 0.71999997 -1.632 c -0.30400002 -0.38399982 -0.464 -0.816 -0.464 -1.3119999 c 0 -0.60800004 0.20800006 -1.072 0.60800004 -1.3760002 c -0.67200005 -0.22399999 -1.3600001 -0.8 -1.3600001 -1.6160002 c 0 -0.68799996 0.448 -1.2320001 1.3280001 -1.6159999 c 0.67200005 -0.30400014 1.4080001 -0.4480002 2.2080002 -0.4480002 c 0.816 0 1.5679998 0.14400005 2.2400002 0.4480002 c 0.8800001 0.38399982 1.3119998 0.928 1.3119998 1.648 c 0 0.84800005 -0.35199976 1.4720001 -1.0559998 1.8720001 c -0.73600006 0.39999998 -1.552 0.44799995 -2.7360003 0.44799995 c -0.704 0 -1.088 0 -1.168 0.016000032 c -0.4480002 0.06400001 -0.7680001 0.49600005 -0.7680001 0.992 c 0 0.24000001 0.06400001 0.464 0.20799994 0.65600014 c 0.4480002 -0.30400014 0.96000004 -0.464 1.552 -0.464 c 1.3760002 0 2.608 1.0239999 2.608 2.368 c 0 0.6240001 -0.2079997 1.1360002 -0.6240001 1.5360003 c 0.4000001 0.36800003 0.83200026 0.5439997 1.2960005 0.5439997 c -0.0800004 -0.07999992 -0.12800026 -0.2079997 -0.12800026 -0.36800003 c 0 -0.35199976 0.17600012 -0.5279999 0.5279999 -0.5279999 c 0.33600044 0 0.5120001 0.17600012 0.5120001 0.54400015 c 0 0.4959998 -0.38399982 0.8319998 -0.86399984 0.8319998 Z m -3.3280003 -0.67199993 c 0.8640001 0 1.2960002 -0.6240001 1.2960002 -1.8720002 c 0 -1.2639999 -0.43200016 -1.9039998 -1.2960002 -1.9039998 c -0.8799999 0 -1.312 0.6240001 -1.312 1.888 c 0 1.2639999 0.43200016 1.888 1.312 1.888 Z m -0.944 -6.512 h 0.9280002 c 0.832 0 1.504 -0.048 2.016 -0.16 c 0.6880002 -0.14400001 1.0240002 -0.528 1.0240002 -1.1360002 c 0 -0.51199996 -0.32000017 -0.91199994 -0.96000004 -1.2160001 c -0.4960003 -0.24000001 -1.0400004 -0.352 -1.6320004 -0.352 c -0.57599974 0 -1.1199999 0.11199999 -1.632 0.352 c -0.6559999 0.30400014 -0.97599995 0.7040001 -0.97599995 1.2160001 c 0 0.6720001 0.576 1.2960001 1.232 1.2960001 Z "/>
        </symbol>
        <symbol id="gCBBCED971BD41F41DD31F6C4F41BE73E" overflow="visible">
            <path d="M 0 0m 6.6400003 4.0160003 c 0 1.8400002 -1.072 3.152 -2.864 3.152 c -0.96000004 0 -1.7600002 -0.36800003 -2.4160004 -1.1199999 c -0.608 -0.704 -0.912 -1.552 -0.912 -2.528 c 0 -1.0080001 0.33600003 -1.8560002 1.0080001 -2.5920002 c 0.67199993 -0.73600006 1.504 -1.1040001 2.496 -1.1040001 c 0.9120002 0 1.6160002 0.32000002 2.0960002 0.944 c 0.4000001 0.528 0.592 0.91200006 0.592 1.1680001 c 0 0.16000009 -0.096000195 0.24000001 -0.27199984 0.24000001 c -0.12800026 0 -0.20800018 -0.07999992 -0.25600004 -0.25600004 c -0.35200024 -1.056 -1.0400004 -1.5840001 -2.0640001 -1.5840001 c -0.72000027 0 -1.2800002 0.33600003 -1.7120001 1.0239999 c -0.30400014 0.49600005 -0.44800007 1.248 -0.4640001 2.2720003 h 4.32 c 0.35199976 0 0.44799995 0.032000065 0.44799995 0.38400006 Z m -1.4240003 1.5679998 c 0.17600012 -0.5279999 0.25600004 -1.04 0.25600004 -1.5039997 h -3.584 c 0.047999978 1.0559998 0.32000005 1.776 0.8000001 2.144 c 0.39999986 0.3199997 0.75199986 0.48000002 1.088 0.48000002 c 0.72 0 1.2 -0.36800003 1.4399998 -1.1200004 Z "/>
        </symbol>
        <symbol id="gEBC7A44254DF8960ACE54D79D0347C26" overflow="visible">
            <path d="M 0 0m 11.168 5.872 h -9.8880005 c -0.25600004 0 -0.38400006 -0.12799978 -0.38400006 -0.36800003 c 0 -0.23999977 0.12800002 -0.36800003 0.38400006 -0.36800003 h 9.8880005 c 0.25600052 0 0.38400078 0.12800026 0.38400078 0.36800003 c 0 0.19199991 -0.1760006 0.36800003 -0.38400078 0.36800003 Z m 0 -3.0080001 h -9.8880005 c -0.25600004 0 -0.38400006 -0.12800002 -0.38400006 -0.36800003 c 0 -0.24000001 0.12800002 -0.36800003 0.38400006 -0.36800003 h 9.8880005 c 0.25600052 0 0.38400078 0.12800002 0.38400078 0.36800003 c 0 0.20800018 -0.1760006 0.36800003 -0.38400078 0.36800003 Z "/>
        </symbol>
        <symbol id="gB943829011F417281E5E437A9DA05F67" overflow="visible">
            <path d="M 0 0m 3.9840002 -0.17600001 c 0.9920001 0 1.8239999 0.35200003 2.512 1.0560001 c 0.6880002 0.70400006 1.04 1.552 1.04 2.5440001 c 0 1.0079999 -0.33599997 1.888 -1.0079999 2.624 c -0.67199993 0.73600006 -1.52 1.1199999 -2.5280004 1.1199999 c -1.0079999 0 -1.8399999 -0.38399982 -2.5279999 -1.1199999 c -0.6880001 -0.73600006 -1.0240002 -1.6160002 -1.0240002 -2.624 c 0 -0.9920001 0.33600003 -1.8400002 1.0240002 -2.5440001 c 0.68799996 -0.70400006 1.536 -1.0560001 2.512 -1.0560001 Z m 0.015999794 0.512 c -0.7679999 0 -1.3439999 0.33600003 -1.744 1.0239999 c -0.25600004 0.44800007 -0.38399994 1.1840001 -0.38399994 2.1920004 c 0 0.9760001 0.1279999 1.6800001 0.3679999 2.128 c 0.38400006 0.6880002 0.96000004 1.0240002 1.7440002 1.0240002 c 0.75199986 0 1.3280001 -0.33599997 1.7280002 -0.9920001 c 0.27199984 -0.44799995 0.4000001 -1.1680002 0.4000001 -2.16 c 0 -1.8560002 -0.54400015 -3.2160003 -2.1120005 -3.2160003 Z "/>
        </symbol>
        <symbol id="gF32AE40DAB3C25054FF1898B46C96A10" overflow="visible">
            <path d="M 0 0m 5.3120003 2.016 v 0.96000004 h -0.5120001 v -0.928 c 0 -0.8000001 -0.2880001 -1.6960001 -0.9920001 -1.6960001 c -0.6559999 0 -0.9760001 0.544 -0.9760001 1.6320001 v 4.336 h 2.2240002 v 0.6080003 h -2.2240002 v 2.9119997 h -0.51199985 c -0.016000032 -0.5279999 -0.06400013 -0.9919996 -0.17600012 -1.408 c -0.27199996 -1.0559998 -0.896 -1.5999999 -1.84 -1.6479998 v -0.46400023 h 1.3280001 v -4.304 c 0 -0.944 0.288 -1.552 0.84799993 -1.8560001 c 0.43200016 -0.224 0.83200026 -0.33600003 1.2320001 -0.33600003 c 1.056 0 1.6000001 1.0560001 1.6000001 2.1920002 Z "/>
        </symbol>
        <symbol id="gDD7C6BC6E2DAC43581514E165E0D31CF" overflow="visible">
            <path d="M 0 0m 5.8240004 6.0480003 c 0 0.6240001 -0.592 1.0240002 -1.2160001 1.0240002 c -0.816 0 -1.44 -0.48000002 -1.8560002 -1.4560003 v 1.4560003 l -2.3040001 -0.17600012 v -0.6080003 c 0.56 0 0.8960001 -0.04799986 1.0240002 -0.14400005 c 0.1279999 -0.09599972 0.19199991 -0.3039999 0.19199991 -0.67199993 v -4.208 c 0 -0.30400002 -0.047999978 -0.49600005 -0.15999997 -0.56 c -0.11199999 -0.06400001 -0.464 -0.096000016 -1.056 -0.096000016 v -0.60800004 l 1.8400002 0.048 c 0.67199993 0.016000003 1.3600001 0 2.0480003 -0.048 v 0.60800004 h -0.3840003 c -0.5279999 0 -0.8640001 0.047999978 -0.9760001 0.12800002 c -0.11199999 0.07999998 -0.15999985 0.27199996 -0.15999985 0.55999994 v 2.4160001 c 0 0.68799996 0.12800002 1.312 0.36800003 1.8399999 c 0.31999993 0.6880002 0.7839999 1.0400004 1.4079998 1.0560002 c -0.15999985 -0.15999985 -0.23999977 -0.35199976 -0.23999977 -0.5760002 c 0 -0.4959998 0.23999977 -0.7359996 0.73600006 -0.7359996 c 0.43200016 0 0.73600006 0.33599997 0.73600006 0.75199986 Z "/>
        </symbol>
        <symbol id="g81F5EADF207A96B8341796173B8304A5" overflow="visible">
            <path d="M 0 0m 4.0160003 6.656 c 0.67199993 0 1.184 -0.15999985 1.5359998 -0.48000002 c -0.38399982 -0.04799986 -0.65599966 -0.39999962 -0.65599966 -0.76799965 c 0 -0.52800035 0.25600004 -0.7840004 0.7839999 -0.7840004 c 0.5279999 0 0.7839999 0.2720003 0.7839999 0.8000002 c 0 1.1360002 -1.2319999 1.744 -2.4640002 1.744 c -0.99199986 0 -1.8079998 -0.35199976 -2.464 -1.0879998 c -0.65599996 -0.73600006 -0.992 -1.6160002 -0.992 -2.6240003 c 0 -0.9760001 0.33600003 -1.84 0.992 -2.56 c 0.65600014 -0.72 1.4560001 -1.072 2.4320002 -1.072 c 0.79999995 0 1.424 0.224 1.872 0.688 c 0.36800003 0.36800003 0.6080003 0.736 0.73600006 1.1200001 c 0.048000336 0.14400005 0.06400013 0.24000001 0.06400013 0.30400002 c 0 0.14400005 -0.096000195 0.20799994 -0.27199984 0.20799994 c -0.12800026 0 -0.20800018 -0.06399989 -0.25600004 -0.19199991 c -0.33599997 -1.072 -0.9920001 -1.6160002 -2.0000005 -1.6160002 c -0.46399975 0 -0.91199994 0.208 -1.3599999 0.64000005 c -0.5279999 0.49600005 -0.78400004 1.3280001 -0.78400004 2.512 c 0 1.6000001 0.60800016 3.168 2.0480003 3.168 Z "/>
        </symbol>
        <symbol id="gA0D485AB365C080A2B7E74DDD113CE36" overflow="visible">
            <path d="M 0 0m 11.168 4.32 h -9.8880005 c -0.25600004 0 -0.38400006 -0.11199999 -0.38400006 -0.32000017 c 0 -0.2079997 0.12800002 -0.31999993 0.38400006 -0.31999993 h 9.8880005 c 0.25600052 0 0.38400078 0.11200023 0.38400078 0.31999993 c 0 0.19200039 -0.19200039 0.32000017 -0.38400078 0.32000017 Z "/>
        </symbol>
        <symbol id="gFDDE6184F69C8D0649068013DBB387E1" overflow="visible">
            <path d="M 0 0m 6.688 0.048 c 0.36800003 0.016000003 0.8960004 0 1.5680003 -0.048 v 0.60800004 c -0.84800005 0 -1.1680002 0.015999973 -1.5040002 0.464 l -2.08 2.6880002 c 0.6879997 0.84800005 1.152 1.4239998 1.408 1.7280002 c 0.44799995 0.5120001 1.072 0.7839999 1.888 0.7999997 v 0.6080003 c -0.44799995 -0.032000065 -0.8959999 -0.04799986 -1.3439999 -0.04799986 c -0.5920005 0 -1.1200004 0.015999794 -1.5840001 0.04799986 v -0.6080003 c 0.3039999 -0.031999588 0.46399975 -0.17599964 0.46399975 -0.43199968 c 0 -0.14400005 -0.07999992 -0.32000017 -0.22399998 -0.5120001 l -0.928 -1.152 l -1.184 1.52 c -0.08000016 0.11199999 -0.12800002 0.19199991 -0.12800002 0.23999977 c 0 0.20800018 0.19199991 0.32000017 0.55999994 0.33599997 v 0.6080003 l -1.776 -0.04799986 c -0.416 -0.01600027 -0.9280001 0 -1.552 0.04799986 v -0.6080003 c 0.57600003 0 0.94400007 -0.04799986 1.1040001 -0.12799978 c 0.15999997 -0.07999992 0.416 -0.35200024 0.768 -0.816 l 1.5200002 -1.9840002 c -0.78400016 -1.0080001 -1.2640002 -1.616 -1.44 -1.8240001 c -0.5120001 -0.62399995 -1.1840001 -0.928 -2.0320003 -0.928 v -0.60800004 c 0.592 0.048 1.0400001 0.064 1.376 0.048 l 1.552 -0.048 v 0.60800004 c -0.3039999 0.047999978 -0.44799995 0.19199997 -0.44799995 0.43200004 c 0 0.06400001 0.016000032 0.14399993 0.04799986 0.22399998 c 0.096000195 0.20800006 0.5280001 0.752 1.2960002 1.6640002 l 1.152 -1.5040002 c 0.17600012 -0.22399998 0.27199984 -0.38399994 0.32000017 -0.47999996 c 0 -0.208 -0.19199991 -0.32000005 -0.5760002 -0.33600003 v -0.60800004 Z "/>
        </symbol>
    </defs>
</svg>
