<svg class="typst-doc" viewBox="0 0 196.07662222222223 25.744000000000003" width="235.3" height="30.9" xmlns="http://www.w3.org/2000/svg" xmlns:xlink="http://www.w3.org/1999/xlink" xmlns:h5="http://www.w3.org/1999/xhtml">
    <g>
        <g class="typst-group">
            <g>
                <g class="typst-text" transform="matrix(1 0 0 -1 4.8 16.768)">
                    <use xlink:href="#gCC3DF5A4206E9464C10601996BBB99BE" x="0" y="0" fill="#000000" fill-rule="nonzero"/>
                </g>
                <g class="typst-text" transform="matrix(1 0 0 -1 13.120000000000001 20.72)">
                    <use xlink:href="#gDC982211A287E7D2627A90094683477B" x="0" y="0" fill="#000000" fill-rule="nonzero"/>
                    <use xlink:href="#gDF936743D2F1C4E9EB144F87EEC94E93" x="3.4272" y="0" fill="#000000" fill-rule="nonzero"/>
                    <use xlink:href="#gB7B705D37EC879A1935703CB77EB7668" x="6.5408" y="0" fill="#000000" fill-rule="nonzero"/>
                    <use xlink:href="#g5AD678E18F5C40BD05B5D97DBEBE1D66" x="12.768" y="0" fill="#000000" fill-rule="nonzero"/>
                    <use xlink:href="#gCA4B6984C97AE8F1E6F5627AFF659E24" x="18.368000000000002" y="0" fill="#000000" fill-rule="nonzero"/>
                </g>
                <g class="typst-text" transform="matrix(1 0 0 -1 39.94204444444444 16.768)">
                    <use xlink:href="#gEBC7A44254DF8960ACE54D79D0347C26" x="0" y="0" fill="#000000" fill-rule="nonzero"/>
                </g>
                <g class="typst-text" transform="matrix(1 0 0 -1 56.834488888888885 16.768)">
                    <use xlink:href="#gA5E87E105C0526946E292CE66823BE89" x="0" y="0" fill="#000000" fill-rule="nonzero"/>
                    <use xlink:href="#gCBBCED971BD41F41DD31F6C4F41BE73E" x="13.328" y="0" fill="#000000" fill-rule="nonzero"/>
                    <use xlink:href="#gFAC774E6D47718C01BB0D2676D7E827E" x="20.432" y="0" fill="#000000" fill-rule="nonzero"/>
                    <use xlink:href="#g81B430898A153190D358ED056FA67739" x="29.328" y="0" fill="#000000" fill-rule="nonzero"/>
                    <use xlink:href="#gA356090470692EF51E09CF1BD6D9D155" x="33.775999999999996" y="0" fill="#000000" fill-rule="nonzero"/>
                    <use xlink:href="#g27F72C6D8980CF334B55BAE88AEE79F3" x="41.775999999999996" y="0" fill="#000000" fill-rule="nonzero"/>
                </g>
                <g class="typst-text" transform="matrix(1 0 0 -1 107.50648888888888 16.768)">
                    <use xlink:href="#g510A2F4626C8E1179A673AFEE9E4E2CF" x="0" y="0" fill="#000000" fill-rule="nonzero"/>
                </g>
                <g class="typst-text" transform="matrix(1 0 0 -1 113.73048888888889 16.768)">
                    <use xlink:href="#gCC3DF5A4206E9464C10601996BBB99BE" x="0" y="0" fill="#000000" fill-rule="nonzero"/>
                </g>
                <g class="typst-text" transform="matrix(1 0 0 -1 122.05048888888888 20.72)">
                    <use xlink:href="#gFE3C45E3A3A0F498A73746ED430EFE80" x="0" y="0" fill="#000000" fill-rule="nonzero"/>
                </g>
                <g class="typst-text" transform="matrix(1 0 0 -1 132.76888888888888 16.768)">
                    <use xlink:href="#g387ED7F1CF043DE547E2F9416A6F43BC" x="0" y="0" fill="#000000" fill-rule="nonzero"/>
                </g>
                <g class="typst-text" transform="matrix(1 0 0 -1 139.88355555555555 16.768)">
                    <use xlink:href="#gCC3DF5A4206E9464C10601996BBB99BE" x="0" y="0" fill="#000000" fill-rule="nonzero"/>
                </g>
                <g class="typst-text" transform="matrix(1 0 0 -1 148.20355555555554 20.72)">
                    <use xlink:href="#gE0B6889DA0492A998BFFFB91AEA8C42C" x="0" y="0" fill="#000000" fill-rule="nonzero"/>
                </g>
                <g class="typst-text" transform="matrix(1 0 0 -1 159.05635555555554 16.768)">
                    <use xlink:href="#g387ED7F1CF043DE547E2F9416A6F43BC" x="0" y="0" fill="#000000" fill-rule="nonzero"/>
                </g>
                <g class="typst-text" transform="matrix(1 0 0 -1 166.1710222222222 16.768)">
                    <use xlink:href="#gCC3DF5A4206E9464C10601996BBB99BE" x="0" y="0" fill="#000000" fill-rule="nonzero"/>
                </g>
                <g class="typst-text" transform="matrix(1 0 0 -1 174.4910222222222 20.72)">
                    <use xlink:href="#g4F9C4A8A356672145FFC1D0B545D2E8" x="0" y="0" fill="#000000" fill-rule="nonzero"/>
                </g>
                <g class="typst-text" transform="matrix(1 0 0 -1 185.0526222222222 16.768)">
                    <use xlink:href="#g27C4ADFA50FFEB42B80D7FFBC084C81B" x="0" y="0" fill="#000000" fill-rule="nonzero"/>
                </g>
            </g>
        </g>
    </g>
    <defs id="glyph">
        <symbol id="gCC3DF5A4206E9464C10601996BBB99BE" overflow="visible">
            <path d="M 0 0m 6.8640003 10.112 l -0.94400024 -3.888 c -0.33599997 0.592 -0.7999997 0.8959999 -1.4239998 0.8959999 c -1.0400002 0 -1.9520001 -0.5279999 -2.7520003 -1.5999999 c -0.73600006 -0.9920001 -1.1040001 -2.0320003 -1.1040001 -3.1040003 c 0 -1.4080001 0.81600004 -2.5920002 2.16 -2.5920002 c 0.68799996 0 1.3600001 0.36800003 2 1.1200001 c 0.17600012 -0.60800004 0.72000027 -1.1200001 1.4720001 -1.1200001 c 1.1040001 0 1.4559999 1.312 1.6960001 2.4960003 c 0 0.14400005 -0.07999992 0.22399998 -0.24000025 0.22399998 c -0.14399958 0 -0.23999977 -0.11199999 -0.28799963 -0.33599997 c -0.32000017 -1.2640002 -0.704 -1.9040002 -1.1360002 -1.9040002 c -0.2720003 0 -0.4159999 0.22399998 -0.4159999 0.656 c 0 0.24000001 0.031999588 0.49600005 0.09599972 0.7520001 l 2.2720003 9.152 v 0.06400013 c -0.048000336 0.112000465 -0.14400005 0.17599964 -0.2720003 0.17599964 c -0.36800003 0 -1.04 -0.063999176 -2 -0.17599964 c -0.17600012 -0.015999794 -0.27199984 -0.14400005 -0.27199984 -0.36800003 c 0 -0.15999985 0.14400005 -0.23999977 0.43199968 -0.23999977 c 0.30400038 0 0.72000027 0.015999794 0.72000027 -0.20800018 Z m -1.408 -4.096 c 0.15999985 -0.33599997 0.23999977 -0.55999994 0.23999977 -0.704 c -0.015999794 -0.06400013 -0.032000065 -0.14400005 -0.04799986 -0.25600004 l -0.7839999 -3.104 c -0.04799986 -0.176 -0.16000032 -0.36800003 -0.3039999 -0.56000006 c -0.59200025 -0.72 -1.1680002 -1.088 -1.7280004 -1.088 c -0.62399983 0 -0.9439999 0.48000002 -0.9439999 1.424 c 0 0.38399994 0.095999956 0.96000016 0.288 1.728 c 0.33599997 1.3600004 0.816 2.2880003 1.408 2.7840002 c 0.32000017 0.27199984 0.6240001 0.4000001 0.928 0.4000001 c 0.43200016 0 0.75200033 -0.20800018 0.94400024 -0.6240001 Z "/>
        </symbol>
        <symbol id="gDC982211A287E7D2627A90094683477B" overflow="visible">
            <path d="M 0 0m 2.968 7.896 c -0.99679995 0 -1.736 -0.8064003 -1.736 -1.8032002 v -1.2319999 h -0.8624 v -0.42560005 h 0.8624 v -3.5503998 c 0 -0.21279997 -0.033600092 -0.34719998 -0.11199999 -0.39199996 c -0.078400016 -0.044800013 -0.3248 -0.056000024 -0.7392 -0.056000024 v -0.43679997 l 1.288 0.0336 c 0.47039998 0.0112 0.952 0 1.4335998 -0.0336 v 0.43679997 h -0.26880002 c -0.36959982 0 -0.6048 0.022400022 -0.6831999 0.078399986 c -0.0783999 0.055999994 -0.11199999 0.1904 -0.11199999 0.39200002 v 3.5279999 h 1.2544 v 0.42560005 h -1.2880001 v 1.2431998 c 0 0.67199993 0.34720016 1.4560003 0.9632001 1.4560003 c 0.08959985 0 0.16799998 -0.011200428 0.24639988 -0.03360033 c -0.16799998 -0.089600086 -0.25759983 -0.24639988 -0.25759983 -0.4591999 c 0 -0.34719992 0.16799998 -0.5264001 0.5151999 -0.5264001 c 0.34719992 0 0.5264001 0.17920017 0.5264001 0.53760004 c 0 0.5040002 -0.5264001 0.81760025 -1.0304 0.81760025 Z "/>
        </symbol>
        <symbol id="gDF936743D2F1C4E9EB144F87EEC94E93" overflow="visible">
            <path d="M 0 0m 2.1727998 6.7311997 c 0 0.33599997 -0.27999985 0.6272001 -0.61599994 0.6272001 c -0.33599997 0 -0.62719995 -0.29120016 -0.62719995 -0.6272001 c 0 -0.33599997 0.28000003 -0.6384001 0.616 -0.6384001 c 0.34720004 0 0.6271999 0.29120016 0.6271999 0.6384001 Z m -0.5711999 -6.6976 l 1.1647999 -0.0336 v 0.43679997 c -0.36960006 0 -0.59360003 0.022400022 -0.6608 0.067200035 c -0.067199945 0.044799984 -0.08959985 0.16799998 -0.08959985 0.36959994 v 4.1103997 l -1.6016 -0.13439989 v -0.42560005 c 0.3696 0 0.6048 -0.033599854 0.6832 -0.089600086 c 0.078400016 -0.055999756 0.11199999 -0.21280003 0.11199999 -0.47039986 v -2.9792 c 0 -0.21279997 -0.033599973 -0.34719998 -0.11199999 -0.39199996 c -0.078400016 -0.044800013 -0.3248 -0.056000024 -0.728 -0.056000024 v -0.43679997 Z "/>
        </symbol>
        <symbol id="gB7B705D37EC879A1935703CB77EB7668" overflow="visible">
            <path d="M 0 0m 3.5168 4.6256 c 0.5039997 0 0.7616 -0.3920002 0.7616 -1.1872001 v -2.5535998 c 0 -0.21279997 -0.03360033 -0.34719998 -0.11199999 -0.39199996 c -0.078400135 -0.044800013 -0.3248 -0.067200005 -0.7392001 -0.067200005 v -0.4256 l 1.2880001 0.0336 l 1.2767997 -0.0336 v 0.4256 c -0.35839987 0 -0.5935998 0.011199981 -0.7055998 0.044799984 c -0.11199999 0.033600032 -0.1567998 0.11199999 -0.1567998 0.2464 v 2.0944 c 0 0.5264001 -0.011200428 0.8959999 -0.04480028 1.1087999 c -0.11199999 0.6832001 -0.6159997 1.0304 -1.5007999 1.0304 c -0.7056 0 -1.2319999 -0.33599997 -1.5792 -1.0079999 v 1.0079999 l -1.6463999 -0.12319994 v -0.42560005 c 0.40319997 0 0.6496 -0.033599854 0.7392 -0.10080004 c 0.08959997 -0.067200184 0.12319994 -0.21280003 0.12319994 -0.4704001 v -2.9455998 c 0 -0.21279997 -0.044799924 -0.34719998 -0.12319994 -0.39199996 c -0.078400016 -0.044800013 -0.3248 -0.067200005 -0.7392 -0.067200005 v -0.4256 l 1.288 0.0336 l 1.2767999 -0.0336 v 0.4256 c -0.41439986 0 -0.6496 0.022399992 -0.7279999 0.067200005 c -0.078400135 0.044799984 -0.12319994 0.1792 -0.12319994 0.39199996 v 2.016 c 0 0.90719986 0.5711999 1.7247999 1.4447999 1.7247999 Z "/>
        </symbol>
        <symbol id="g5AD678E18F5C40BD05B5D97DBEBE1D66" overflow="visible">
            <path d="M 0 0m 5.4096 1.0192 v 0.6608 h -0.35839987 v -0.6608 c 0 -0.4368 -0.12319994 -0.6608 -0.35839987 -0.6608 c -0.22399998 0 -0.35840034 0.27999997 -0.35840034 0.504 v 2.2064 c 0 0.39199996 -0.044799805 0.6831999 -0.12319994 0.88479996 c -0.26879978 0.6608 -1.0416 1.0640001 -1.8255999 1.0640001 c -0.86239994 0 -1.7135999 -0.48160028 -1.7135999 -1.2880001 c 0 -0.36960006 0.1904 -0.5600002 0.56 -0.5600002 c 0.36959994 0 0.5488 0.17920017 0.5488 0.5488 c 0 0.32480025 -0.1680001 0.5151999 -0.5152 0.54880023 c 0.2464 0.27999973 0.61599994 0.42560005 1.0976 0.42560005 c 0.69439983 0 1.1199999 -0.6384001 1.1199999 -1.3664002 v -0.36959982 c -0.8736 -0.055999994 -1.5343999 -0.19040012 -1.9935999 -0.40320015 c -0.75039995 -0.34719992 -1.1312 -0.82879984 -1.1312 -1.4671999 c 0 -0.29119992 0.11199999 -0.5375999 0.3248 -0.7279999 c 0.3584 -0.32479998 0.8512 -0.4816 1.4783999 -0.4816 c 0.6608 0 1.1312001 0.28 1.4224 0.8512 c 0.0783999 -0.4256 0.39199996 -0.7952 0.87359977 -0.7952 c 0.5936003 0 0.95200014 0.47039998 0.95200014 1.0863999 Z m -3.1695998 -0.8176 c -0.5152 0 -0.9408001 0.38079998 -0.9408001 0.896 c 0 1.0416 1.0863999 1.4896 2.184 1.5455999 v -1.064 c 0 -0.75039995 -0.4928 -1.3776 -1.2431998 -1.3776 Z "/>
        </symbol>
        <symbol id="gCA4B6984C97AE8F1E6F5627AFF659E24" overflow="visible">
            <path d="M 0 0m 1.6127999 0.0336 l 1.2432001 -0.0336 v 0.43679997 c -0.40320015 0 -0.6496 0.011200011 -0.7279999 0.056000024 c -0.078400135 0.044799984 -0.11199999 0.1792 -0.11199999 0.39199996 v 6.8879995 l -1.6464 -0.12319994 v -0.42559958 c 0.39199996 0 0.6384 -0.03360033 0.7167999 -0.10080004 c 0.078400016 -0.067200184 0.12320006 -0.22399998 0.12320006 -0.48160028 v -5.7567997 c 0 -0.21279997 -0.033599973 -0.34719998 -0.11199999 -0.39199996 c -0.078400016 -0.044800013 -0.3248 -0.056000024 -0.728 -0.056000024 v -0.43679997 Z "/>
        </symbol>
        <symbol id="gEBC7A44254DF8960ACE54D79D0347C26" overflow="visible">
            <path d="M 0 0m 11.168 5.872 h -9.8880005 c -0.25600004 0 -0.38400006 -0.12799978 -0.38400006 -0.36800003 c 0 -0.23999977 0.12800002 -0.36800003 0.38400006 -0.36800003 h 9.8880005 c 0.25600052 0 0.38400078 0.12800026 0.38400078 0.36800003 c 0 0.19199991 -0.1760006 0.36800003 -0.38400078 0.36800003 Z m 0 -3.0080001 h -9.8880005 c -0.25600004 0 -0.38400006 -0.12800002 -0.38400006 -0.36800003 c 0 -0.24000001 0.12800002 -0.36800003 0.38400006 -0.36800003 h 9.8880005 c 0.25600052 0 0.38400078 0.12800002 0.38400078 0.36800003 c 0 0.20800018 -0.1760006 0.36800003 -0.38400078 0.36800003 Z "/>
        </symbol>
        <symbol id="gA5E87E105C0526946E292CE66823BE89" overflow="visible">
            <path d="M 0 0m 5.0400004 6.6080003 c 0.73600006 0 1.1039996 -0.55999994 1.1039996 -1.6960001 v -3.6480002 c 0 -0.30400002 -0.04799986 -0.49600005 -0.15999985 -0.56 c -0.11199999 -0.06400001 -0.48000002 -0.096000016 -1.072 -0.096000016 v -0.60800004 l 1.856 0.048 l 1.8400006 -0.048 v 0.60800004 c -0.592 0 -0.94400024 0.032000005 -1.0560002 0.096000016 c -0.11199999 0.06399995 -0.17600012 0.25599998 -0.17600012 0.56 v 2.88 c 0 1.2800002 0.8319998 2.4640002 2.0640001 2.4640002 c 0.75199986 0 1.1199999 -0.55999994 1.1199999 -1.6960001 v -3.6480002 c 0 -0.30400002 -0.06400013 -0.49600005 -0.17599964 -0.56 c -0.112000465 -0.06400001 -0.4800005 -0.096000016 -1.0720005 -0.096000016 v -0.60800004 l 1.856 0.048 l 1.8400002 -0.048 v 0.60800004 c -0.5120001 0 -0.8479996 0.015999973 -1.0079994 0.06400001 c -0.1600008 0.047999978 -0.22399998 0.15999997 -0.22399998 0.352 v 2.992 c 0 0.75199986 -0.03200054 1.2800002 -0.08000088 1.5840001 c -0.15999985 0.97599983 -0.87999916 1.4720001 -2.144 1.4720001 c -1.0079994 0 -1.7599998 -0.46400023 -2.2719998 -1.4080005 c -0.22399998 0.94400024 -0.928 1.4080005 -2.1279998 1.4080005 c -1.0080004 0 -1.7760003 -0.48000002 -2.2880003 -1.44 v 1.44 l -2.352 -0.17600012 v -0.6080003 c 0.57600003 0 0.92800003 -0.04799986 1.056 -0.14400005 c 0.12800002 -0.09599972 0.176 -0.3039999 0.176 -0.67199993 v -4.208 c 0 -0.30400002 -0.06400001 -0.49600005 -0.176 -0.56 c -0.11199999 -0.06400001 -0.464 -0.096000016 -1.056 -0.096000016 v -0.60800004 l 1.856 0.048 l 1.8400002 -0.048 v 0.60800004 c -0.592 0 -0.96000004 0.032000005 -1.072 0.096000016 c -0.11199999 0.06399995 -0.17600012 0.25599998 -0.17600012 0.56 v 2.88 c 0 1.296 0.84800005 2.4640002 2.0800004 2.4640002 Z "/>
        </symbol>
        <symbol id="gCBBCED971BD41F41DD31F6C4F41BE73E" overflow="visible">
            <path d="M 0 0m 6.6400003 4.0160003 c 0 1.8400002 -1.072 3.152 -2.864 3.152 c -0.96000004 0 -1.7600002 -0.36800003 -2.4160004 -1.1199999 c -0.608 -0.704 -0.912 -1.552 -0.912 -2.528 c 0 -1.0080001 0.33600003 -1.8560002 1.0080001 -2.5920002 c 0.67199993 -0.73600006 1.504 -1.1040001 2.496 -1.1040001 c 0.9120002 0 1.6160002 0.32000002 2.0960002 0.944 c 0.4000001 0.528 0.592 0.91200006 0.592 1.1680001 c 0 0.16000009 -0.096000195 0.24000001 -0.27199984 0.24000001 c -0.12800026 0 -0.20800018 -0.07999992 -0.25600004 -0.25600004 c -0.35200024 -1.056 -1.0400004 -1.5840001 -2.0640001 -1.5840001 c -0.72000027 0 -1.2800002 0.33600003 -1.7120001 1.0239999 c -0.30400014 0.49600005 -0.44800007 1.248 -0.4640001 2.2720003 h 4.32 c 0.35199976 0 0.44799995 0.032000065 0.44799995 0.38400006 Z m -1.4240003 1.5679998 c 0.17600012 -0.5279999 0.25600004 -1.04 0.25600004 -1.5039997 h -3.584 c 0.047999978 1.0559998 0.32000005 1.776 0.8000001 2.144 c 0.39999986 0.3199997 0.75199986 0.48000002 1.088 0.48000002 c 0.72 0 1.2 -0.36800003 1.4399998 -1.1200004 Z "/>
        </symbol>
        <symbol id="gFAC774E6D47718C01BB0D2676D7E827E" overflow="visible">
            <path d="M 0 0m 5.984 -0.17600001 l 2.448 0.17600001 v 0.60800004 c -0.57599974 0 -0.9119997 0.032000005 -1.04 0.12800002 c -0.12799978 0.095999956 -0.19199991 0.33599997 -0.19199991 0.704 v 9.664 l -2.3839998 -0.17599964 v -0.6079998 c 0.55999994 0 0.9119997 -0.048000336 1.04 -0.14400005 c 0.12799978 -0.09599972 0.17599964 -0.3199997 0.17599964 -0.6879997 v -3.2480006 c -0.5119996 0.592 -1.152 0.8800001 -1.9200001 0.8800001 c -0.99199986 0 -1.8399999 -0.35200024 -2.5279999 -1.072 c -0.6880001 -0.72000027 -1.0400001 -1.5840001 -1.0400001 -2.5920002 c 0 -0.9760001 0.32 -1.824 0.9760001 -2.5440001 c 0.656 -0.72 1.456 -1.088 2.4320002 -1.088 c 0.816 0 1.5040002 0.30400002 2.032 0.92800003 Z m -1.8080001 6.8160005 c 0.6880002 0 1.2480001 -0.3039999 1.6480002 -0.9120002 c 0.11199999 -0.17600012 0.15999985 -0.35199976 0.15999985 -0.55999994 v -3.232 c 0 -0.20800006 -0.04799986 -0.38400006 -0.15999985 -0.56000006 c -0.44799995 -0.72 -1.0560002 -1.072 -1.8080001 -1.072 c -0.65600014 0 -1.1840003 0.32 -1.6000001 0.9760001 c -0.2880001 0.48000002 -0.43200004 1.1999999 -0.43200004 2.1599998 c 0 1.744 0.5920001 3.2000003 2.192 3.2000003 Z "/>
        </symbol>
        <symbol id="g81B430898A153190D358ED056FA67739" overflow="visible">
            <path d="M 0 0m 3.104 9.616 c 0 0.4800005 -0.39999986 0.8959999 -0.8799999 0.8959999 c -0.48000014 0 -0.89600015 -0.4159994 -0.89600015 -0.8959999 c 0 -0.47999954 0.39999998 -0.9119997 0.8800001 -0.9119997 c 0.49600005 0 0.8959999 0.41600037 0.8959999 0.9119997 Z m -0.816 -9.568 l 1.664 -0.048 v 0.624 c -0.5279999 0 -0.84800005 0.032000005 -0.944 0.096000016 c -0.095999956 0.06400001 -0.12800002 0.24000001 -0.12800002 0.528 v 5.872 l -2.288 -0.19199991 v -0.6080003 c 0.528 0 0.8640001 -0.04799986 0.9760001 -0.12799978 c 0.11199999 -0.07999992 0.15999997 -0.3039999 0.15999997 -0.67199993 v -4.2560005 c 0 -0.30400002 -0.047999978 -0.49600005 -0.15999997 -0.56 c -0.11199999 -0.06400001 -0.464 -0.08000004 -1.0400001 -0.08000004 v -0.624 Z "/>
        </symbol>
        <symbol id="gA356090470692EF51E09CF1BD6D9D155" overflow="visible">
            <path d="M 0 0m 7.728 1.4560001 v 0.944 h -0.5119996 v -0.944 c 0 -0.6240001 -0.17600012 -0.94400007 -0.5120001 -0.94400007 c -0.32000017 0 -0.5120001 0.40000004 -0.5120001 0.7200001 v 3.1520002 c 0 0.55999994 -0.06400013 0.97599983 -0.17600012 1.2639999 c -0.38399982 0.94400024 -1.4879999 1.52 -2.608 1.52 c -1.2320001 0 -2.4480002 -0.6879997 -2.4480002 -1.8400002 c 0 -0.5279999 0.27200007 -0.7999997 0.8000001 -0.7999997 c 0.528 0 0.78400004 0.25600004 0.78400004 0.7839999 c 0 0.46400023 -0.24000001 0.73600006 -0.73600006 0.7839999 c 0.352 0.4000001 0.8800001 0.6080003 1.5680001 0.6080003 c 0.99199986 0 1.6000001 -0.9120002 1.6000001 -1.9520001 v -0.52800035 c -1.2480001 -0.07999992 -2.1920002 -0.27199984 -2.8480003 -0.57599974 c -1.072 -0.49600005 -1.6159999 -1.184 -1.6159999 -2.0960002 c 0 -0.416 0.16000003 -0.768 0.46400005 -1.04 c 0.51199996 -0.46400002 1.2160001 -0.688 2.112 -0.688 c 0.944 0 1.6159999 0.40000004 2.0320003 1.2160001 c 0.11199999 -0.60800004 0.55999994 -1.136 1.2480001 -1.136 c 0.84800005 0 1.3599997 0.67200005 1.3599997 1.552 Z m -4.528 -1.1680001 c -0.7359998 0 -1.344 0.544 -1.344 1.2800001 c 0 1.4880002 1.5520002 2.128 3.1200004 2.2080002 v -1.5200002 c 0 -1.072 -0.704 -1.968 -1.7760003 -1.968 Z "/>
        </symbol>
        <symbol id="g27F72C6D8980CF334B55BAE88AEE79F3" overflow="visible">
            <path d="M 0 0m 5.024 6.6080003 c 0.72000027 0 1.0880003 -0.55999994 1.0880003 -1.6960001 v -3.6480002 c 0 -0.30400002 -0.048000336 -0.49600005 -0.16000032 -0.56 c -0.11199999 -0.06400001 -0.46399975 -0.096000016 -1.0559998 -0.096000016 v -0.60800004 l 1.8400002 0.048 l 1.8239999 -0.048 v 0.60800004 c -0.5120001 0 -0.84800005 0.015999973 -1.0079999 0.06400001 c -0.16000032 0.047999978 -0.22399998 0.15999997 -0.22399998 0.352 v 2.992 c 0 0.75199986 -0.01600027 1.2800002 -0.06400013 1.5840001 c -0.15999985 0.97599983 -0.8800001 1.4720001 -2.144 1.4720001 c -1.0080004 0 -1.7600002 -0.48000002 -2.2560003 -1.44 v 1.44 l -2.352 -0.17600012 v -0.6080003 c 0.57600003 0 0.92800003 -0.04799986 1.056 -0.14400005 c 0.12800002 -0.09599972 0.176 -0.3039999 0.176 -0.67199993 v -4.208 c 0 -0.30400002 -0.06400001 -0.49600005 -0.176 -0.56 c -0.11199999 -0.06400001 -0.464 -0.096000016 -1.056 -0.096000016 v -0.60800004 l 1.8399999 0.048 l 1.8240001 -0.048 v 0.60800004 c -0.592 0 -0.928 0.032000005 -1.04 0.096000016 c -0.11199999 0.06399995 -0.17600012 0.25599998 -0.17600012 0.56 v 2.88 c 0 1.296 0.8160002 2.4640002 2.0640001 2.4640002 Z "/>
        </symbol>
        <symbol id="g510A2F4626C8E1179A673AFEE9E4E2CF" overflow="visible">
            <path d="M 0 0m 5.0880003 -3.9680002 c 0.14400005 0 0.22399998 0.07999992 0.22399998 0.22399998 c 0 0.048000097 -0.032000065 0.11199999 -0.07999992 0.17600012 c -0.83200026 0.63999987 -1.5040002 1.696 -2.0000002 3.152 c -0.43199992 1.264 -0.6559999 2.512 -0.6559999 3.744 v 1.3440003 c 0 1.2319999 0.22399998 2.48 0.6559999 3.744 c 0.49600005 1.4560003 1.168 2.512 2.0000002 3.1520004 c 0.04799986 0.047999382 0.07999992 0.11199951 0.07999992 0.17599964 c 0 0.14400005 -0.07999992 0.22399998 -0.22399998 0.22399998 c -0.01600027 0 -0.06400013 -0.015999794 -0.11199999 -0.047999382 c -0.96000004 -0.73600006 -1.7600002 -1.8240004 -2.4160001 -3.2800007 c -0.6240001 -1.3920002 -0.9440001 -2.704 -0.9440001 -3.968 v -1.3440003 c 0 -1.2639999 0.32000005 -2.576 0.9440001 -3.9680002 c 0.6559999 -1.4560001 1.4560001 -2.5440001 2.4160001 -3.28 c 0.04799986 -0.032000065 0.09599972 -0.048000097 0.11199999 -0.048000097 Z "/>
        </symbol>
        <symbol id="gFE3C45E3A3A0F498A73746ED430EFE80" overflow="visible">
            <path d="M 0 0m 9.1728 5.9024 c 0 0.5935998 -0.33600044 1.0415998 -0.9968004 1.3663998 c -0.5264001 0.25759983 -1.1199999 0.38079977 -1.7807999 0.38079977 h -3.4048 c -0.25759983 0 -0.4031999 -0.033599854 -0.4031999 -0.29119968 c 0 -0.12319994 0.0783999 -0.17920017 0.23519993 -0.19040012 l 0.5824001 -0.022399902 c 0.14559984 -0.011199951 0.21280003 0 0.21280003 -0.11199999 l -1.5120001 -6.1152 c -0.055999994 -0.22400004 -0.16799998 -0.3584 -0.33599997 -0.41439998 c -0.055999994 -0.011200011 -0.25759995 -0.022400022 -0.5935999 -0.022400022 h -0.1904 c -0.1232 -0.011200011 -0.1904 -0.10080001 -0.1904 -0.2688 c 0 -0.14559999 0.078399956 -0.2128 0.22399998 -0.2128 c 0.44799995 0 0.952 0.055999998 1.4111999 0.0448 l 0.7168 -0.0112 c 0.13440013 0 0.59360003 -0.0336 0.7391999 -0.0336 c 0.19040012 0 0.2800002 0.0896 0.2800002 0.2688 c 0 0.1232 -0.067200184 0.20159999 -0.19040012 0.2128 h -0.22399998 c -0.34719992 0 -0.5488 0.022400022 -0.6048 0.067200005 c -0.011199951 0.011200011 -0.011199951 0.033599973 -0.011199951 0.078400016 l 0.7279999 3.0015998 h 1.4783998 c 0.70560026 0 1.3216 -0.3024001 1.3216 -0.9519999 c 0 -0.078400135 -0.055999756 -0.3360002 -0.1567998 -0.76160014 c -0.12319994 -0.50399995 -0.17920017 -0.7951999 -0.17920017 -0.8735999 c 0 -0.8512 0.7616 -1.2656 1.6688004 -1.2656 c 0.33599997 0 0.67199945 0.14559999 1.0079999 0.4256 c 0.3359995 0.28 0.5039997 0.58239996 0.5039997 0.9072 c 0 0.12320006 -0.07839966 0.1904 -0.23519993 0.1904 c -0.11199951 0 -0.19040012 -0.067199945 -0.23519993 -0.21280003 c -0.13440037 -0.4031999 -0.5039997 -0.9071999 -0.9968004 -0.9071999 c -0.30239964 0 -0.44799948 0.22399998 -0.44799948 0.672 c 0 0.25759995 0.033599854 0.63839996 0.11199999 1.1423999 c 0.033599854 0.20160007 0.044799805 0.3808 0.044799805 0.5264001 c 0 0.58239985 -0.3248 1.0079999 -0.9631996 1.2767999 c 1.0303998 0.26880002 2.3856 0.9967997 2.3856 2.1056 Z m -1.5792003 0.92959976 c 0.23519993 -0.14559984 0.34719992 -0.3920002 0.34719992 -0.7616 c 0 -0.25759983 -0.055999756 -0.5264001 -0.17920017 -0.8175998 c -0.33599997 -0.81760025 -1.1423998 -1.2207999 -2.4079995 -1.2207999 h -1.3776002 l 0.69439983 2.7887998 c 0.067200184 0.23519993 0.04480028 0.31360006 0.3024001 0.33599997 h 0.7168002 c 0.8623996 0 1.3327999 0.011199951 1.9039998 -0.3248 Z "/>
        </symbol>
        <symbol id="g387ED7F1CF043DE547E2F9416A6F43BC" overflow="visible">
            <path d="M 0 0m 2.2240002 1.6960001 c -0.5120001 0 -0.84800017 -0.38400006 -0.84800017 -0.8960001 c 0 -0.48 0.36800003 -0.88 0.84800017 -0.88 c 0.22399998 0 0.4159999 0.064 0.55999994 0.208 l 0.016000032 -0.128 c 0 -1.008 -0.33599997 -1.8720001 -1.0080001 -2.5600002 c -0.11199999 -0.12800002 -0.176 -0.22399998 -0.176 -0.28799987 c 0 -0.16000009 0.06400001 -0.24000001 0.20800006 -0.24000001 c 0.14399993 0 0.33599997 0.19199991 0.60800004 0.55999994 c 0.5439999 0.768 0.816 1.616 0.816 2.528 c 0 0.84800005 -0.2880001 1.6960001 -1.0239999 1.6960001 Z "/>
        </symbol>
        <symbol id="gE0B6889DA0492A998BFFFB91AEA8C42C" overflow="visible">
            <path d="M 0 0m 5.8799996 3.1471999 c -0.19039965 0 -0.27999973 -0.10080004 -0.27999973 -0.29119992 c 0 -0.21280003 0.1567998 -0.20160007 0.4368 -0.20160007 c 0.5488 0 0.8511996 -0.022399902 0.92959976 -0.0783999 c 0.022399902 -0.011199951 0.033599854 -0.055999994 0.033599854 -0.11199999 c 0 -0.033600092 -0.022399902 -0.14560008 -0.07839966 -0.33599997 c -0.14560032 -0.59360003 -0.22399998 -0.896 -0.23519993 -0.91840005 c -0.26880026 -0.6048 -1.2432003 -0.94079995 -2.1728 -0.94079995 c -0.6272001 0 -1.1872001 0.1568 -1.6687999 0.48159996 c -0.57120013 0.36960006 -0.8512001 0.99679995 -0.8512001 1.8704001 c 0 1.3327999 0.6608 2.7775998 1.3552 3.4719996 c 0.87359977 0.86240005 1.8479998 1.2880001 2.9232 1.2880001 c 1.2319999 0 1.9935994 -0.88479996 1.9935994 -2.1167998 c 0 -0.16800022 -0.011199951 -0.3248 -0.033599854 -0.4591999 c 0 -0.12320042 0.07840061 -0.19040012 0.24639988 -0.19040012 c 0.13440037 0 0.22399998 0.089600086 0.2800007 0.27999973 l 0.6831999 2.7888002 c 0 0.12319994 -0.06719971 0.19039965 -0.19040012 0.19039965 c -0.055999756 0 -0.13440037 -0.044799805 -0.23519993 -0.14559984 l -0.77280045 -0.8175998 c -0.5039997 0.6383996 -1.1983995 0.9631996 -2.0831995 0.9631996 c -0.88479996 0 -1.7472 -0.23519993 -2.5872 -0.69439983 c -1.3664 -0.7616 -2.7888 -2.3072 -2.7888 -4.2335997 c 0 -0.96319985 0.34719998 -1.7359998 1.0304 -2.3295999 c 0.6496 -0.56 1.4672 -0.84 2.4528 -0.84 c 1.1647997 0 2.0159998 0.28 2.5647998 0.84 c 0.21280003 -0.4032 0.3920002 -0.6048 0.55999994 -0.6048 c 0.10080004 0 0.16800022 0.10079999 0.22399998 0.31359997 l 0.44800043 1.8479998 c 0.12319946 0.48160005 0.13439941 0.48160005 0.76159954 0.48160005 c 0.19040012 0.011199951 0.27999973 0.10080004 0.27999973 0.27999997 c 0 0.14560008 -0.06719971 0.21280003 -0.21280003 0.21280003 c -0.22399998 0 -0.97439957 -0.055999994 -1.2095995 -0.044800043 l -0.9184003 0.011199951 c -0.26879978 0 -0.69439983 0.01120019 -0.88479996 0.033600092 Z "/>
        </symbol>
        <symbol id="g4F9C4A8A356672145FFC1D0B545D2E8" overflow="visible">
            <path d="M 0 0m 9.3744 6.0368 c 0 0.53760004 -0.26880074 0.95199966 -0.8064003 1.2431998 c -0.4368 0.24639988 -0.95200014 0.36959982 -1.5344 0.36959982 h -4.032 c -0.25759983 0 -0.4031999 -0.033599854 -0.4031999 -0.29119968 c 0 -0.12319994 0.078400135 -0.17920017 0.23519993 -0.19040012 l 0.5824001 -0.022399902 c 0.14560008 -0.011199951 0.21280003 0 0.21280003 -0.11199999 l -1.5120001 -6.1152 c -0.055999994 -0.22400004 -0.16799986 -0.3584 -0.33599985 -0.41439998 c -0.055999994 -0.011200011 -0.2464 -0.022400022 -0.59360003 -0.022400022 h -0.1904 c -0.1232 -0.011200011 -0.1904 -0.10080001 -0.1904 -0.2688 c 0 -0.1904 0.14560002 -0.2128 0.3808 -0.2128 h 4.2896 c 0.7503996 0 1.4671998 0.2128 2.1503997 0.6272 c 0.7951999 0.48159993 1.1872001 1.0752 1.1872001 1.7808 c 0 0.8959999 -0.8512001 1.4447999 -1.6911998 1.6015997 c 0.99679995 0.22399998 2.2512002 0.9632001 2.2512002 2.0272002 Z m -1.1760006 0.011199951 c 0 -0.55999994 -0.27999973 -1.0191998 -0.8287997 -1.3888001 c -0.49280024 -0.3248 -1.0304003 -0.4815998 -1.6240001 -0.4815998 h -1.7584 l 0.6608 2.6432 c 0.089600086 0.33599997 0.089600086 0.34719992 0.5264001 0.34719992 h 1.6799998 c 0.77279997 0 1.3439999 -0.3920002 1.3439999 -1.1199999 Z m -0.5935998 -3.5616 c 0 -0.58239996 -0.26879978 -1.0752 -0.7951999 -1.4671999 c -0.48160028 -0.3584 -1.0191998 -0.5376 -1.6240001 -0.5376 h -1.7807999 c -0.21280003 0 -0.31360006 -0.022399992 -0.31360006 0.067200005 l 0.7951999 3.2255998 h 2.3184 c 0.81760025 0 1.4000001 -0.47039986 1.4000001 -1.2879999 Z "/>
        </symbol>
        <symbol id="g27C4ADFA50FFEB42B80D7FFBC084C81B" overflow="visible">
            <path d="M 0 0m 1.248 -3.92 c 0.96000016 0.7359998 1.7600001 1.8239999 2.4160004 3.28 c 0.62399983 1.3920001 0.944 2.7040002 0.944 3.9680002 v 1.3440003 c 0 1.2639999 -0.32000017 2.5759997 -0.944 3.968 c -0.65600014 1.4560003 -1.4560001 2.5440006 -2.4160004 3.2800007 c -0.047999978 0.031999588 -0.095999956 0.047999382 -0.11199999 0.047999382 c -0.144 0 -0.22399998 -0.07999992 -0.22399998 -0.22399998 c 0 -0.06400013 0.032000005 -0.12800026 0.07999998 -0.17599964 c 0.8320001 -0.64000034 1.504 -1.6960001 2 -3.1520004 c 0.43200016 -1.2639999 0.65600014 -2.512 0.65600014 -3.744 v -1.3440003 c 0 -1.2319999 -0.22399998 -2.48 -0.65600014 -3.744 c -0.49600005 -1.4560001 -1.168 -2.512 -2 -3.152 c -0.047999978 -0.06400013 -0.07999998 -0.12800002 -0.07999998 -0.17600012 c 0 -0.14400005 0.07999998 -0.22399998 0.22399998 -0.22399998 c 0.016000032 0 0.06400001 0.016000032 0.11199999 0.048000097 Z "/>
        </symbol>
    </defs>
</svg>
