<svg class="typst-doc" viewBox="0 0 14.895999999999999 17.962" width="17.9" height="21.6" xmlns="http://www.w3.org/2000/svg" xmlns:xlink="http://www.w3.org/1999/xlink" xmlns:h5="http://www.w3.org/1999/xhtml">
    <g>
        <g class="typst-text" transform="matrix(1 0 0 -1 4.2 13.761999999999999)">
            <use xlink:href="#gCCA3298FA600BFDD558706948D5F6143" x="0" y="0" fill="#000000" fill-rule="nonzero"/>
        </g>
    </g>
    <defs id="glyph">
        <symbol id="gCCA3298FA600BFDD558706948D5F6143" overflow="visible">
            <path d="M 0 0m 6.104 5.236 c 0 0.5880003 -0.5739999 0.95200014 -1.19 0.95200014 c -0.6859999 0 -1.26 -0.32200003 -1.7359998 -0.98 c -0.1400001 0.546 -0.6160002 0.98 -1.2740002 0.98 c -0.574 0 -0.994 -0.44799995 -1.2880001 -1.3580003 c -0.13999999 -0.4619999 -0.20999998 -0.7279997 -0.20999998 -0.8119998 c 0 -0.12599993 0.06999999 -0.1960001 0.22399998 -0.1960001 c 0.07000005 0 0.11200005 0.014000177 0.15400004 0.042000055 c 0.06999999 0.12599993 0.11199999 0.22400022 0.12599999 0.32200027 c 0.25200003 1.0639997 0.57400006 1.5959997 0.9520001 1.5959997 c 0.23800004 0 0.36399996 -0.1960001 0.36399996 -0.5879998 c 0 -0.18200016 -0.06999993 -0.55999994 -0.21000004 -1.1340003 l -0.798 -3.178 c -0.042000055 -0.18199998 -0.12600005 -0.546 -0.12600005 -0.61600006 c 0 -0.28 0.15400004 -0.42000002 0.44800007 -0.42000002 c 0.27999997 0 0.462 0.14 0.56000006 0.42000002 l 0.26600003 1.008 c 0.1539998 0.602 0.25199986 0.9940001 0.2939999 1.176 l 0.43400002 1.792 c 0.027999878 0.11199999 0.1400001 0.29400015 0.32200003 0.55999994 c 0.37800002 0.53200006 0.81200004 0.98 1.4979999 0.98 c 0.16800022 0 0.3080001 -0.027999878 0.43400002 -0.09800005 c -0.42000008 -0.12599993 -0.6300001 -0.39199972 -0.6300001 -0.77 c 0 -0.36399984 0.1960001 -0.546 0.57400036 -0.546 c 0.4619999 0 0.8119998 0.40600014 0.8119998 0.86800003 Z "/>
        </symbol>
    </defs>
</svg>
